<svg width="36" height="36" viewBox="0 0 36 36" fill="none" xmlns="http://www.w3.org/2000/svg">
<circle cx="18" cy="18" r="18" fill="white"/>
<path fill-rule="evenodd" clip-rule="evenodd" d="M21.3996 8C21.5996 9.1 21.0996 10.2 20.4996 11C19.8996 11.8 18.7996 12.5 17.6996 12.4C17.4996 11.3 17.9996 10.3 18.5996 9.5C19.2996 8.7 20.3996 8.1 21.3996 8ZM24.5996 25.4C25.0996 24.6 25.3996 24.1 25.7996 23.2C22.6996 22 22.1996 17.6 25.2996 16C24.3996 14.8 23.0996 14.2 21.7996 14.2C20.8996 14.2 20.2996 14.4 19.6996 14.6C19.1996 14.8 18.7996 14.9 18.2996 14.9C17.6996 14.9 17.2996 14.7 16.6996 14.5C16.0996 14.3 15.4996 14.1 14.7996 14.1C13.3996 14.1 11.8996 14.9 10.9996 16.4C9.69956 18.4 9.89956 22.3 11.9996 25.5C12.8996 26.7 13.8996 28 15.1996 28C15.7996 28 16.0996 27.8 16.4996 27.7C16.9996 27.5 17.4996 27.3 18.2996 27.3C19.1996 27.3 19.5996 27.5 20.0996 27.7C20.4996 27.9 20.7996 28 21.3996 28C22.7996 28 23.7996 26.5 24.5996 25.4Z" fill="black"/>
</svg>
