<svg width="66" height="21" viewBox="0 0 66 21" fill="none" xmlns="http://www.w3.org/2000/svg">
<g clip-path="url(#clip0_2244_2542)">
<path d="M54.693 7.10205L57.4099 10.1011L60.0255 7.10205H65.6107L60.1523 13.25L65.6855 19.4481H59.875L57.1836 16.4254L54.517 19.4481H48.9062L54.3911 13.2756L48.9062 7.10205H54.693Z" fill="#FF5900"/>
<path d="M48.906 7.1019V11.2733H42.6941V15.1011H48.906V19.448H38.1289V0H48.906V4.33497H42.6941V7.1019H48.906Z" fill="#FF5900"/>
<path d="M33.5831 0V7.95903H33.5329C32.5257 6.80035 31.2685 6.39738 29.8098 6.39738C26.821 6.39738 24.5694 8.43328 23.7794 11.1234C22.8771 8.15915 20.5525 6.34164 17.1058 6.34164C14.3069 6.34164 12.0963 7.59991 10.9432 9.65044V7.1019H5.15729V4.33497H11.4714V0H0V19.448H5.15729V11.2733H10.2982C10.1449 11.8737 10.0628 12.517 10.0628 13.1959C10.0628 17.2522 13.1573 20.0995 17.1058 20.0995C20.4266 20.0995 22.6153 18.5379 23.7721 15.6914H19.3519C18.7544 16.5477 18.301 16.8008 17.1058 16.8008C15.72 16.8008 14.5249 15.59 14.5249 14.1545H23.5248C23.9153 17.3764 26.4214 20.1553 29.8599 20.1553C31.3434 20.1553 32.7018 19.4242 33.532 18.1906H33.5822V19.4498H38.1282V0H33.5831ZM14.669 11.3309C14.9555 10.0954 15.9125 9.28858 17.1067 9.28858C18.4214 9.28858 19.3291 10.0708 19.5682 11.3309C19.6685 11.3309 14.669 11.3309 14.669 11.3309ZM30.8233 16.4873C29.1474 16.4873 28.1056 14.9229 28.1056 13.29C28.1056 11.5447 29.0115 9.86609 30.8233 9.86609C32.7018 9.86609 33.4499 11.5447 33.4499 13.29C33.4499 14.9449 32.6571 16.4873 30.8233 16.4873Z" fill="#2A007C"/>
</g>
<defs>
<clipPath id="clip0_2244_2542">
<rect width="66" height="21" fill="white"/>
</clipPath>
</defs>
</svg>
