<svg width="71" height="25" viewBox="0 0 71 25" fill="none" xmlns="http://www.w3.org/2000/svg">
<path d="M32.8001 12.3961C32.9101 12.3641 37.9401 12.3481 38.2601 12.3801C38.2861 12.4241 38.2541 12.4621 38.2421 12.4981C37.7021 14.0541 37.1581 15.6101 36.6181 17.1661C36.5861 17.2561 36.5401 17.2941 36.4461 17.3081C35.9421 17.3821 35.4361 17.4521 34.9301 17.5061C34.3821 17.5641 33.8321 17.6181 33.2821 17.6581C32.6581 17.7041 32.0341 17.7321 31.4101 17.7381C30.9041 17.7441 30.4001 17.7461 29.8941 17.7261C28.5861 17.6701 27.2901 17.5161 26.0301 17.1401C25.3441 16.9341 24.6861 16.6661 24.0881 16.2661C23.7261 16.0241 23.4021 15.7421 23.1401 15.3901C22.6741 14.7641 22.5141 14.0621 22.6401 13.2961C22.8081 12.2681 23.3161 11.4181 24.0341 10.6821C24.7001 10.0021 25.4841 9.48211 26.3281 9.05411C27.4821 8.46811 28.7021 8.07611 29.9621 7.80411C30.9701 7.58611 31.9921 7.45411 33.0221 7.39011C34.0941 7.32411 35.1661 7.35011 36.2381 7.38811C36.6961 7.40411 37.1541 7.42811 37.6101 7.46011C38.1041 7.49611 38.5961 7.54011 39.0841 7.61811C39.1941 7.63611 39.1961 7.63811 39.1601 7.74811C38.9421 8.38811 38.7241 9.02811 38.5061 9.66611C38.4721 9.76411 38.4221 9.79011 38.3301 9.74211C37.5321 9.31411 36.6521 9.21011 35.7761 9.08211C35.1101 8.98611 34.4401 8.93411 33.7681 8.94211C32.7521 8.95211 31.7541 9.07811 30.7941 9.42811C30.0401 9.70411 29.3641 10.1001 28.8061 10.6841C28.2161 11.3001 27.8721 12.0401 27.7121 12.8701C27.6241 13.3241 27.6121 13.7801 27.7281 14.2321C27.8781 14.8141 28.2181 15.2581 28.7241 15.5781C29.1501 15.8461 29.6201 15.9921 30.1101 16.0761C30.8541 16.2041 31.6021 16.2021 32.3521 16.1461C32.4241 16.1401 32.4761 16.1321 32.5041 16.0481C32.7721 15.2721 33.0621 14.5041 33.3181 13.7241C33.3621 13.5901 33.3941 13.4541 33.4121 13.3141C33.4441 13.0801 33.3781 12.8821 33.2081 12.7181C33.1101 12.6221 32.9961 12.5501 32.8801 12.4821C32.8481 12.4581 32.8001 12.4521 32.8001 12.3961Z" fill="#02819F"/>
<path d="M52.104 17.2541C52.032 17.2581 51.982 17.2621 51.934 17.2621C50.268 17.2621 48.602 17.2621 46.936 17.2621C46.77 17.2621 46.79 17.2981 46.748 17.1101C46.496 15.9681 46.246 14.8261 45.996 13.6841C45.99 13.6601 45.998 13.6301 45.954 13.6161C45.936 13.6621 45.918 13.7081 45.902 13.7541C45.816 13.9901 45.704 14.2121 45.54 14.4061C45.316 14.6721 45.04 14.8121 44.684 14.8101C43.706 14.8021 42.726 14.8101 41.748 14.8041C41.632 14.8041 41.558 14.8361 41.488 14.9321C41.248 15.2581 40.998 15.5781 40.752 15.9021C40.648 16.0381 40.56 16.1861 40.49 16.3441C40.386 16.5801 40.416 16.7561 40.604 16.9381C40.67 17.0021 40.748 17.0561 40.82 17.1161C40.868 17.1561 40.926 17.1821 40.962 17.2341C40.96 17.2401 40.958 17.2461 40.956 17.2501C40.954 17.2541 40.95 17.2621 40.948 17.2621C39.71 17.2621 38.472 17.2621 37.234 17.2621C37.224 17.2061 37.264 17.1821 37.288 17.1521C39.244 14.7061 41.202 12.2601 43.158 9.81408C43.372 9.54608 43.578 9.27008 43.786 8.99608C43.87 8.88408 43.95 8.76808 44.008 8.63808C44.112 8.39808 44.076 8.18208 43.9 7.99008C43.818 7.90208 43.722 7.83008 43.62 7.76608C43.582 7.74208 43.532 7.73208 43.512 7.68408C43.544 7.64208 43.59 7.66008 43.628 7.66008C45.394 7.66008 47.158 7.66008 48.924 7.66008C49.054 7.66008 49.056 7.66208 49.086 7.79208C49.516 9.58608 49.944 11.3801 50.376 13.1721C50.572 13.9861 50.776 14.7961 50.968 15.6101C51.1 16.1741 51.392 16.6321 51.832 17.0021C51.914 17.0761 52.012 17.1441 52.104 17.2541ZM42.602 13.5021C43.74 13.5021 44.842 13.5021 45.96 13.5021C45.718 12.3721 45.484 11.2501 45.234 10.1001C44.346 11.2461 43.482 12.3621 42.602 13.5021Z" fill="#02809F"/>
<path d="M52.5264 8.33979C52.5444 8.29779 52.5724 8.26379 52.6084 8.23579C52.6144 8.23179 52.6184 8.22579 52.6204 8.21979L52.6264 8.20979C52.6344 8.19979 52.6424 8.19179 52.6504 8.18179C52.6544 8.16379 52.6644 8.15179 52.6804 8.14579C52.6964 8.13979 52.7064 8.12779 52.7104 8.10979C52.7164 8.09979 52.7224 8.09179 52.7284 8.08179C52.7364 8.07779 52.7424 8.06979 52.7444 8.06179L52.7504 8.05379C52.7584 8.04379 52.7664 8.03379 52.7744 8.02379C52.7844 7.99379 52.8044 7.97179 52.8304 7.95379L52.8384 7.94179C52.8364 7.93379 52.8404 7.92979 52.8464 7.92979C52.8544 7.92179 52.8604 7.91179 52.8684 7.90379C52.8864 7.86179 52.9144 7.82979 52.9504 7.79979C52.9564 7.79579 52.9604 7.78979 52.9644 7.78179L52.9704 7.77179C52.9784 7.76179 52.9864 7.75379 52.9944 7.74379C52.9984 7.72579 53.0064 7.71379 53.0244 7.70779C53.0404 7.70179 53.0504 7.68979 53.0544 7.67179C53.0544 7.66379 53.0564 7.65579 53.0624 7.64979C53.1644 7.62779 53.2684 7.66179 53.3724 7.64379C53.3824 7.64179 53.3904 7.64379 53.4004 7.64579C53.4824 7.69579 53.5724 7.67779 53.6584 7.67779C55.0804 7.67979 56.5004 7.67979 57.9224 7.67979C60.2904 7.67979 62.6604 7.67979 65.0284 7.68179C65.0924 7.68179 65.1644 7.65579 65.2204 7.71179C64.7004 8.41979 64.1804 9.12579 63.6464 9.85179C63.5004 9.59179 63.2784 9.45779 63.0224 9.37579C62.9244 9.34379 62.8224 9.32179 62.7204 9.30179C62.2684 9.21179 61.8084 9.23579 61.3524 9.23379C61.1084 9.23379 60.8644 9.25379 60.6204 9.27979C60.5284 9.28979 60.4784 9.32779 60.4464 9.42179C59.7624 11.4098 59.0744 13.3978 58.3884 15.3858C58.3204 15.5818 58.2644 15.7818 58.2324 15.9878C58.1864 16.2918 58.2324 16.5718 58.4104 16.8318C58.4804 16.9358 58.5544 17.0318 58.6544 17.1078C58.6604 17.1098 58.6664 17.1098 58.6724 17.1098L58.6824 17.1178C58.6904 17.1258 58.7004 17.1318 58.7084 17.1398C58.7204 17.1498 58.7344 17.1598 58.7464 17.1698C58.7524 17.1858 58.7644 17.1958 58.7804 17.1978C58.7784 17.2178 58.7764 17.2378 58.7744 17.2598C58.6604 17.2618 58.5464 17.2658 58.4304 17.2658C56.6964 17.2658 54.9624 17.2658 53.2284 17.2658C53.1824 17.2658 53.1344 17.2618 53.0884 17.2598C53.0804 17.2518 53.0704 17.2418 53.0624 17.2338C53.0724 17.1558 53.1044 17.0838 53.1344 17.0138C53.1404 17.0018 53.1444 16.9918 53.1504 16.9798C53.2164 16.7478 53.3004 16.5198 53.3844 16.2958C53.3904 16.2838 53.3944 16.2738 53.4004 16.2618C53.4644 16.0298 53.5504 15.8038 53.6344 15.5778C53.6404 15.5658 53.6444 15.5558 53.6504 15.5438C53.6924 15.3738 53.7564 15.2098 53.8184 15.0478C53.8244 15.0358 53.8304 15.0238 53.8364 15.0098C53.8424 14.9918 53.8464 14.9718 53.8524 14.9538C53.8584 14.9418 53.8644 14.9298 53.8684 14.9178C53.9404 14.6538 54.0404 14.3978 54.1344 14.1418C54.1404 14.1298 54.1444 14.1198 54.1504 14.1078C54.1864 13.9558 54.2384 13.8118 54.3024 13.6698C54.3064 13.6638 54.3084 13.6558 54.3084 13.6478C54.4124 13.2978 54.5404 12.9558 54.6644 12.6118C54.6704 12.5998 54.6744 12.5898 54.6804 12.5778C54.7444 12.3458 54.8304 12.1198 54.9144 11.8938C54.9204 11.8818 54.9244 11.8718 54.9304 11.8598C54.9724 11.6898 55.0364 11.5278 55.0984 11.3638C55.1044 11.3518 55.1104 11.3398 55.1164 11.3258C55.1204 11.3078 55.1264 11.2878 55.1304 11.2698C55.1364 11.2578 55.1424 11.2458 55.1484 11.2338C55.2424 10.8998 55.3724 10.5758 55.4824 10.2478C55.5864 9.93779 55.6964 9.62979 55.8044 9.31579C55.7164 9.29179 55.6344 9.27979 55.5524 9.27579C54.8664 9.24179 54.1804 9.23579 53.4964 9.30779C52.8524 9.37579 52.2304 9.54379 51.6204 9.75179C51.5664 9.76979 51.5124 9.78779 51.4584 9.80579C51.4364 9.79979 51.4104 9.79779 51.4004 9.76979C51.4544 9.69179 51.5104 9.61579 51.5804 9.54979C51.5864 9.54579 51.5884 9.53979 51.5924 9.53379L51.6004 9.52379C51.6084 9.51379 51.6164 9.50579 51.6224 9.49579C51.6264 9.47779 51.6364 9.46579 51.6524 9.45979C51.6684 9.45379 51.6784 9.44179 51.6824 9.42379C51.6884 9.41379 51.6964 9.40579 51.7024 9.39579C51.7104 9.39179 51.7164 9.38379 51.7184 9.37579L51.7244 9.36779C51.7324 9.35779 51.7404 9.34779 51.7484 9.33779C51.7604 9.30779 51.7784 9.28379 51.8044 9.26579L51.8104 9.25579C51.8084 9.24779 51.8124 9.24379 51.8204 9.24179C51.8284 9.23379 51.8344 9.22379 51.8424 9.21579C51.8604 9.17379 51.8884 9.13979 51.9244 9.11179C51.9304 9.10779 51.9344 9.10179 51.9364 9.09579L51.9444 9.08579C51.9524 9.07579 51.9604 9.06779 51.9684 9.05779C51.9804 9.02579 52.0004 9.00179 52.0284 8.98179L52.0304 8.97779C52.0304 8.96779 52.0344 8.96179 52.0424 8.95979C52.0524 8.95379 52.0584 8.94579 52.0604 8.93779C52.0804 8.89379 52.1084 8.85779 52.1464 8.82979L52.1544 8.81779C52.1524 8.80979 52.1564 8.80579 52.1644 8.80379C52.1724 8.79579 52.1784 8.78579 52.1864 8.77779C52.2044 8.73579 52.2324 8.70179 52.2684 8.67379C52.2744 8.66979 52.2784 8.66379 52.2804 8.65779L52.2884 8.64779C52.2964 8.63779 52.3044 8.62979 52.3124 8.61979C52.3164 8.60179 52.3244 8.58979 52.3424 8.58379C52.3584 8.57779 52.3684 8.56579 52.3724 8.54779C52.3784 8.53779 52.3844 8.52979 52.3904 8.51979C52.3984 8.51579 52.4044 8.50779 52.4064 8.49979L52.4124 8.49179C52.4204 8.48179 52.4284 8.47179 52.4364 8.46179C52.4464 8.43179 52.4664 8.40979 52.4924 8.39179L52.5004 8.37979C52.4984 8.37179 52.5024 8.36779 52.5104 8.36579C52.5124 8.35579 52.5204 8.34779 52.5264 8.33979Z" fill="#02809F"/>
<path d="M70.9561 7.64804C70.9761 7.70804 70.9441 7.76004 70.9261 7.81404C70.0641 10.298 69.2001 12.782 68.3361 15.266C68.2581 15.492 68.1661 15.712 68.1021 15.944C68.0601 16.094 68.0281 16.248 68.0341 16.406C68.0461 16.692 68.1801 16.912 68.4141 17.07C68.5041 17.13 68.6001 17.18 68.6961 17.238C68.5841 17.272 63.2601 17.284 62.9861 17.254C62.9701 17.182 63.0101 17.122 63.0301 17.06C63.8541 14.694 64.6781 12.33 65.5041 9.96404C65.6041 9.67404 65.7101 9.38604 65.8121 9.09804C65.8661 8.94604 65.8981 8.78804 65.9081 8.62604C65.9261 8.31604 65.8141 8.06804 65.5661 7.88004C65.4741 7.81004 65.3741 7.75804 65.2701 7.70604C65.3241 7.65804 65.3901 7.68004 65.4481 7.68004C66.7401 7.67604 68.0321 7.67404 69.3241 7.67004C69.3801 7.67004 69.4401 7.68804 69.4881 7.64404C69.9801 7.66204 70.4681 7.64804 70.9561 7.64804Z" fill="#02809F"/>
<path d="M18.4023 12.0642C18.4203 12.1582 18.5003 12.2082 18.5563 12.2722C19.1423 12.9442 19.6703 13.6582 20.1043 14.4382C20.5243 15.1922 20.8443 15.9842 21.0083 16.8342C21.2563 18.1182 21.1443 19.3582 20.5243 20.5302C20.4283 20.7142 20.3243 20.8922 20.1743 21.0762C20.1583 20.9302 20.1503 20.8082 20.1323 20.6882C20.0003 19.7702 19.6583 18.9262 19.1943 18.1302C18.5723 17.0622 17.7623 16.1542 16.8323 15.3482C16.7263 15.2562 16.6283 15.1562 16.5103 15.0782C16.4923 15.0462 16.4683 15.0222 16.4323 15.0122C16.3563 14.9062 16.2383 14.8522 16.1463 14.7642L16.1483 14.7662C16.1363 14.7562 16.1243 14.7442 16.1143 14.7342L16.1183 14.7362C16.1063 14.7262 16.0963 14.7182 16.0843 14.7082L16.0823 14.7042C16.0743 14.6982 16.0683 14.6902 16.0603 14.6842C15.9883 14.6262 15.9383 14.5422 15.8443 14.5102C15.8323 14.4482 15.7823 14.4162 15.7423 14.3762C15.5303 14.1542 15.2923 13.9602 15.0623 13.7582C14.7643 13.4982 14.4663 13.2402 14.1743 12.9742C13.8483 12.6762 13.5103 12.3922 13.1943 12.0842C13.2183 12.0582 13.2423 12.0302 13.2683 12.0042C13.9683 11.3042 14.7203 10.6562 15.4243 9.96018C15.5403 9.84418 15.6583 9.72418 15.8003 9.63818C16.0443 9.85618 16.2883 10.0742 16.5323 10.2902C16.7683 10.5002 17.0103 10.7042 17.2423 10.9202C17.4463 11.1122 17.6683 11.2882 17.8503 11.5002C18.0023 11.6762 18.1803 11.8302 18.3243 12.0162C18.3443 12.0362 18.3763 12.0482 18.4023 12.0642Z" fill="#20A849"/>
<path d="M7.94388 12.1122C7.78388 11.9202 7.62388 11.7302 7.46588 11.5362C6.82388 10.7442 6.26588 9.90016 5.85788 8.96416C5.41588 7.95216 5.17988 6.90216 5.24788 5.79416C5.30388 4.88016 5.55588 4.02616 6.06788 3.25816C6.09588 3.21416 6.12788 3.17416 6.15988 3.13216C6.16588 3.12616 6.17788 3.12616 6.19588 3.11816C6.21588 3.26616 6.20988 3.41616 6.22988 3.56216C6.32188 4.23416 6.53988 4.86416 6.83588 5.47016C7.22388 6.26616 7.73388 6.98016 8.32188 7.64016C8.79588 8.17416 9.32188 8.65616 9.86788 9.11416C9.94188 9.19816 10.0199 9.27616 10.1179 9.33416L10.1159 9.33016C10.1359 9.35216 10.1579 9.37416 10.1779 9.39616V9.39816C10.1899 9.40816 10.2019 9.41816 10.2139 9.42816L10.2099 9.42416C10.2219 9.43416 10.2319 9.44616 10.2439 9.45616C10.2519 9.46416 10.2599 9.47016 10.2679 9.47816C10.2759 9.48216 10.2839 9.49016 10.2899 9.49816C10.3059 9.51216 10.3199 9.52416 10.3359 9.53816C10.3999 9.58816 10.4399 9.66616 10.5239 9.69216C10.5719 9.80416 10.6859 9.84816 10.7659 9.93016C11.0599 10.2382 11.3899 10.5102 11.7039 10.7962C12.1839 11.2322 12.6719 11.6582 13.1579 12.0882C13.0959 12.1522 13.0359 12.2162 12.9719 12.2782C12.4539 12.7742 11.9359 13.2702 11.4139 13.7642C11.1419 14.0202 10.8839 14.2922 10.5919 14.5302C10.5339 14.5142 10.4959 14.4682 10.4539 14.4302C10.3219 14.3122 10.1939 14.1902 10.0599 14.0742C9.57188 13.6522 9.07588 13.2402 8.61988 12.7822C8.39588 12.5562 8.16988 12.3362 7.94388 12.1122Z" fill="#F0AD18"/>
<path d="M13.1565 12.088C12.6705 11.658 12.1825 11.232 11.7025 10.796C11.3885 10.51 11.0585 10.238 10.7645 9.92996C10.6865 9.84796 10.5725 9.80396 10.5225 9.69196C10.7925 9.46196 11.0365 9.20796 11.2885 8.95996C11.7905 8.46196 12.2985 7.97396 12.8625 7.54396C12.9605 7.46796 13.0705 7.40596 13.1505 7.30996C13.2205 7.28396 13.2725 7.22996 13.3305 7.18796C14.3125 6.46996 15.3525 5.85596 16.4925 5.41996C17.2445 5.13196 18.0165 4.93196 18.8165 4.84796C20.1105 4.70996 21.3585 4.86996 22.5425 5.43396C22.6785 5.49796 22.8125 5.56796 22.9625 5.66996C22.8405 5.67996 22.7425 5.68996 22.6445 5.69796C21.8125 5.76596 21.0225 5.99996 20.2585 6.32596C19.1245 6.81196 18.1145 7.49396 17.1905 8.30596C16.9125 8.54996 16.6445 8.80396 16.3865 9.06596V9.06796C16.3765 9.06996 16.3705 9.07396 16.3685 9.08596C16.2945 9.13796 16.2285 9.19596 16.1785 9.26996L16.1825 9.26596C16.1525 9.27796 16.1245 9.28796 16.1285 9.32996C16.1065 9.35196 16.0585 9.34596 16.0565 9.39396C16.0365 9.39596 16.0265 9.40596 16.0245 9.42596C15.9845 9.43196 15.9585 9.45396 15.9465 9.49196C15.9385 9.49596 15.9305 9.50196 15.9245 9.50796H15.9225C15.8805 9.54996 15.8385 9.59196 15.7985 9.63396C15.6565 9.72196 15.5405 9.84196 15.4225 9.95596C14.7185 10.652 13.9665 11.3 13.2665 12C13.2405 12.026 13.2165 12.054 13.1925 12.08C13.1825 12.084 13.1705 12.086 13.1565 12.088Z" fill="#D92721"/>
<path d="M7.944 12.1118C8.17 12.3358 8.398 12.5558 8.62 12.7818C9.074 13.2398 9.572 13.6518 10.06 14.0738C10.194 14.1898 10.322 14.3098 10.454 14.4298C10.496 14.4678 10.532 14.5138 10.592 14.5298C10.524 14.5978 10.454 14.6678 10.386 14.7358C10.366 14.7398 10.348 14.7458 10.34 14.7678C10.322 14.7698 10.308 14.7778 10.308 14.7998C10.264 14.7998 10.234 14.8238 10.216 14.8618L10.214 14.8638C10.196 14.8638 10.184 14.8738 10.184 14.8938L10.182 14.8958C10.144 14.8978 10.116 14.9098 10.122 14.9558V14.9538C10.096 14.9518 10.078 14.9538 10.088 14.9878L10.09 14.9858C10.062 14.9798 10.04 14.9798 10.056 15.0198L10.058 15.0178C9.996 14.9958 9.976 15.0338 9.962 15.0818L9.964 15.0798C9.902 15.0698 9.874 15.1238 9.834 15.1518C8.956 15.8238 8.024 16.4058 7.01 16.8498C6.188 17.2098 5.336 17.4718 4.446 17.5918C3.058 17.7778 1.71 17.6438 0.426 17.0498C0.276 16.9798 0.124 16.9138 0 16.7978C0.708 16.7698 1.388 16.6058 2.052 16.3758C3.41 15.9058 4.616 15.1698 5.692 14.2278C6.468 13.5478 7.198 12.8218 7.944 12.1118Z" fill="#D92722"/>
<path d="M15.8442 14.5098C15.9362 14.5418 15.9882 14.6258 16.0602 14.6838C16.0682 14.6898 16.0762 14.6958 16.0822 14.7038L16.0862 14.7078C16.0982 14.7178 16.1082 14.7258 16.1202 14.7358L16.1162 14.7338C16.1282 14.7438 16.1402 14.7558 16.1502 14.7658L16.1482 14.7638C16.2242 14.8638 16.3042 14.9618 16.4022 15.0398C16.6202 15.2978 16.8442 15.5498 17.0582 15.8118C17.7282 16.6358 18.3002 17.5178 18.7102 18.5018C18.9842 19.1578 19.1762 19.8378 19.2362 20.5478C19.3462 21.8338 19.1002 23.0398 18.3802 24.1318C18.3742 24.1398 18.3722 24.1518 18.3682 24.1598C18.3182 24.1898 18.3082 24.1658 18.3082 24.1178C18.3022 23.9198 18.2682 23.7258 18.2282 23.5318C18.0642 22.7298 17.7522 21.9838 17.3422 21.2778C16.7722 20.2978 16.0422 19.4478 15.2022 18.6898C14.5542 18.1038 13.9022 17.5198 13.2522 16.9358C13.2322 16.9178 13.2162 16.8978 13.1982 16.8798C13.2122 16.8658 13.2262 16.8498 13.2422 16.8378C14.1842 16.1438 15.0022 15.3138 15.8442 14.5098Z" fill="#F0AD18"/>
<path d="M15.7998 9.63625C15.8418 9.59425 15.8838 9.55225 15.9238 9.51025H15.9258C15.9318 9.50425 15.9398 9.49825 15.9478 9.49425C15.9798 9.47825 16.0118 9.46225 16.0258 9.42825C16.0438 9.42625 16.0558 9.41625 16.0578 9.39625C16.1018 9.39625 16.1258 9.36825 16.1438 9.33225C16.1598 9.31225 16.1978 9.30625 16.1838 9.26825L16.1798 9.27225C16.2978 9.24625 16.3658 9.15025 16.4518 9.08025C16.7998 8.83425 17.1398 8.57825 17.4998 8.34625C18.4918 7.70625 19.5398 7.18625 20.6778 6.85625C21.6158 6.58425 22.5718 6.46425 23.5458 6.52625C24.4758 6.58425 25.3578 6.82625 26.1818 7.27025C26.2358 7.30025 26.2938 7.32425 26.3518 7.38425C26.2178 7.39425 26.0978 7.40225 25.9798 7.41225C25.1898 7.48625 24.4398 7.70425 23.7118 8.01025C22.4858 8.52625 21.4018 9.26425 20.4258 10.1622C19.7858 10.7502 19.1618 11.3542 18.5298 11.9502C18.4878 11.9902 18.4438 12.0242 18.3998 12.0622C18.3738 12.0462 18.3398 12.0342 18.3238 12.0122C18.1798 11.8262 18.0038 11.6722 17.8498 11.4962C17.6658 11.2842 17.4458 11.1082 17.2418 10.9162C17.0098 10.7002 16.7678 10.4962 16.5318 10.2862C16.2878 10.0722 16.0438 9.85425 15.7998 9.63625Z" fill="#2A256F"/>
<path d="M13.1519 7.31C13.0699 7.406 12.9619 7.47 12.8639 7.544C12.3019 7.974 11.7919 8.464 11.2899 8.96C11.0399 9.208 10.7939 9.462 10.5239 9.692C10.4399 9.666 10.3999 9.586 10.3379 9.538C10.3219 9.524 10.3079 9.512 10.2919 9.498C10.2859 9.49 10.2799 9.484 10.2699 9.478C10.2619 9.47 10.2539 9.464 10.2459 9.456C10.2339 9.446 10.2239 9.434 10.2119 9.424L10.2159 9.428C10.2119 9.41 10.2019 9.398 10.1799 9.398V9.396C10.1599 9.374 10.1379 9.352 10.1179 9.33L10.1199 9.334C10.0719 9.228 9.98388 9.158 9.90188 9.082C9.66788 8.796 9.41988 8.524 9.19188 8.232C8.54588 7.404 7.99188 6.522 7.60388 5.542C7.23988 4.616 7.05188 3.658 7.12188 2.66C7.18388 1.78 7.42388 0.954 7.89788 0.204C7.93788 0.14 7.97788 0.072 8.05388 0C8.05788 0.204 8.07588 0.38 8.10588 0.558C8.22588 1.284 8.48388 1.96 8.82788 2.606C9.31388 3.518 9.94588 4.32 10.6719 5.052C11.1799 5.566 11.7359 6.032 12.2699 6.518C12.5599 6.784 12.8559 7.046 13.1519 7.31Z" fill="#20A849"/>
<path d="M69.4943 7.64579C69.4443 7.68779 69.3843 7.67179 69.3303 7.67179C68.0383 7.67579 66.7463 7.67779 65.4543 7.68179C65.3943 7.68179 65.3303 7.65979 65.2763 7.70779C65.2583 7.70979 65.2403 7.71179 65.2223 7.71379C65.1663 7.65779 65.0943 7.68379 65.0303 7.68379C62.6623 7.68179 60.2923 7.68179 57.9243 7.68179C56.5023 7.68179 55.0823 7.68179 53.6603 7.67979C53.5743 7.67979 53.4823 7.69979 53.4023 7.64779C53.5063 7.64779 53.6103 7.64979 53.7143 7.64979C57.6843 7.64979 61.6563 7.64979 65.6263 7.64979C66.8603 7.64979 68.0923 7.64379 69.3263 7.64179C69.3803 7.63779 69.4363 7.64179 69.4943 7.64579Z" fill="#6E98B1"/>
<path d="M70.9562 7.64807C70.4682 7.64807 69.9802 7.66007 69.4922 7.64407C69.5202 7.62607 69.5502 7.62807 69.5822 7.62607C70.0062 7.62407 70.4322 7.62407 70.8562 7.62207C70.8922 7.62407 70.9302 7.61407 70.9562 7.64807Z" fill="#6E98B1"/>
<path d="M53.3715 7.64416C53.2695 7.66016 53.1655 7.62816 53.0615 7.65016C53.1635 7.57216 53.2675 7.62016 53.3715 7.64416Z" fill="#6E98B1"/>
<path d="M51.3997 9.76807C51.4097 9.79607 51.4357 9.79807 51.4577 9.80407C51.4277 9.83407 51.3937 9.84607 51.3517 9.83807C51.3497 9.80007 51.3717 9.78207 51.3997 9.76807Z" fill="#6E98B1"/>
<path d="M58.7744 17.2578C58.7764 17.2378 58.7784 17.2178 58.7804 17.1958C58.8064 17.1998 58.8324 17.2118 58.8304 17.2378C58.8264 17.2698 58.7964 17.2638 58.7744 17.2578Z" fill="#1487A4"/>
<path d="M52.3082 8.61816C52.3002 8.62816 52.2922 8.63616 52.2842 8.64616C52.2842 8.63216 52.2922 8.62216 52.3082 8.61816Z" fill="#1487A4"/>
<path d="M52.2776 8.65625C52.2756 8.66225 52.2716 8.66825 52.2656 8.67225V8.66025L52.2776 8.65625Z" fill="#1487A4"/>
<path d="M52.1822 8.77588C52.1742 8.78388 52.1682 8.79388 52.1602 8.80188C52.1622 8.78788 52.1702 8.77988 52.1822 8.77588Z" fill="#1487A4"/>
<path d="M52.1516 8.81592L52.1436 8.82792L52.1416 8.81792L52.1516 8.81592Z" fill="#1487A4"/>
<path d="M52.058 8.93604C52.054 8.94604 52.048 8.95404 52.04 8.95804C52.046 8.95004 52.052 8.94404 52.058 8.93604Z" fill="#1487A4"/>
<path d="M52.0256 8.97607L52.0236 8.98007L52.0176 8.97807L52.0256 8.97607Z" fill="#1487A4"/>
<path d="M51.9644 9.05615C51.9564 9.06615 51.9484 9.07415 51.9404 9.08415C51.9404 9.06815 51.9504 9.06015 51.9644 9.05615Z" fill="#1487A4"/>
<path d="M51.9339 9.09424C51.9319 9.10024 51.9279 9.10624 51.9219 9.11024V9.09824L51.9339 9.09424Z" fill="#1487A4"/>
<path d="M51.8384 9.21387C51.8304 9.22187 51.8244 9.23187 51.8164 9.23987C51.8184 9.22587 51.8264 9.21787 51.8384 9.21387Z" fill="#1487A4"/>
<path d="M51.8078 9.25391L51.8018 9.26391L51.7998 9.25591L51.8078 9.25391Z" fill="#1487A4"/>
<path d="M51.7437 9.33594C51.7357 9.34594 51.7277 9.35594 51.7197 9.36594C51.7197 9.34794 51.7297 9.33794 51.7437 9.33594Z" fill="#1487A4"/>
<path d="M51.7142 9.37207C51.7122 9.38007 51.7062 9.38807 51.6982 9.39207C51.6982 9.38007 51.7042 9.37407 51.7142 9.37207Z" fill="#1487A4"/>
<path d="M53.0544 7.66992C53.0524 7.68792 53.0424 7.69992 53.0244 7.70592C53.0264 7.68992 53.0364 7.67592 53.0544 7.66992Z" fill="#1487A4"/>
<path d="M52.9937 7.74414C52.9857 7.75414 52.9777 7.76214 52.9697 7.77214C52.9717 7.75614 52.9797 7.74814 52.9937 7.74414Z" fill="#1487A4"/>
<path d="M51.6804 9.41992C51.6784 9.43792 51.6684 9.44992 51.6504 9.45592C51.6524 9.43792 51.6624 9.42592 51.6804 9.41992Z" fill="#1487A4"/>
<path d="M52.9642 7.78223C52.9622 7.79023 52.9582 7.79623 52.9502 7.80023C52.9502 7.78823 52.9542 7.78223 52.9642 7.78223Z" fill="#1487A4"/>
<path d="M51.6197 9.49414C51.6117 9.50414 51.6037 9.51214 51.5977 9.52214C51.5977 9.50614 51.6057 9.49614 51.6197 9.49414Z" fill="#1487A4"/>
<path d="M51.5901 9.53223C51.5881 9.53823 51.5841 9.54423 51.5781 9.54823V9.53623L51.5901 9.53223Z" fill="#1487A4"/>
<path d="M52.8697 7.90186C52.8617 7.90986 52.8557 7.91985 52.8477 7.92785C52.8477 7.91385 52.8557 7.90586 52.8697 7.90186Z" fill="#1487A4"/>
<path d="M52.8401 7.93994L52.8321 7.95394L52.8301 7.94394L52.8401 7.93994Z" fill="#1487A4"/>
<path d="M55.1479 11.23C55.1419 11.242 55.1359 11.254 55.1299 11.266C55.1259 11.25 55.1339 11.238 55.1479 11.23Z" fill="#1487A4"/>
<path d="M55.1157 11.3218C55.1097 11.3338 55.1037 11.3458 55.0977 11.3598C55.0937 11.3418 55.1017 11.3318 55.1157 11.3218Z" fill="#1487A4"/>
<path d="M54.9301 11.856C54.9241 11.868 54.9201 11.878 54.9141 11.89C54.9101 11.874 54.9181 11.864 54.9301 11.856Z" fill="#1487A4"/>
<path d="M52.776 8.02393C52.768 8.03393 52.76 8.04393 52.752 8.05393C52.752 8.03593 52.76 8.02793 52.776 8.02393Z" fill="#1487A4"/>
<path d="M52.7459 8.06006C52.7439 8.07006 52.7379 8.07606 52.7299 8.08006C52.7279 8.07006 52.7339 8.06206 52.7459 8.06006Z" fill="#1487A4"/>
<path d="M52.7097 8.10791C52.7077 8.12591 52.6977 8.13791 52.6797 8.14391C52.6817 8.12591 52.6917 8.11391 52.7097 8.10791Z" fill="#1487A4"/>
<path d="M54.6801 12.5742C54.6741 12.5862 54.6701 12.5962 54.6641 12.6082C54.6601 12.5922 54.6681 12.5822 54.6801 12.5742Z" fill="#1487A4"/>
<path d="M54.3078 13.644C54.3078 13.652 54.3058 13.658 54.3018 13.666L54.2998 13.654L54.3078 13.644Z" fill="#1487A4"/>
<path d="M54.1479 14.104C54.1419 14.116 54.1379 14.126 54.1319 14.138C54.1279 14.122 54.1359 14.112 54.1479 14.104Z" fill="#1487A4"/>
<path d="M52.6519 8.18213C52.6439 8.19213 52.6359 8.20013 52.6279 8.21013C52.6279 8.19413 52.6359 8.18413 52.6519 8.18213Z" fill="#1487A4"/>
<path d="M52.6204 8.22021C52.6184 8.22821 52.6144 8.23222 52.6084 8.23622L52.6104 8.22421L52.6204 8.22021Z" fill="#1487A4"/>
<path d="M52.5259 8.33984C52.5179 8.34784 52.5119 8.35784 52.5039 8.36584C52.5039 8.34984 52.5119 8.34184 52.5259 8.33984Z" fill="#1487A4"/>
<path d="M52.4963 8.37793L52.4883 8.38993L52.4863 8.38193L52.4963 8.37793Z" fill="#1487A4"/>
<path d="M52.4322 8.45996C52.4242 8.46996 52.4162 8.47996 52.4082 8.48996C52.4082 8.47396 52.4162 8.46396 52.4322 8.45996Z" fill="#1487A4"/>
<path d="M53.8657 14.9141C53.8597 14.9261 53.8537 14.9381 53.8497 14.9501C53.8457 14.9341 53.8537 14.9241 53.8657 14.9141Z" fill="#1487A4"/>
<path d="M52.4021 8.49805C52.4001 8.50805 52.3941 8.51405 52.3861 8.51805C52.3841 8.50605 52.3901 8.50005 52.4021 8.49805Z" fill="#1487A4"/>
<path d="M53.8345 15.0078C53.8285 15.0198 53.8225 15.0318 53.8165 15.0458C53.8125 15.0278 53.8205 15.0158 53.8345 15.0078Z" fill="#1487A4"/>
<path d="M53.6479 15.54C53.6419 15.552 53.6379 15.562 53.6319 15.574C53.6279 15.56 53.6359 15.548 53.6479 15.54Z" fill="#1487A4"/>
<path d="M53.3979 16.2598C53.3919 16.2718 53.3879 16.2818 53.3819 16.2938C53.3779 16.2778 53.3859 16.2658 53.3979 16.2598Z" fill="#1487A4"/>
<path d="M53.1479 16.978C53.1439 16.99 53.1379 17 53.1319 17.012C53.1279 16.996 53.1359 16.986 53.1479 16.978Z" fill="#1487A4"/>
<path d="M58.6703 17.1101C58.6643 17.1101 58.6583 17.1101 58.6523 17.1081L58.6643 17.1001L58.6703 17.1101Z" fill="#1487A4"/>
<path d="M58.7057 17.1382C58.6977 17.1302 58.6877 17.1242 58.6797 17.1162C58.6937 17.1182 58.7017 17.1242 58.7057 17.1382Z" fill="#1487A4"/>
<path d="M58.7801 17.196C58.7621 17.194 58.7521 17.184 58.7461 17.168C58.7621 17.17 58.7741 17.18 58.7801 17.196Z" fill="#1487A4"/>
<path d="M52.3659 8.5459C52.3639 8.5639 52.3539 8.5759 52.3359 8.5819C52.3379 8.5639 52.3479 8.5519 52.3659 8.5459Z" fill="#1487A4"/>
<path d="M53.0601 17.2319C53.0681 17.2399 53.0781 17.2499 53.0861 17.2579C53.0661 17.2599 53.0541 17.2559 53.0601 17.2319Z" fill="#1487A4"/>
<path d="M15.8444 14.5101C15.0024 15.3141 14.1844 16.1441 13.2444 16.8381C13.2284 16.8501 13.2144 16.8661 13.2004 16.8801C13.1344 16.9021 13.0864 16.9521 13.0324 16.9921C11.9724 17.7761 10.8444 18.4321 9.59444 18.8681C8.62844 19.2061 7.63644 19.3961 6.61044 19.3761C5.64444 19.3561 4.70844 19.1781 3.82844 18.7621C3.68844 18.6961 3.55044 18.6241 3.39844 18.5181C3.50244 18.5061 3.58044 18.4961 3.65844 18.4881C4.39444 18.4201 5.09844 18.2261 5.78644 17.9601C7.09844 17.4521 8.25444 16.6941 9.29444 15.7561C9.50644 15.5641 9.71244 15.3641 9.91844 15.1661C9.94244 15.1441 9.99644 15.1261 9.96444 15.0741L9.96244 15.0761C10.0244 15.0981 10.0404 15.0541 10.0584 15.0121L10.0564 15.0141C10.0804 15.0141 10.0944 15.0061 10.0904 14.9801L10.0884 14.9821C10.1144 14.9841 10.1244 14.9741 10.1224 14.9481V14.9501C10.1684 14.9561 10.1904 14.9381 10.1824 14.8901L10.1844 14.8881C10.2124 14.8961 10.2224 14.8861 10.2144 14.8581L10.2164 14.8561C10.2724 14.8701 10.2904 14.8321 10.3084 14.7941C10.3264 14.7921 10.3384 14.7821 10.3404 14.7621C10.3564 14.7521 10.3704 14.7401 10.3864 14.7301C10.4544 14.6621 10.5244 14.5921 10.5924 14.5241C10.8824 14.2881 11.1424 14.0161 11.4144 13.7581C11.9364 13.2661 12.4544 12.7681 12.9724 12.2721C13.0364 12.2121 13.0964 12.1461 13.1584 12.0821C13.1704 12.0801 13.1844 12.0781 13.1964 12.0781C13.5124 12.3881 13.8504 12.6701 14.1764 12.9681C14.4684 13.2341 14.7664 13.4921 15.0644 13.7521C15.2944 13.9541 15.5324 14.1481 15.7444 14.3701C15.7824 14.4161 15.8324 14.4481 15.8444 14.5101Z" fill="#2A256F"/>
<path d="M16.1199 14.736C16.1079 14.726 16.0979 14.718 16.0859 14.708C16.0959 14.716 16.1079 14.726 16.1199 14.736Z" fill="#FBFCFD"/>
<path d="M10.29 9.49805C10.306 9.51205 10.32 9.52605 10.336 9.53805C10.32 9.52405 10.306 9.51005 10.29 9.49805Z" fill="#FBFCFD"/>
<path d="M10.2119 9.42383C10.2239 9.43383 10.2339 9.44583 10.2459 9.45583C10.2339 9.44383 10.2219 9.43383 10.2119 9.42383Z" fill="#FBFCFD"/>
</svg>
