<svg width="36" height="36" viewBox="0 0 36 36" fill="none" xmlns="http://www.w3.org/2000/svg">
<circle cx="18" cy="18" r="18" fill="white"/>
<path d="M27.8055 16.0415H27V16L18 16V20H23.6515C22.827 22.3285 20.6115 24 18 24C14.6865 24 12 21.3135 12 18C12 14.6865 14.6865 12 18 12C19.5295 12 20.921 12.577 21.9805 13.5195L24.809 10.691C23.023 9.0265 20.634 8 18 8C12.4775 8 8 12.4775 8 18C8 23.5225 12.4775 28 18 28C23.5225 28 28 23.5225 28 18C28 17.3295 27.931 16.675 27.8055 16.0415Z" fill="#FFC107"/>
<path d="M9.15332 13.3455L12.4388 15.755C13.3278 13.554 15.4808 12 18.0003 12C19.5298 12 20.9213 12.577 21.9808 13.5195L24.8093 10.691C23.0233 9.0265 20.6343 8 18.0003 8C14.1593 8 10.8283 10.1685 9.15332 13.3455Z" fill="#FF3D00"/>
<path d="M18.0002 27.9999C20.5832 27.9999 22.9302 27.0114 24.7047 25.4039L21.6097 22.7849C20.5719 23.574 19.3039 24.0009 18.0002 23.9999C15.3992 23.9999 13.1907 22.3414 12.3587 20.0269L9.09766 22.5394C10.7527 25.7779 14.1137 27.9999 18.0002 27.9999Z" fill="#4CAF50"/>
<path d="M27.8055 16.0415H27V16L18 16V20H23.6515C23.2571 21.1082 22.5467 22.0766 21.608 22.7855L21.6095 22.7845L24.7045 25.4035C24.4855 25.6025 28 23 28 18C28 17.3295 27.931 16.675 27.8055 16.0415Z" fill="#1976D2"/>
</svg>
