<svg width="21" height="21" viewBox="0 0 21 21" fill="none" xmlns="http://www.w3.org/2000/svg">
<path d="M3.9128 9.03835L3.91308 9.03876L7.65257 14.7148C7.65265 14.7149 7.65274 14.715 7.65282 14.7152C8.2649 15.6401 8.84067 16.2621 9.34501 16.6207C9.85122 16.9807 10.2273 17.0379 10.489 16.9678C10.7505 16.8977 11.0471 16.6604 11.3047 16.096C11.5613 15.5336 11.7478 14.7075 11.8137 13.6009C11.8137 13.6008 11.8137 13.6006 11.8137 13.6005L11.9323 11.5868L11.9471 11.336L12.1569 11.1979L13.8415 10.0883L3.9128 9.03835ZM3.9128 9.03835C3.11736 7.8336 3.08698 6.93356 3.39745 6.39668C3.70831 5.85912 4.50543 5.43517 5.94573 5.5183C5.9459 5.51831 5.94607 5.51832 5.94624 5.51833L12.7262 5.92754L12.7266 5.92757M3.9128 9.03835L12.7266 5.92757M12.7266 5.92757C13.8333 5.99345 14.6595 6.18032 15.2221 6.43743M12.7266 5.92757L15.2221 6.43743M15.2221 6.43743C15.7865 6.69541 16.0243 6.99264 16.0946 7.25485M15.2221 6.43743L16.0946 7.25485M16.0946 7.25485C16.1648 7.51705 16.1075 7.89337 15.7477 8.399M16.0946 7.25485L15.7477 8.399M15.7477 8.399C15.3891 8.90288 14.7671 9.47777 13.8418 10.0881L15.7477 8.399ZM10.7376 9.58086L10.7364 9.5802L7.39875 7.66485C7.39862 7.66478 7.39849 7.6647 7.39836 7.66463C6.90502 7.38008 6.26761 7.55098 5.98282 8.04425C5.69796 8.53764 5.86882 9.17532 6.36222 9.46018L6.36336 9.46084L9.70105 11.3762C9.70133 11.3764 9.70161 11.3765 9.7019 11.3767C10.1952 11.6609 10.8323 11.4899 11.117 10.9968L10.6831 10.7463L11.117 10.9968C11.2627 10.7444 11.2885 10.4627 11.2209 10.2102C11.1532 9.95762 10.99 9.72658 10.7376 9.58086Z" fill="white" stroke="white"/>
</svg>
