<svg width="34" height="34" viewBox="0 0 34 34" fill="none" xmlns="http://www.w3.org/2000/svg">
<ellipse cx="17" cy="16.659" rx="17" ry="16.659" fill="white"/>
<path d="M23.4648 14.0497C22.6773 10.6542 19.6548 9.12549 16.9998 9.12549C16.9998 9.12549 16.9998 9.12549 16.9923 9.12549C14.3448 9.12549 11.3148 10.6468 10.5273 14.0424C9.64983 17.8347 12.0198 21.0465 14.1648 23.0676C14.9598 23.8173 15.9798 24.1921 16.9998 24.1921C18.0198 24.1921 19.0398 23.8173 19.8273 23.0676C21.9723 21.0465 24.3423 17.8421 23.4648 14.0497ZM16.9998 17.7318C15.6948 17.7318 14.6373 16.6955 14.6373 15.4167C14.6373 14.1379 15.6948 13.1016 16.9998 13.1016C18.3048 13.1016 19.3623 14.1379 19.3623 15.4167C19.3623 16.6955 18.3048 17.7318 16.9998 17.7318Z" fill="#663BA5"/>
</svg>
