<svg width="22" height="22" viewBox="0 0 22 22" fill="none" xmlns="http://www.w3.org/2000/svg">
<path d="M19.167 10.193C19.167 14.6754 15.9129 18.8738 11.467 20.1021C11.1645 20.1846 10.8345 20.1846 10.532 20.1021C6.08619 18.8738 2.83203 14.6754 2.83203 10.193V6.16877C2.83203 5.4171 3.40038 4.56461 4.10621 4.28044L9.21202 2.19047C10.3579 1.72297 11.6504 1.72297 12.7962 2.19047L17.902 4.28044C18.5987 4.56461 19.1762 5.4171 19.1762 6.16877L19.167 10.193Z" stroke="black" stroke-width="1.5" stroke-linecap="round" stroke-linejoin="round"/>
<path d="M11.0003 11.4587C12.0128 11.4587 12.8337 10.6378 12.8337 9.62533C12.8337 8.6128 12.0128 7.79199 11.0003 7.79199C9.9878 7.79199 9.16699 8.6128 9.16699 9.62533C9.16699 10.6378 9.9878 11.4587 11.0003 11.4587Z" stroke="black" stroke-width="1.5" stroke-miterlimit="10" stroke-linecap="round" stroke-linejoin="round"/>
<path d="M11 11.459V14.209" stroke="black" stroke-width="1.5" stroke-miterlimit="10" stroke-linecap="round" stroke-linejoin="round"/>
</svg>
