<svg width="24" height="24" viewBox="0 0 24 24" fill="none" xmlns="http://www.w3.org/2000/svg">
<path d="M16.539 9.18567C16.0742 9.01628 15.5828 8.93128 15.088 8.93467C13.488 8.93467 12.358 9.74067 12.35 10.8977C12.34 11.7477 13.153 12.2267 13.768 12.5107C14.399 12.8027 14.61 12.9867 14.608 13.2477C14.604 13.6447 14.104 13.8247 13.639 13.8247C13 13.8247 12.651 13.7357 12.114 13.5127L11.915 13.4197L11.688 14.7517C12.077 14.9137 12.778 15.0527 13.502 15.0647C15.203 15.0647 16.315 14.2637 16.328 13.0327C16.342 12.3537 15.902 11.8407 14.976 11.4167C14.413 11.1417 14.064 10.9577 14.064 10.6787C14.064 10.4317 14.363 10.1677 14.988 10.1677C15.404 10.1576 15.8174 10.2356 16.201 10.3967L16.351 10.4637L16.578 9.17667L16.539 9.18567ZM20.691 9.04267H19.441C19.052 9.04267 18.759 9.14967 18.589 9.53567L16.185 14.9817H17.886L18.226 14.0887L20.302 14.0907C20.351 14.2997 20.501 14.9817 20.501 14.9817H22.001L20.691 9.04267ZM10.049 8.99267H11.67L10.656 14.9347L9.03705 14.9347L10.049 8.99067V8.99267ZM5.93405 12.2677L6.10205 13.0927L7.68605 9.04267H9.40305L6.85205 14.9737H5.13905L3.73905 9.95167C3.71637 9.86886 3.66312 9.79774 3.59005 9.75267C3.08545 9.49201 2.55079 9.2942 1.99805 9.16367L2.02005 9.03867H4.62905C4.98305 9.05267 5.26805 9.16367 5.36305 9.54167L5.93305 12.2707V12.2677H5.93405ZM18.691 12.8737L19.337 11.2117C19.329 11.2297 19.47 10.8687 19.552 10.6457L19.663 11.1587L20.038 12.8727H18.69V12.8737H18.691Z" fill="#1A2ADF"/>
</svg>
