<svg width="78" height="21" viewBox="0 0 78 21" fill="none" xmlns="http://www.w3.org/2000/svg">
<path d="M18.8153 5.25293L18.8122 5.24674C18.7906 5.20958 18.7689 5.17551 18.7441 5.14145C18.7379 5.13216 18.7317 5.12287 18.7255 5.11667C18.7069 5.0919 18.6853 5.06713 18.6636 5.04235C18.6512 5.02996 18.6388 5.01448 18.6264 5.00209C18.6078 4.98351 18.5924 4.96803 18.5738 4.94945C18.5242 4.903 18.4685 4.85964 18.4127 4.81938C18.3973 4.81009 18.3818 4.7977 18.3663 4.78841C18.3446 4.77603 18.3229 4.76054 18.2982 4.74816C18.2579 4.72648 18.2176 4.7048 18.1774 4.68932C18.1619 4.68312 18.1433 4.67383 18.1278 4.66764C18.1031 4.65835 18.0752 4.64906 18.0473 4.63977C18.0318 4.63357 18.0164 4.63048 18.0009 4.62428C17.9699 4.61499 17.9389 4.6088 17.908 4.59951C17.8956 4.59641 17.8863 4.59332 17.8739 4.59332C17.8336 4.58712 17.7965 4.58093 17.7562 4.57474C17.7531 4.57474 17.7469 4.57474 17.7438 4.57474C17.4527 4.54377 17.1585 4.6057 16.9015 4.74816L9.50018 8.91953L4.21086 5.93732L9.50637 2.95202L13.0367 4.94016C13.7087 5.31797 14.5665 5.095 14.9536 4.43848C15.3407 3.78196 15.1116 2.94582 14.4396 2.56801L10.2093 0.183485C9.7727 -0.0611616 9.24315 -0.0611616 8.8065 0.183485L0.73626 4.73267C0.510195 4.85035 0.318194 5.02996 0.188128 5.25293C-0.198971 5.90945 0.0301919 6.74559 0.702196 7.12339L8.80031 11.6881C8.80031 11.6881 8.8034 11.6881 8.8034 11.6912C8.84676 11.7159 8.89011 11.7345 8.93347 11.7531C8.94586 11.7593 8.95824 11.7655 8.97063 11.7717C8.9985 11.781 9.02637 11.7903 9.05115 11.7996C9.1967 11.8491 9.34844 11.8739 9.49708 11.8739H9.50018C9.65192 11.8739 9.80676 11.846 9.95541 11.7965C9.98018 11.7872 10.005 11.781 10.0266 11.7717C10.0421 11.7655 10.0545 11.7593 10.0669 11.7531C10.1102 11.7345 10.1536 11.7159 10.1939 11.6912H10.197L16.1923 8.30947V14.277L9.50328 18.052L2.80801 14.277V10.502C2.80801 9.74638 2.17937 9.13321 1.40517 9.13321C0.63097 9.13321 0.00232078 9.74638 0.00232078 10.502V15.0667C0.00232078 15.556 0.268645 16.0081 0.702196 16.2527L8.80031 20.8174C9.01399 20.9382 9.25553 21.0001 9.50018 21.0001C9.74173 21.0001 9.98328 20.9382 10.2032 20.8174L18.3013 16.2527C18.7348 16.0081 19.0011 15.556 19.0011 15.0667V5.93732C19.0042 5.68648 18.933 5.45422 18.8153 5.25293Z" fill="#2470AF"/>
<path d="M26.2784 12.9174C26.746 13.2209 27.2229 13.4439 27.7029 13.5894C28.186 13.735 28.6599 13.8093 29.1306 13.8093C29.5982 13.8093 29.976 13.7009 30.264 13.4873C30.552 13.2736 30.6944 12.9949 30.6944 12.6542C30.6944 12.3724 30.5799 12.1494 30.3507 11.9884C30.1215 11.8274 29.8335 11.6849 29.4867 11.558C29.1151 11.4217 28.7435 11.2947 28.3688 11.1709C27.9755 11.0408 27.6008 10.8643 27.2508 10.6444C26.904 10.4245 26.616 10.1334 26.3868 9.7742C26.1576 9.41497 26.0431 8.94116 26.0431 8.35587C26.0431 7.90684 26.136 7.49806 26.3218 7.12645C26.5076 6.75483 26.7646 6.43586 27.096 6.16954C27.4273 5.90012 27.8237 5.69573 28.2882 5.54708C28.7528 5.40153 29.2606 5.32721 29.8181 5.32721C30.2857 5.32721 30.7502 5.37056 31.2147 5.46037C31.6792 5.54708 32.1437 5.68334 32.6114 5.86915V8.00593C32.1716 7.752 31.735 7.56619 31.2952 7.44232C30.8555 7.32154 30.4219 7.25961 29.9946 7.25961C29.5455 7.25961 29.1832 7.35561 28.9045 7.55071C28.6258 7.7458 28.4864 8.00284 28.4864 8.3249C28.4864 8.59742 28.601 8.8111 28.8302 8.96904C29.0593 9.12388 29.3442 9.26323 29.6849 9.3871C30.0565 9.52027 30.4281 9.64723 30.8028 9.76801C31.2085 9.90117 31.5801 10.0777 31.9208 10.3007C32.2614 10.5236 32.5463 10.8209 32.7755 11.1863C33.0047 11.5518 33.1192 12.0318 33.1192 12.6263C33.1192 13.0847 33.0232 13.5058 32.8343 13.8929C32.6454 14.2769 32.376 14.6114 32.0447 14.8808C31.7071 15.1533 31.3045 15.367 30.8369 15.5157C30.3693 15.6674 29.8583 15.7417 29.3009 15.7417C28.2759 15.7417 27.2663 15.5218 26.2722 15.0821L26.2784 12.9174ZM33.8346 5.0454H36.2191V8.76155C36.854 8.30323 37.5198 8.07406 38.2228 8.07406C38.6037 8.07406 38.9536 8.1391 39.2757 8.27226C39.5977 8.40542 39.8764 8.58813 40.1087 8.82658C40.3441 9.06504 40.5268 9.34994 40.6568 9.6813C40.79 10.0127 40.855 10.375 40.855 10.7652V15.5621H38.4705V11.2049C38.4705 10.9014 38.3745 10.6537 38.1856 10.4586C37.9967 10.2635 37.7551 10.1675 37.4609 10.1675C37.0212 10.1675 36.6093 10.3626 36.2191 10.7528V15.5652H33.8346V5.0454ZM41.8305 8.25058H44.215V15.5652H41.8305V8.25058ZM41.7128 6.3058C41.7128 5.9156 41.8336 5.60282 42.0783 5.36127C42.3229 5.12282 42.6388 5.00205 43.029 5.00205C43.4006 5.00205 43.7103 5.12282 43.958 5.36127C44.2058 5.59973 44.3296 5.9156 44.3296 6.3058C44.3296 6.67741 44.2058 6.98399 43.958 7.22864C43.7103 7.47329 43.4006 7.59406 43.029 7.59406C42.6388 7.59406 42.3229 7.47329 42.0783 7.22864C41.8336 6.98399 41.7128 6.67431 41.7128 6.3058ZM50.2352 11.9079C50.2352 11.3721 50.102 10.9417 49.8326 10.6134C49.5632 10.2852 49.2164 10.1241 48.7859 10.1241C48.3555 10.1241 47.9714 10.2945 47.6308 10.6351V13.1807C47.9714 13.5213 48.3586 13.6916 48.7859 13.6916C49.2164 13.6916 49.5632 13.5244 49.8326 13.1931C50.0989 12.8617 50.2352 12.4343 50.2352 11.9079ZM45.2463 8.25058H47.6308V8.64697C48.1851 8.26607 48.758 8.07716 49.3433 8.07716C49.8295 8.07716 50.2786 8.17316 50.6904 8.36207C51.0992 8.55097 51.4522 8.8142 51.7433 9.15175C52.0344 9.4893 52.2636 9.89188 52.4246 10.3595C52.5857 10.8271 52.6662 11.3443 52.6662 11.911C52.6662 12.4777 52.5857 12.9949 52.4246 13.4625C52.2636 13.9301 52.0375 14.3327 51.7433 14.6702C51.4491 15.0078 51.0992 15.271 50.6904 15.4599C50.2817 15.6488 49.8326 15.7448 49.3433 15.7448C48.758 15.7448 48.1882 15.5559 47.6308 15.175V18.7673H45.2463V8.25058ZM55.8435 13.6916H57.4074C57.779 13.6916 58.0825 13.5833 58.3209 13.3634C58.5594 13.1435 58.6802 12.8648 58.6802 12.5211C58.6802 12.1773 58.5594 11.8986 58.3209 11.6787C58.0825 11.4589 57.7759 11.3505 57.4074 11.3505H55.8435V13.6916ZM55.8435 9.53575H57.203C57.5436 9.53575 57.8285 9.43356 58.0515 9.22917C58.2745 9.02478 58.3891 8.76465 58.3891 8.45497C58.3891 8.1329 58.2776 7.87277 58.0515 7.67148C57.8285 7.47019 57.5436 7.37109 57.203 7.37109H55.8435V9.53575ZM53.5178 5.50063H57.6582C58.1072 5.50063 58.516 5.56876 58.8876 5.70502C59.2593 5.84128 59.5813 6.03018 59.8538 6.27483C60.1264 6.51947 60.34 6.80748 60.4887 7.13883C60.6404 7.47019 60.7147 7.83251 60.7147 8.22271C60.7147 8.72129 60.5971 9.16413 60.3648 9.55433C60.1295 9.94453 59.8105 10.2325 59.3986 10.4183C59.9251 10.6134 60.3307 10.9169 60.6187 11.3319C60.9068 11.7469 61.0492 12.2207 61.0492 12.7564C61.0492 13.1652 60.9718 13.543 60.8138 13.8898C60.659 14.2367 60.4422 14.534 60.1635 14.7817C59.8848 15.0295 59.5535 15.2215 59.1694 15.3608C58.7854 15.4971 58.3612 15.5652 57.9029 15.5652H53.5147L53.5178 5.50063ZM61.3372 11.9079C61.3372 11.3412 61.4332 10.824 61.6283 10.3564C61.8234 9.88878 62.0959 9.4862 62.4459 9.14865C62.7958 8.8111 63.2139 8.54787 63.697 8.35897C64.1801 8.17006 64.7096 8.07406 65.2825 8.07406C65.8585 8.07406 66.3881 8.17006 66.8681 8.35897C67.3512 8.54787 67.7661 8.8111 68.1099 9.14865C68.4567 9.4862 68.7262 9.88878 68.9213 10.3564C69.1163 10.824 69.2123 11.3412 69.2123 11.9079C69.2123 12.4622 69.1133 12.9794 68.9213 13.4501C68.7262 13.9239 68.4567 14.3265 68.1099 14.664C67.763 15.0016 67.3481 15.2648 66.8681 15.4537C66.385 15.6426 65.8554 15.7386 65.2825 15.7386C64.7065 15.7386 64.177 15.6426 63.697 15.4537C63.2139 15.2648 62.7989 15.0016 62.4459 14.664C62.0959 14.3265 61.8203 13.9239 61.6283 13.4501C61.4363 12.9763 61.3372 12.4622 61.3372 11.9079ZM63.7806 11.9079C63.7806 12.4622 63.9199 12.9113 64.1986 13.2457C64.4774 13.5833 64.8397 13.7505 65.2887 13.7505C65.7285 13.7505 66.0877 13.5833 66.3726 13.2457C66.6544 12.9082 66.7968 12.4622 66.7968 11.9079C66.7968 11.3536 66.6544 10.9045 66.3726 10.5701C66.0908 10.2325 65.7285 10.0653 65.2887 10.0653C64.8397 10.0653 64.4774 10.2325 64.1986 10.5701C63.9199 10.9045 63.7806 11.3505 63.7806 11.9079ZM74.7897 11.9079C74.7897 11.3721 74.6565 10.9417 74.3871 10.6134C74.1177 10.2883 73.7708 10.1241 73.3404 10.1241C72.9099 10.1241 72.5259 10.2945 72.1853 10.6351V13.1807C72.5259 13.5213 72.913 13.6916 73.3404 13.6916C73.7708 13.6916 74.1177 13.5244 74.3871 13.1931C74.6565 12.8617 74.7897 12.4343 74.7897 11.9079ZM69.8007 5.0454H72.1853V8.64387C72.7396 8.26297 73.3125 8.07406 73.8978 8.07406C74.384 8.07406 74.833 8.17006 75.2449 8.35897C75.6537 8.54787 76.0067 8.8111 76.2978 9.14865C76.5889 9.4862 76.8181 9.88878 76.9791 10.3564C77.1401 10.824 77.2207 11.3412 77.2207 11.9079C77.2207 12.4746 77.1401 12.9918 76.9791 13.4594C76.8181 13.927 76.592 14.3296 76.2978 14.6671C76.0067 15.0047 75.6537 15.2679 75.2449 15.4568C74.8361 15.6457 74.3871 15.7417 73.8978 15.7417C73.3125 15.7417 72.7427 15.5528 72.1853 15.1719V15.5683H69.8007V5.0454Z" fill="#343E4F"/>
</svg>
