<svg width="161" height="275" viewBox="0 0 161 275" fill="none" xmlns="http://www.w3.org/2000/svg">
<path d="M160.61 236.921C160.61 225.78 151.556 216.749 140.387 216.749C129.218 216.749 120.165 225.78 120.165 236.921C120.165 243.111 122.963 248.645 127.362 252.346L140.387 275L153.413 252.349C157.816 248.645 160.61 243.111 160.61 236.921Z" fill="#FA4143"/>
<path d="M150.046 236.922C150.046 242.241 145.724 246.553 140.391 246.553C135.058 246.553 130.736 242.241 130.736 236.922C130.736 231.602 135.058 227.29 140.391 227.29C145.72 227.286 150.046 231.602 150.046 236.922Z" fill="#FFFBF8"/>
<path d="M9.82043 190.046C13.2967 188.453 14.82 184.35 13.2229 180.882C11.6257 177.414 7.51284 175.895 4.03656 177.488C0.560283 179.081 -0.96304 183.184 0.634129 186.652C2.2313 190.12 6.34414 191.639 9.82043 190.046Z" fill="#FA4143"/>
<path d="M119.429 51.698C123.254 51.698 126.355 48.6044 126.355 44.7882C126.355 40.972 123.254 37.8784 119.429 37.8784C115.603 37.8784 112.502 40.972 112.502 44.7882C112.502 48.6044 115.603 51.698 119.429 51.698Z" fill="#FA4143"/>
<path d="M135.255 5.47987H104.71V32.5551H135.255V5.47987Z" fill="#C4575C"/>
<path opacity="0.15" d="M104.71 14.9002C105.068 14.7729 105.378 14.5473 105.611 14.2525C105.972 14.711 106.523 15.0094 107.154 15.0094C107.818 15.0094 108.402 14.6782 108.759 14.1761C109.117 14.6782 109.7 15.0094 110.364 15.0094C111.028 15.0094 111.612 14.6782 111.969 14.1761C112.323 14.6782 112.91 15.0094 113.574 15.0094C114.238 15.0094 114.821 14.6782 115.179 14.1761C115.533 14.6782 116.12 15.0094 116.784 15.0094C117.448 15.0094 118.031 14.6782 118.389 14.1761C118.746 14.6782 119.33 15.0094 119.994 15.0094C120.658 15.0094 121.241 14.6782 121.599 14.1761C121.953 14.6782 122.54 15.0094 123.204 15.0094C123.868 15.0094 124.451 14.6782 124.809 14.1761C125.166 14.6782 125.75 15.0094 126.414 15.0094C127.077 15.0094 127.661 14.6782 128.018 14.1761C128.376 14.6782 128.96 15.0094 129.623 15.0094C130.287 15.0094 130.871 14.6782 131.228 14.1761C131.586 14.6782 132.169 15.0094 132.833 15.0094C133.461 15.0094 134.015 14.711 134.373 14.2525C134.602 14.5473 134.912 14.7729 135.274 14.9002V3.12187H104.729V14.9002H104.71Z" fill="black"/>
<path d="M131.572 10.3847H108.395V20.9805H131.572V10.3847Z" fill="#9B3D44"/>
<path d="M130.849 0V11.48C130.849 12.5643 131.729 13.4412 132.816 13.4412C133.899 13.4412 134.782 12.5643 134.782 11.48V0H130.849Z" fill="#FFF5EE"/>
<path d="M105.185 0V11.48C105.185 12.5643 106.064 13.4412 107.151 13.4412C108.234 13.4412 109.117 12.5643 109.117 11.48V0H105.185Z" fill="#FFF5EE"/>
<path d="M111.601 0V11.48C111.601 12.5643 112.48 13.4412 113.567 13.4412C114.654 13.4412 115.533 12.5643 115.533 11.48V0H111.601Z" fill="#FFF5EE"/>
<path d="M118.017 0V11.48C118.017 12.5643 118.896 13.4412 119.983 13.4412C121.066 13.4412 121.949 12.5643 121.949 11.48V0H118.017Z" fill="#FFF5EE"/>
<path d="M124.434 0V11.48C124.434 12.5643 125.313 13.4412 126.4 13.4412C127.483 13.4412 128.366 12.5643 128.366 11.48V0H124.434Z" fill="#FFF5EE"/>
<path d="M127.643 0V11.48C127.643 12.5643 128.522 13.4412 129.609 13.4412C130.696 13.4412 131.575 12.5643 131.575 11.48V0H127.643Z" fill="#FA4143"/>
<path d="M133.931 0V11.48C133.931 12.5643 134.81 13.4412 135.897 13.4412C136.984 13.4412 137.864 12.5643 137.864 11.48V0H133.931Z" fill="#FA4143"/>
<path d="M121.227 0V11.48C121.227 12.5643 122.106 13.4412 123.193 13.4412C124.28 13.4412 125.159 12.5643 125.159 11.48V0H121.227Z" fill="#FA4143"/>
<path d="M114.811 0V11.48C114.811 12.5643 115.69 13.4412 116.777 13.4412C117.864 13.4412 118.743 12.5643 118.743 11.48V0H114.811Z" fill="#FA4143"/>
<path d="M108.395 0V11.48C108.395 12.5643 109.274 13.4412 110.361 13.4412C111.448 13.4412 112.327 12.5643 112.327 11.48V0H108.395Z" fill="#FA4143"/>
<path d="M102.103 0V11.48C102.103 12.5643 102.982 13.4412 104.069 13.4412C105.156 13.4412 106.035 12.5643 106.035 11.48V0H102.103Z" fill="#FA4143"/>
<path d="M140.234 217.752C136.751 190.667 103.676 146.534 13.2959 181.627" stroke="black" stroke-dasharray="3 3"/>
<path d="M3.26071 177.614C-3.59631 145.67 41.1917 67.6336 112.638 45.156" stroke="black" stroke-dasharray="3 3"/>
</svg>
