<svg width="80" height="80" viewBox="0 0 80 80" fill="none" xmlns="http://www.w3.org/2000/svg">
<path d="M14.2188 35.3125H23.5938V40H14.2188V35.3125Z" fill="#663BA5"/>
<path d="M65.9375 11.875C65.9375 10.5795 64.8892 9.53125 63.5938 9.53125H2.34375C1.04828 9.53125 0 10.5795 0 11.875V18.9062H65.9375V11.875Z" fill="#663BA5"/>
<path d="M2.34375 51.7188H63.5938C64.8892 51.7188 65.9375 50.6705 65.9375 49.375V23.5938H0V49.375C0 50.6705 1.04828 51.7188 2.34375 51.7188ZM54.0625 30.625C55.3569 30.625 56.4062 31.6741 56.4062 32.9688C56.4062 34.2631 55.3569 35.3125 54.0625 35.3125C52.7681 35.3125 51.7188 34.2631 51.7188 32.9688C51.7188 31.6741 52.7681 30.625 54.0625 30.625ZM44.6875 30.625C45.9819 30.625 47.0312 31.6741 47.0312 32.9688C47.0312 34.2631 45.9819 35.3125 44.6875 35.3125C43.3931 35.3125 42.3438 34.2631 42.3438 32.9688C42.3438 31.6741 43.3931 30.625 44.6875 30.625ZM35.3125 30.625C36.6069 30.625 37.6562 31.6741 37.6562 32.9688C37.6562 34.2631 36.6069 35.3125 35.3125 35.3125C34.0181 35.3125 32.9688 34.2631 32.9688 32.9688C32.9688 31.6741 34.0181 30.625 35.3125 30.625ZM35.3125 40H54.0625C55.358 40 56.4062 41.0483 56.4062 42.3438C56.4062 43.6392 55.358 44.6875 54.0625 44.6875H35.3125C34.017 44.6875 32.9688 43.6392 32.9688 42.3438C32.9688 41.0483 34.017 40 35.3125 40ZM9.53125 32.9688C9.53125 31.6733 10.5795 30.625 11.875 30.625H25.9375C27.233 30.625 28.2812 31.6733 28.2812 32.9688V42.3438C28.2812 43.6392 27.233 44.6875 25.9375 44.6875H11.875C10.5795 44.6875 9.53125 43.6392 9.53125 42.3438V32.9688Z" fill="#663BA5"/>
<path d="M77.6562 28.2812H70.625V49.375C70.625 53.2522 67.4709 56.4062 63.5938 56.4062H18.9062V68.125C18.9062 69.4205 19.9545 70.4688 21.25 70.4688H77.6562C78.9517 70.4688 80 69.4205 80 68.125V30.625C80 29.3295 78.9517 28.2812 77.6562 28.2812Z" fill="#663BA5"/>
</svg>
