<svg width="22" height="22" viewBox="0 0 22 22" fill="none" xmlns="http://www.w3.org/2000/svg">
<g clip-path="url(#clip0_0_215)">
<path d="M17.9844 9.28125V10.0312H18.7344H19.4219C20.4292 10.0312 21.25 10.852 21.25 11.8594V13.5781C21.25 14.5855 20.4292 15.4062 19.4219 15.4062H18.648H18.0354L17.9131 16.0065C17.5835 17.6236 16.1485 18.8438 14.4375 18.8438H13.4303H12.9006L12.7235 19.343C12.4711 20.0544 11.7918 20.5625 11 20.5625C9.99264 20.5625 9.17188 19.7417 9.17188 18.7344C9.17188 17.727 9.99264 16.9062 11 16.9062C11.7918 16.9062 12.4712 17.4143 12.7235 18.1257L12.9005 18.625H13.4303H14.4375C16.2733 18.625 17.7656 17.1327 17.7656 15.2969V8.42188C17.7656 4.69065 14.7312 1.65625 11 1.65625C7.26877 1.65625 4.23438 4.69065 4.23438 8.42188V15.4062H2.57812C1.57076 15.4062 0.75 14.5855 0.75 13.5781V11.8594C0.75 10.852 1.57076 10.0312 2.57812 10.0312H3.26562H4.01562V9.28125V8.42188C4.01562 4.57135 7.14948 1.4375 11 1.4375C14.8505 1.4375 17.9844 4.57135 17.9844 8.42188V9.28125ZM3.26562 15.1875H4.01562V14.4375V11V10.25H3.26562H2.57812C1.69005 10.25 0.96875 10.9713 0.96875 11.8594V13.5781C0.96875 14.4662 1.69005 15.1875 2.57812 15.1875H3.26562ZM17.9844 14.4375V15.1875H18.7344H19.4219C20.3099 15.1875 21.0312 14.4662 21.0312 13.5781V11.8594C21.0312 10.9713 20.3099 10.25 19.4219 10.25H18.7344H17.9844V11V14.4375ZM9.39062 18.7344C9.39062 19.6224 10.1119 20.3438 11 20.3438C11.8881 20.3438 12.6094 19.6224 12.6094 18.7344C12.6094 17.8463 11.8881 17.125 11 17.125C10.1119 17.125 9.39062 17.8463 9.39062 18.7344Z" stroke="black" stroke-width="1.5"/>
</g>
<defs>
<clipPath id="clip0_0_215">
<rect width="22" height="22" fill="white"/>
</clipPath>
</defs>
</svg>
