<svg width="23" height="23" viewBox="0 0 23 23" fill="none" xmlns="http://www.w3.org/2000/svg">
<path d="M11.5002 12.7458C11.3756 12.7458 11.2511 12.7171 11.1361 12.65L2.67398 7.75293C2.32898 7.55168 2.21396 7.11082 2.41521 6.76582C2.61646 6.42082 3.04771 6.3058 3.4023 6.50705L11.5002 11.1933L19.5502 6.53583C19.8952 6.33458 20.3361 6.45918 20.5373 6.7946C20.7386 7.1396 20.614 7.5804 20.2786 7.78165L11.874 12.65C11.7494 12.7075 11.6248 12.7458 11.5002 12.7458Z" fill="#663BA5"/>
<path d="M11.5 21.4282C11.1071 21.4282 10.7812 21.1023 10.7812 20.7094V12.0173C10.7812 11.6244 11.1071 11.2986 11.5 11.2986C11.8929 11.2986 12.2188 11.6244 12.2188 12.0173V20.7094C12.2188 21.1023 11.8929 21.4282 11.5 21.4282Z" fill="#663BA5"/>
<path d="M11.5001 21.8022C10.6568 21.8022 9.82301 21.6202 9.16176 21.256L4.04426 18.4098C2.65468 17.6431 1.57177 15.7935 1.57177 14.2027V8.78806C1.57177 7.19722 2.65468 5.35727 4.04426 4.58102L9.16176 1.74433C10.4747 1.016 12.5255 1.016 13.8384 1.74433L18.9559 4.59055C20.3455 5.35722 21.4284 7.20682 21.4284 8.79765V14.2123C21.4284 15.8031 20.3455 17.643 18.9559 18.4193L13.8384 21.256C13.1772 21.6202 12.3434 21.8022 11.5001 21.8022ZM11.5001 2.63557C10.8963 2.63557 10.3022 2.76016 9.86135 2.99975L4.74385 5.84597C3.82385 6.36347 3.00927 7.7339 3.00927 8.79765V14.2123C3.00927 15.2664 3.82385 16.6464 4.74385 17.1639L9.86135 20.0102C10.7334 20.4989 12.2668 20.4989 13.1388 20.0102L18.2563 17.1639C19.1763 16.6464 19.9909 15.276 19.9909 14.2123V8.79765C19.9909 7.74348 19.1763 6.36347 18.2563 5.84597L13.1388 2.99975C12.698 2.76016 12.1038 2.63557 11.5001 2.63557Z" fill="#663BA5"/>
<path d="M16.2922 13.4072C15.8993 13.4072 15.5734 13.0814 15.5734 12.6884V9.60263L6.83345 4.56179C6.48845 4.36054 6.37343 3.91968 6.57468 3.58427C6.77593 3.23927 7.2072 3.12425 7.5522 3.3255L16.6468 8.57721C16.8672 8.70179 17.0109 8.94134 17.0109 9.20009V12.7076C17.0109 13.0814 16.6851 13.4072 16.2922 13.4072Z" fill="#663BA5"/>
</svg>
