<svg width="68" height="80" viewBox="0 0 68 80" fill="none" xmlns="http://www.w3.org/2000/svg">
<path d="M50.1167 37.1123H4.79328C2.14594 37.1123 0 39.2584 0 41.9057V62.674H32.5694C33.6395 52.74 42.0736 44.9793 52.2873 44.9793C53.1764 44.9793 54.0517 45.0392 54.9102 45.1531V41.9057C54.9102 39.2582 52.7641 37.1123 50.1167 37.1123Z" fill="#663BA5"/>
<path d="M32.6186 67.3594H0V75.2067C0 77.8539 2.14609 80 4.79344 80H39.5464C35.8272 76.8747 33.2692 72.4117 32.6186 67.3594Z" fill="#663BA5"/>
<path d="M14.7683 32.4272V22.6505C14.7683 15.655 20.4595 9.96375 27.4552 9.96359C34.4506 9.96359 40.142 15.6548 40.142 22.6505V32.4272H50.1056V22.6505C50.1056 10.1409 39.9647 0 27.4552 0C14.9456 0 4.80469 10.1409 4.80469 22.6505V32.4272H14.7683Z" fill="#663BA5"/>
<path d="M52.2871 49.6646C43.9343 49.6646 37.1387 56.46 37.1387 64.8128C37.1387 73.1656 43.9341 79.9613 52.2871 79.9613C60.6399 79.9613 67.4356 73.1658 67.4356 64.8128C67.4356 56.46 60.6399 49.6646 52.2871 49.6646ZM58.1049 61.4935L52.9195 70.475C52.5027 71.1955 51.7295 71.6463 50.8907 71.6463C50.0538 71.6463 49.2804 71.1997 48.862 70.475L46.4693 66.3306C45.8224 65.2102 46.2063 63.7774 47.3268 63.1306C48.4476 62.4838 49.8801 62.8677 50.5268 63.9881L50.8907 64.6186L52.2871 62.2L54.0474 59.1511C54.6941 58.0306 56.1268 57.6466 57.2474 58.2936C58.3679 58.9403 58.7518 60.373 58.1049 61.4935Z" fill="#663BA5"/>
</svg>
