<svg width="80" height="80" viewBox="0 0 80 80" fill="none" xmlns="http://www.w3.org/2000/svg">
<g clip-path="url(#clip0_2438_4580)">
<path d="M28.9385 72.7832C30.8164 77.0288 35.0664 80.0001 39.9995 80.0001C44.9327 80.0001 49.1825 77.0288 51.0606 72.7832H28.9385Z" fill="#663BA5"/>
<path d="M39.999 7.64322C43.2544 7.64322 46.3802 8.21761 49.2809 9.26919V8.91188C49.2809 3.99784 45.2831 0 40.3692 0H39.6306C34.7166 0 30.7188 3.99784 30.7188 8.91188V9.26465C33.6179 8.2162 36.7427 7.64322 39.999 7.64322Z" fill="#663BA5"/>
<path d="M69.2933 68.0883H10.7064C9.59801 68.0883 8.58274 67.3408 8.3522 66.2565C8.12401 65.183 8.61326 64.1235 9.60583 63.6649C9.84138 63.5121 11.6143 62.2724 13.3893 58.5217C16.6492 51.6338 17.3334 41.9311 17.3334 35.0044C17.3334 22.5064 27.5013 12.3389 39.9991 12.3389C52.4673 12.3389 62.6163 22.4574 62.6645 34.9144C62.6656 34.9443 62.6663 34.9743 62.6663 35.0044C62.6663 41.9311 63.3505 51.6338 66.6104 58.5217C68.3854 62.2724 70.1581 63.5123 70.3938 63.6649C71.3864 64.1235 71.8758 65.1829 71.6475 66.2565C71.4169 67.3406 70.4018 68.0883 69.2933 68.0883Z" fill="#663BA5"/>
</g>
<defs>
<clipPath id="clip0_2438_4580">
<rect width="80" height="80" fill="white"/>
</clipPath>
</defs>
</svg>
