<svg width="25" height="25" viewBox="0 0 25 25" fill="none" xmlns="http://www.w3.org/2000/svg">
<path d="M12.5211 3.03124C9.07319 3.03124 6.27109 5.83334 6.27109 9.28127L6.27109 12.2917C6.27109 12.9271 6.00026 13.8959 5.67734 14.4375L4.47942 16.4271C3.73983 17.6563 4.25025 19.0209 5.60442 19.4792C10.094 20.9792 14.9378 20.9792 19.4274 19.4792C20.6878 19.0626 21.2399 17.573 20.5524 16.4271L19.3545 14.4375C19.042 13.8959 18.7711 12.9271 18.7711 12.2917V9.28127C18.7711 5.84375 15.9586 3.03124 12.5211 3.03124Z" stroke="black" stroke-width="1.5" stroke-miterlimit="10" stroke-linecap="round"/>
<path d="M14.448 3.3335C14.1251 3.23975 13.7918 3.16683 13.448 3.12517C12.448 3.00016 11.4897 3.07308 10.5939 3.3335C10.8959 2.56266 11.646 2.02099 12.521 2.02099C13.396 2.02099 14.146 2.56266 14.448 3.3335Z" stroke="black" stroke-width="1.5" stroke-miterlimit="10" stroke-linecap="round" stroke-linejoin="round"/>
<path d="M15.6464 19.8544C15.6464 21.5731 14.2401 22.9794 12.5214 22.9794C11.6672 22.9794 10.8755 22.6252 10.313 22.0627C9.75052 21.5002 9.39635 20.7086 9.39635 19.8544" stroke="black" stroke-width="1.5" stroke-miterlimit="10"/>
</svg>
