<svg width="100" height="80" viewBox="0 0 100 80" fill="none" xmlns="http://www.w3.org/2000/svg">
<path fill-rule="evenodd" clip-rule="evenodd" d="M68.0318 79.5898V42.6486L100 24.1918V59.7188C100 60.616 99.552 61.3918 98.775 61.8404L68.0318 79.5898ZM29.5766 61.2297H3.7832C1.69395 61.2297 0 59.5357 0 57.4465C0 55.3572 1.69395 53.6633 3.7832 53.6633H29.442C33.8787 53.6633 33.8787 46.5777 29.442 46.5777H14.0229C11.9336 46.5777 10.2395 44.8838 10.2395 42.7945C10.2395 40.7053 11.9336 39.0113 14.0229 39.0113H26.0826C30.5193 39.0113 30.5193 31.9258 26.0826 31.9258H3.7834C1.69414 31.9258 0.000195313 30.2318 0.000195313 28.1426C0.000195313 26.0533 1.69414 24.3594 3.7834 24.3594H29.699L61.3777 42.6492V79.5898L29.5766 61.2297ZM32.7127 18.4352L64.7047 36.9057L96.6967 18.435L64.766 0H43.816C41.7268 0 40.0328 1.69395 40.0328 3.7832C40.0328 5.87246 41.7268 7.56641 43.816 7.56641H48.2434C48.65 7.56641 48.9908 7.82793 49.0961 8.2207C49.2012 8.61348 49.0369 9.01035 48.6848 9.21387L32.7127 18.4352ZM30.8916 0C32.9809 0 34.6748 1.69395 34.6748 3.7832C34.6748 5.87246 32.9809 7.56641 30.8916 7.56641H7.89609C5.80684 7.56641 4.1127 5.87246 4.1127 3.7832C4.1127 1.69395 5.80664 0 7.89609 0H30.8916Z" fill="#663BA5"/>
</svg>
