<svg width="100" height="67" viewBox="0 0 100 67" fill="none" xmlns="http://www.w3.org/2000/svg">
<path d="M97.8151 33.3299H96.27L86.4341 15.865C86.0617 15.2027 85.3547 14.8133 84.5263 14.8133H72.9611L75.2526 2.63369C75.5263 1.17892 74.5696 0 73.1142 0L11.9548 0.0261189C10.3825 0.0261189 9.10833 1.30027 9.10833 2.87237C9.10833 4.44447 10.3825 5.71863 11.9548 5.71863H45.6154C46.9555 5.94947 47.9761 7.11453 47.9761 8.52068C47.9761 10.0108 46.8303 11.2317 45.3717 11.3547H2.84645C1.27456 11.3549 0 12.6292 0 14.2011C0 15.7732 1.27456 17.0474 2.84645 17.0474H45.4914C46.8924 17.2254 47.9761 18.419 47.9761 19.8683C47.9761 21.3241 46.8825 22.5223 45.4726 22.6919H7.02071C5.44881 22.6919 4.17465 23.9664 4.17465 25.5383C4.17465 27.1102 5.44881 28.3846 7.02071 28.3846H15.9344L11.2422 53.321C10.9687 54.7756 11.9257 55.9547 13.3808 55.9547H17.5798C16.7675 61.9757 20.863 66.7754 26.962 66.7754C33.0613 66.7754 38.9634 61.9755 40.4165 55.9547H62.585H68.8523C68.0401 61.9757 72.1352 66.7754 78.2345 66.7754C84.3339 66.7754 90.2355 61.9755 91.6895 55.9547H93.5577H95.889C97.3436 55.9547 98.7449 54.7756 99.0184 53.321L99.8664 48.8142C100.121 47.4623 99.3107 46.3495 98.0273 46.199L99.9532 35.9644C100.227 34.5094 99.2697 33.3299 97.8151 33.3299ZM35.2819 55.3401C34.6418 58.7409 31.3544 61.5076 27.9534 61.5076C24.5525 61.5076 22.3065 58.7409 22.9464 55.3401C23.5861 51.9394 26.8736 49.1727 30.2749 49.1727C33.6751 49.1725 35.922 51.9394 35.2819 55.3401ZM86.5537 55.3401C85.9138 58.7409 82.6265 61.5076 79.2258 61.5076C75.8244 61.5076 73.5787 58.7409 74.2188 55.3401C74.8587 51.9394 78.1455 49.1727 81.5471 49.1727C84.948 49.1725 87.1942 51.9394 86.5537 55.3401ZM69.4762 33.3299L71.9688 20.0809H82.2193L89.6804 33.3299H69.4762Z" fill="white"/>
</svg>
