<svg width="58" height="80" viewBox="0 0 58 80" fill="none" xmlns="http://www.w3.org/2000/svg">
<path d="M28.973 0C12.9972 0 0 12.9972 0 28.9728C0 48.7991 25.928 77.9052 27.0319 79.1345C28.0688 80.2894 29.8791 80.2874 30.9141 79.1345C32.018 77.9052 57.9459 48.7991 57.9459 28.9728C57.9456 12.9972 44.9486 0 28.973 0ZM28.973 43.5498C20.9352 43.5498 14.3961 37.0106 14.3961 28.9728C14.3961 20.935 20.9353 14.3959 28.973 14.3959C37.0106 14.3959 43.5497 20.9352 43.5497 28.973C43.5497 37.0108 37.0106 43.5498 28.973 43.5498Z" fill="#663BA5"/>
</svg>
