<svg width="20" height="20" viewBox="0 0 20 20" fill="none" xmlns="http://www.w3.org/2000/svg">
<path d="M11.667 4.16667C11.667 3.25 10.917 2.5 10.0003 2.5C9.08366 2.5 8.33366 3.25 8.33366 4.16667C8.33366 5.08333 9.08366 5.83333 10.0003 5.83333C10.917 5.83333 11.667 5.08333 11.667 4.16667Z" fill="black"/>
<path d="M11.667 15.8332C11.667 14.9165 10.917 14.1665 10.0003 14.1665C9.08366 14.1665 8.33366 14.9165 8.33366 15.8332C8.33366 16.7498 9.08366 17.4998 10.0003 17.4998C10.917 17.4998 11.667 16.7498 11.667 15.8332Z" fill="black"/>
<path d="M11.667 10.0002C11.667 9.0835 10.917 8.3335 10.0003 8.3335C9.08366 8.3335 8.33366 9.0835 8.33366 10.0002C8.33366 10.9168 9.08366 11.6668 10.0003 11.6668C10.917 11.6668 11.667 10.9168 11.667 10.0002Z" fill="black"/>
</svg>
