<svg width="71" height="25" viewBox="0 0 71 25" fill="none" xmlns="http://www.w3.org/2000/svg">
<path d="M32.8172 12.4026C32.9273 12.3706 37.9599 12.3546 38.2801 12.3866C38.3061 12.4306 38.2741 12.4686 38.2621 12.5046C37.7218 14.0615 37.1775 15.6183 36.6372 17.1751C36.6052 17.2651 36.5592 17.3032 36.4651 17.3172C35.9609 17.3912 35.4546 17.4612 34.9483 17.5153C34.4 17.5733 33.8497 17.6273 33.2995 17.6673C32.6751 17.7134 32.0508 17.7414 31.4265 17.7474C30.9202 17.7534 30.416 17.7554 29.9097 17.7354C28.601 17.6794 27.3043 17.5253 26.0437 17.1491C25.3573 16.943 24.699 16.6748 24.1007 16.2746C23.7385 16.0325 23.4143 15.7503 23.1522 15.3982C22.6859 14.7718 22.5258 14.0695 22.6519 13.3031C22.82 12.2745 23.3282 11.4241 24.0466 10.6877C24.713 10.0073 25.4974 9.48707 26.3418 9.05885C27.4964 8.47254 28.7171 8.08034 29.9777 7.8082C30.9862 7.59008 32.0088 7.45801 33.0393 7.39398C34.1119 7.32794 35.1844 7.35396 36.257 7.39198C36.7152 7.40799 37.1735 7.432 37.6297 7.46402C38.124 7.50003 38.6162 7.54406 39.1045 7.6221C39.2145 7.64011 39.2166 7.64211 39.1805 7.75217C38.9624 8.3925 38.7443 9.03284 38.5262 9.67117C38.4922 9.76922 38.4421 9.79523 38.3501 9.74721C37.5517 9.31898 36.6712 9.21493 35.7948 9.08686C35.1284 8.99081 34.4581 8.93879 33.7857 8.94679C32.7692 8.9568 31.7707 9.08286 30.8102 9.43304C30.0558 9.70919 29.3794 10.1054 28.8211 10.6897C28.2308 11.306 27.8866 12.0464 27.7265 12.8768C27.6385 13.3311 27.6265 13.7873 27.7426 14.2396C27.8926 14.8219 28.2328 15.2661 28.7391 15.5863C29.1653 15.8544 29.6355 16.0005 30.1258 16.0845C30.8702 16.2126 31.6186 16.2106 32.369 16.1546C32.441 16.1486 32.493 16.1406 32.5211 16.0565C32.7892 15.2801 33.0793 14.5117 33.3355 13.7313C33.3795 13.5972 33.4115 13.4611 33.4295 13.3211C33.4615 13.087 33.3955 12.8889 33.2254 12.7248C33.1274 12.6287 33.0133 12.5567 32.8973 12.4886C32.8652 12.4646 32.8172 12.4586 32.8172 12.4026Z" fill="#02819F"/>
<path d="M52.1312 17.2631C52.0592 17.2671 52.0092 17.2711 51.9612 17.2711C50.2943 17.2711 48.6274 17.2711 46.9605 17.2711C46.7945 17.2711 46.8145 17.3071 46.7724 17.119C46.5203 15.9764 46.2702 14.8338 46.0201 13.6912C46.014 13.6672 46.022 13.6372 45.978 13.6232C45.96 13.6692 45.942 13.7153 45.926 13.7613C45.84 13.9974 45.7279 14.2195 45.5638 14.4136C45.3397 14.6798 45.0636 14.8198 44.7074 14.8178C43.7289 14.8098 42.7483 14.8178 41.7698 14.8118C41.6538 14.8118 41.5797 14.8438 41.5097 14.9399C41.2696 15.2661 41.0194 15.5862 40.7733 15.9104C40.6693 16.0465 40.5812 16.1945 40.5112 16.3526C40.4071 16.5888 40.4371 16.7648 40.6252 16.9469C40.6913 17.011 40.7693 17.065 40.8413 17.125C40.8894 17.1651 40.9474 17.1911 40.9834 17.2431C40.9814 17.2491 40.9794 17.2551 40.9774 17.2591C40.9754 17.2631 40.9714 17.2711 40.9694 17.2711C39.7308 17.2711 38.4921 17.2711 37.2535 17.2711C37.2435 17.2151 37.2835 17.1911 37.3075 17.1611C39.2645 14.7138 41.2235 12.2665 43.1806 9.81922C43.3947 9.55108 43.6008 9.27493 43.8089 9.00079C43.8929 8.88873 43.973 8.77267 44.031 8.6426C44.1351 8.40248 44.099 8.18636 43.923 7.99426C43.8409 7.90622 43.7449 7.83418 43.6428 7.77015C43.6048 7.74613 43.5548 7.73613 43.5347 7.6881C43.5668 7.64608 43.6128 7.66409 43.6508 7.66409C45.4177 7.66409 47.1827 7.66409 48.9496 7.66409C49.0796 7.66409 49.0816 7.66609 49.1117 7.79616C49.5419 9.5911 49.9701 11.386 50.4023 13.179C50.5984 13.9934 50.8025 14.8038 50.9946 15.6182C51.1267 16.1825 51.4189 16.6408 51.8591 17.011C51.9411 17.085 52.0392 17.153 52.1312 17.2631ZM42.6243 13.5091C43.7629 13.5091 44.8654 13.5091 45.984 13.5091C45.7419 12.3786 45.5078 11.256 45.2577 10.1054C44.3692 11.252 43.5047 12.3685 42.6243 13.5091Z" fill="#02809F"/>
<path d="M52.5539 8.34415C52.5719 8.30213 52.5999 8.26811 52.6359 8.2401C52.6419 8.2361 52.6459 8.23009 52.6479 8.22409L52.6539 8.21409C52.6619 8.20408 52.6699 8.19608 52.6779 8.18607C52.6819 8.16806 52.6919 8.15605 52.7079 8.15005C52.7239 8.14405 52.734 8.13204 52.738 8.11403C52.744 8.10403 52.75 8.09602 52.756 8.08602C52.764 8.08202 52.77 8.07401 52.772 8.06601L52.778 8.058C52.786 8.048 52.794 8.03799 52.802 8.02799C52.812 7.99797 52.832 7.97596 52.858 7.95795L52.866 7.94595C52.864 7.93794 52.868 7.93394 52.874 7.93394C52.882 7.92594 52.888 7.91593 52.896 7.90793C52.914 7.8659 52.9421 7.83389 52.9781 7.80387C52.9841 7.79987 52.9881 7.79387 52.9921 7.78586L52.9981 7.77586C53.0061 7.76585 53.0141 7.75785 53.0221 7.74784C53.0261 7.72983 53.0341 7.71783 53.0521 7.71182C53.0681 7.70582 53.0781 7.69381 53.0821 7.6758C53.0821 7.6678 53.0841 7.6598 53.0901 7.65379C53.1922 7.63178 53.2963 7.6658 53.4003 7.64779C53.4103 7.64579 53.4183 7.64779 53.4283 7.64979C53.5104 7.69982 53.6004 7.68181 53.6865 7.68181C55.1092 7.68381 56.5299 7.68381 57.9527 7.68381C60.3219 7.68381 62.6932 7.68381 65.0624 7.68581C65.1264 7.68581 65.1985 7.6598 65.2545 7.71583C64.7342 8.4242 64.214 9.13056 63.6797 9.85694C63.5336 9.59681 63.3115 9.46274 63.0554 9.3807C62.9573 9.34868 62.8552 9.32667 62.7532 9.30666C62.301 9.21661 61.8407 9.24062 61.3845 9.23862C61.1403 9.23862 60.8962 9.25863 60.6521 9.28465C60.56 9.29465 60.51 9.33267 60.478 9.42672C59.7936 11.4158 59.1053 13.4048 58.4189 15.3938C58.3509 15.5899 58.2949 15.79 58.2628 15.9962C58.2168 16.3003 58.2628 16.5805 58.4409 16.8406C58.511 16.9446 58.585 17.0407 58.6851 17.1167C58.6911 17.1187 58.6971 17.1187 58.7031 17.1187L58.7131 17.1267C58.7211 17.1347 58.7311 17.1408 58.7391 17.1488C58.7511 17.1588 58.7651 17.1688 58.7771 17.1788C58.7831 17.1948 58.7951 17.2048 58.8111 17.2068C58.8091 17.2268 58.8071 17.2468 58.8051 17.2688C58.6911 17.2708 58.577 17.2748 58.4609 17.2748C56.726 17.2748 54.9911 17.2748 53.2562 17.2748C53.2102 17.2748 53.1622 17.2708 53.1162 17.2688C53.1081 17.2608 53.0981 17.2508 53.0901 17.2428C53.1001 17.1648 53.1322 17.0927 53.1622 17.0227C53.1682 17.0107 53.1722 17.0007 53.1782 16.9887C53.2442 16.7566 53.3283 16.5284 53.4123 16.3043C53.4183 16.2923 53.4223 16.2823 53.4283 16.2703C53.4923 16.0382 53.5784 15.8121 53.6624 15.5859C53.6684 15.5739 53.6724 15.5639 53.6784 15.5519C53.7205 15.3818 53.7845 15.2177 53.8465 15.0557C53.8525 15.0437 53.8585 15.0316 53.8645 15.0176C53.8705 14.9996 53.8746 14.9796 53.8806 14.9616C53.8866 14.9496 53.8926 14.9376 53.8966 14.9256C53.9686 14.6615 54.0687 14.4053 54.1627 14.1492C54.1687 14.1372 54.1727 14.1272 54.1787 14.1152C54.2147 13.9631 54.2668 13.819 54.3308 13.6769C54.3348 13.6709 54.3368 13.6629 54.3368 13.6549C54.4408 13.3047 54.5689 12.9626 54.693 12.6184C54.699 12.6064 54.703 12.5964 54.709 12.5844C54.773 12.3522 54.8591 12.1261 54.9431 11.9C54.9491 11.888 54.9531 11.878 54.9591 11.866C55.0011 11.6959 55.0652 11.5338 55.1272 11.3697C55.1332 11.3577 55.1392 11.3457 55.1452 11.3317C55.1492 11.3137 55.1552 11.2937 55.1592 11.2757C55.1652 11.2637 55.1712 11.2517 55.1772 11.2397C55.2713 10.9055 55.4013 10.5813 55.5114 10.2532C55.6155 9.94299 55.7255 9.63483 55.8336 9.32066C55.7455 9.29665 55.6635 9.28465 55.5814 9.28064C54.8951 9.24663 54.2087 9.24062 53.5244 9.31266C52.88 9.3807 52.2577 9.54878 51.6474 9.75689C51.5934 9.7749 51.5393 9.79291 51.4853 9.81092C51.4633 9.80492 51.4373 9.80292 51.4273 9.7749C51.4813 9.69686 51.5373 9.62082 51.6074 9.55479C51.6134 9.55078 51.6154 9.54478 51.6194 9.53878L51.6274 9.52877C51.6354 9.51877 51.6434 9.51076 51.6494 9.50076C51.6534 9.48275 51.6634 9.47074 51.6794 9.46474C51.6954 9.45874 51.7054 9.44673 51.7094 9.42872C51.7154 9.41871 51.7234 9.41071 51.7294 9.40071C51.7374 9.3967 51.7434 9.3887 51.7454 9.3807L51.7514 9.37269C51.7594 9.36269 51.7674 9.35268 51.7755 9.34267C51.7875 9.31266 51.8055 9.28865 51.8315 9.27064L51.8375 9.26063C51.8355 9.25263 51.8395 9.24863 51.8475 9.24662C51.8555 9.23862 51.8615 9.22862 51.8695 9.22061C51.8875 9.17859 51.9155 9.14457 51.9515 9.11656C51.9575 9.11256 51.9615 9.10655 51.9635 9.10055L51.9716 9.09054C51.9796 9.08054 51.9876 9.07253 51.9956 9.06253C52.0076 9.03051 52.0276 9.0065 52.0556 8.98649L52.0576 8.98249C52.0576 8.97248 52.0616 8.96648 52.0696 8.96448C52.0796 8.95847 52.0856 8.95047 52.0876 8.94247C52.1076 8.89844 52.1356 8.86242 52.1737 8.83441L52.1817 8.8224C52.1797 8.8144 52.1837 8.8104 52.1917 8.8084C52.1997 8.80039 52.2057 8.79039 52.2137 8.78238C52.2317 8.74036 52.2597 8.70634 52.2957 8.67833C52.3017 8.67433 52.3057 8.66832 52.3077 8.66232L52.3157 8.65231C52.3237 8.64231 52.3317 8.6343 52.3397 8.6243C52.3437 8.60629 52.3518 8.59428 52.3698 8.58828C52.3858 8.58228 52.3958 8.57027 52.3998 8.55226C52.4058 8.54226 52.4118 8.53425 52.4178 8.52425C52.4258 8.52025 52.4318 8.51224 52.4338 8.50424L52.4398 8.49623C52.4478 8.48623 52.4558 8.47622 52.4638 8.46622C52.4738 8.4362 52.4938 8.41419 52.5198 8.39618L52.5278 8.38417C52.5258 8.37617 52.5298 8.37217 52.5379 8.37017C52.5399 8.36016 52.5479 8.35216 52.5539 8.34415Z" fill="#02809F"/>
<path d="M70.9932 7.65204C71.0132 7.71207 70.9812 7.7641 70.9632 7.81813C70.1008 10.3034 69.2363 12.7887 68.3718 15.274C68.2938 15.5001 68.2018 15.7203 68.1377 15.9524C68.0957 16.1025 68.0637 16.2565 68.0697 16.4146C68.0817 16.7008 68.2158 16.9209 68.4499 17.079C68.5399 17.139 68.636 17.189 68.732 17.2471C68.62 17.2811 63.2932 17.2931 63.0191 17.2631C63.003 17.191 63.0431 17.131 63.0631 17.069C63.8875 14.7017 64.7119 12.3365 65.5384 9.96925C65.6384 9.6791 65.7445 9.39095 65.8465 9.1028C65.9006 8.95072 65.9326 8.79264 65.9426 8.63055C65.9606 8.32039 65.8485 8.07226 65.6004 7.88416C65.5084 7.81413 65.4083 7.7621 65.3042 7.71007C65.3583 7.66205 65.4243 7.68406 65.4823 7.68406C66.775 7.68006 68.0677 7.67806 69.3604 7.67405C69.4164 7.67405 69.4764 7.69206 69.5245 7.64804C70.0167 7.66605 70.505 7.65204 70.9932 7.65204Z" fill="#02809F"/>
<path d="M18.412 12.0705C18.43 12.1645 18.51 12.2146 18.566 12.2786C19.1523 12.951 19.6806 13.6653 20.1149 14.4457C20.5351 15.2001 20.8552 15.9925 21.0193 16.843C21.2675 18.1277 21.1554 19.3683 20.5351 20.5409C20.439 20.725 20.335 20.9031 20.1849 21.0872C20.1689 20.9411 20.1609 20.8191 20.1429 20.699C20.0108 19.7805 19.6686 18.9361 19.2044 18.1397C18.582 17.0711 17.7716 16.1626 16.8411 15.3562C16.7351 15.2642 16.637 15.1641 16.519 15.0861C16.501 15.0541 16.4769 15.03 16.4409 15.02C16.3649 14.914 16.2468 14.86 16.1548 14.7719L16.1568 14.7739C16.1448 14.7639 16.1328 14.7519 16.1228 14.7419L16.1268 14.7439C16.1148 14.7339 16.1048 14.7259 16.0927 14.7159L16.0907 14.7119C16.0827 14.7059 16.0767 14.6979 16.0687 14.6919C15.9967 14.6338 15.9467 14.5498 15.8526 14.5178C15.8406 14.4557 15.7906 14.4237 15.7506 14.3837C15.5385 14.1616 15.3003 13.9675 15.0702 13.7654C14.7721 13.5052 14.4739 13.2471 14.1817 12.981C13.8556 12.6828 13.5174 12.3987 13.2012 12.0905C13.2252 12.0645 13.2493 12.0365 13.2753 12.0105C13.9756 11.3101 14.728 10.6618 15.4324 9.96539C15.5485 9.84933 15.6665 9.72927 15.8086 9.64322C16.0527 9.86134 16.2969 10.0795 16.541 10.2956C16.7771 10.5057 17.0192 10.7098 17.2514 10.9259C17.4555 11.118 17.6776 11.2941 17.8597 11.5062C18.0117 11.6823 18.1898 11.8364 18.3339 12.0225C18.3539 12.0425 18.3859 12.0545 18.412 12.0705Z" fill="#20A849"/>
<path d="M7.94803 12.1185C7.78795 11.9264 7.62786 11.7363 7.46978 11.5422C6.82744 10.7498 6.26915 9.90534 5.86094 8.96885C5.41871 7.95632 5.18259 6.90577 5.25062 5.79719C5.30665 4.88272 5.55878 4.02827 6.07105 3.25987C6.09906 3.21585 6.13108 3.17582 6.1631 3.1338C6.1691 3.1278 6.18111 3.1278 6.19912 3.11979C6.21913 3.26787 6.21312 3.41795 6.23313 3.56403C6.32518 4.23638 6.5433 4.86671 6.83945 5.47302C7.22765 6.26944 7.73792 6.98381 8.32623 7.64416C8.80048 8.17844 9.32675 8.66069 9.87304 9.11893C9.94708 9.20297 10.0251 9.28102 10.1232 9.33905L10.1212 9.33504C10.1412 9.35705 10.1632 9.37907 10.1832 9.40108V9.40308C10.1952 9.41308 10.2072 9.42309 10.2192 9.43309L10.2152 9.42909C10.2272 9.4391 10.2372 9.4511 10.2492 9.46111C10.2572 9.46911 10.2652 9.47512 10.2732 9.48312C10.2813 9.48712 10.2893 9.49513 10.2953 9.50313C10.3113 9.51714 10.3253 9.52914 10.3413 9.54315C10.4053 9.59318 10.4453 9.67122 10.5294 9.69723C10.5774 9.80929 10.6915 9.85331 10.7715 9.93536C11.0657 10.2435 11.3958 10.5157 11.71 10.8018C12.1902 11.238 12.6785 11.6643 13.1648 12.0945C13.1027 12.1585 13.0427 12.2226 12.9787 12.2846C12.4604 12.7808 11.9421 13.2771 11.4198 13.7714C11.1477 14.0275 10.8896 14.2996 10.5974 14.5378C10.5394 14.5218 10.5014 14.4757 10.4593 14.4377C10.3273 14.3196 10.1992 14.1976 10.0651 14.0815C9.57688 13.6593 9.08062 13.2471 8.62439 12.7888C8.40027 12.5627 8.17415 12.3426 7.94803 12.1185Z" fill="#F0AD18"/>
<path d="M13.1633 12.0943C12.6771 11.6641 12.1888 11.2378 11.7086 10.8016C11.3944 10.5155 11.0642 10.2433 10.7701 9.93515C10.6921 9.85311 10.578 9.80908 10.528 9.69703C10.7981 9.46691 11.0422 9.21277 11.2944 8.96464C11.7966 8.46638 12.3049 7.97813 12.8692 7.5479C12.9672 7.47186 13.0773 7.40983 13.1573 7.31378C13.2274 7.28777 13.2794 7.23374 13.3374 7.19172C14.3199 6.47334 15.3605 5.85902 16.5011 5.42279C17.2535 5.13464 18.0259 4.93454 18.8263 4.85049C20.121 4.71242 21.3696 4.87251 22.5543 5.4368C22.6903 5.50083 22.8244 5.57087 22.9745 5.67292C22.8524 5.68293 22.7544 5.69293 22.6563 5.70094C21.8239 5.76897 21.0335 6.0031 20.2691 6.32927C19.1345 6.81552 18.1239 7.49788 17.1994 8.3103C16.9213 8.55443 16.6532 8.80856 16.395 9.0707V9.0727C16.385 9.0747 16.379 9.0787 16.377 9.09071C16.303 9.14274 16.2369 9.20077 16.1869 9.27481L16.1909 9.2708C16.1609 9.28281 16.1329 9.29282 16.1369 9.33484C16.1149 9.35685 16.0669 9.35085 16.0649 9.39887C16.0448 9.40087 16.0348 9.41088 16.0328 9.43089C15.9928 9.43689 15.9668 9.4589 15.9548 9.49692C15.9468 9.50092 15.9388 9.50693 15.9328 9.51293H15.9308C15.8888 9.55495 15.8467 9.59697 15.8067 9.639C15.6646 9.72704 15.5486 9.8471 15.4305 9.96116C14.7262 10.6575 13.9738 11.3059 13.2734 12.0062C13.2474 12.0322 13.2234 12.0603 13.1994 12.0863C13.1894 12.0903 13.1773 12.0923 13.1633 12.0943Z" fill="#D92721"/>
<path d="M7.94815 12.1182C8.17427 12.3423 8.40239 12.5624 8.62451 12.7885C9.07875 13.2467 9.57701 13.659 10.0653 14.0812C10.1993 14.1972 10.3274 14.3173 10.4595 14.4374C10.5015 14.4754 10.5375 14.5214 10.5975 14.5374C10.5295 14.6055 10.4595 14.6755 10.3914 14.7435C10.3714 14.7475 10.3534 14.7535 10.3454 14.7755C10.3274 14.7775 10.3134 14.7855 10.3134 14.8076C10.2694 14.8076 10.2394 14.8316 10.2213 14.8696L10.2193 14.8716C10.2013 14.8716 10.1893 14.8816 10.1893 14.9016L10.1873 14.9036C10.1493 14.9056 10.1213 14.9176 10.1273 14.9636V14.9616C10.1013 14.9596 10.0833 14.9616 10.0933 14.9957L10.0953 14.9937C10.0673 14.9877 10.0453 14.9877 10.0613 15.0277L10.0633 15.0257C10.0012 15.0037 9.98122 15.0417 9.96721 15.0897L9.96921 15.0877C9.90718 15.0777 9.87916 15.1317 9.83914 15.1597C8.96068 15.8321 8.0282 16.4144 7.01367 16.8586C6.19124 17.2188 5.33879 17.481 4.44833 17.601C3.0596 17.7871 1.71089 17.653 0.426223 17.0587C0.276145 16.9887 0.124065 16.9227 0 16.8066C0.70837 16.7786 1.38873 16.6145 2.05307 16.3844C3.41178 15.9141 4.61841 15.1777 5.69498 14.2353C6.47138 13.5549 7.20176 12.8285 7.94815 12.1182Z" fill="#D92722"/>
<path d="M15.8525 14.5174C15.9446 14.5494 15.9966 14.6334 16.0686 14.6914C16.0766 14.6974 16.0846 14.7034 16.0907 14.7115L16.0947 14.7155C16.1067 14.7255 16.1167 14.7335 16.1287 14.7435L16.1247 14.7415C16.1367 14.7515 16.1487 14.7635 16.1587 14.7735L16.1567 14.7715C16.2327 14.8715 16.3128 14.9696 16.4108 15.0476C16.6289 15.3058 16.8531 15.5579 17.0672 15.82C17.7375 16.6445 18.3098 17.5269 18.72 18.5114C18.9942 19.1678 19.1863 19.8481 19.2463 20.5585C19.3564 21.8452 19.1102 23.0518 18.3899 24.1444C18.3839 24.1524 18.3818 24.1644 18.3778 24.1724C18.3278 24.2024 18.3178 24.1784 18.3178 24.1304C18.3118 23.9323 18.2778 23.7382 18.2378 23.5441C18.0737 22.7417 17.7615 21.9953 17.3513 21.2889C16.781 20.3084 16.0506 19.4579 15.2102 18.6995C14.5619 18.1132 13.9095 17.5289 13.2592 16.9446C13.2392 16.9266 13.2232 16.9066 13.2051 16.8886C13.2192 16.8746 13.2332 16.8586 13.2492 16.8466C14.1917 16.1522 15.0101 15.3218 15.8525 14.5174Z" fill="#F0AD18"/>
<path d="M15.8081 9.64129C15.8501 9.59926 15.8921 9.55724 15.9321 9.51522H15.9341C15.9401 9.50922 15.9481 9.50321 15.9561 9.49921C15.9882 9.4832 16.0202 9.46719 16.0342 9.43318C16.0522 9.43118 16.0642 9.42117 16.0662 9.40116C16.1102 9.40116 16.1342 9.37314 16.1522 9.33713C16.1683 9.31712 16.2063 9.31111 16.1923 9.27309L16.1883 9.27709C16.3063 9.25108 16.3744 9.15503 16.4604 9.08499C16.8086 8.83887 17.1488 8.58273 17.509 8.35061C18.5015 7.71028 19.55 7.19 20.6886 6.85983C21.6271 6.58769 22.5836 6.46763 23.5581 6.52966C24.4886 6.58769 25.3711 6.82982 26.1955 7.27405C26.2495 7.30406 26.3076 7.32808 26.3656 7.38811C26.2315 7.39811 26.1115 7.40612 25.9934 7.41612C25.203 7.49016 24.4526 7.70827 23.7242 8.01443C22.4976 8.5307 21.413 9.26909 20.4365 10.1676C19.7962 10.7559 19.1718 11.3602 18.5395 11.9565C18.4975 11.9965 18.4534 12.0305 18.4094 12.0686C18.3834 12.0525 18.3494 12.0405 18.3334 12.0185C18.1893 11.8324 18.0132 11.6784 17.8591 11.5023C17.675 11.2901 17.4549 11.1141 17.2508 10.922C17.0187 10.7058 16.7766 10.5017 16.5405 10.2916C16.2963 10.0775 16.0522 9.8594 15.8081 9.64129Z" fill="#2A256F"/>
<path d="M13.1588 7.31382C13.0767 7.40987 12.9687 7.47391 12.8706 7.54794C12.3083 7.97817 11.798 8.46843 11.2958 8.96468C11.0457 9.21281 10.7995 9.46695 10.5294 9.69707C10.4453 9.67105 10.4053 9.59101 10.3433 9.54299C10.3273 9.52898 10.3133 9.51697 10.2973 9.50297C10.2913 9.49496 10.2853 9.48896 10.2752 9.48296C10.2672 9.47495 10.2592 9.46895 10.2512 9.46094C10.2392 9.45094 10.2292 9.43893 10.2172 9.42893L10.2212 9.43293C10.2172 9.41492 10.2072 9.40291 10.1852 9.40291V9.40091C10.1652 9.3789 10.1432 9.35689 10.1232 9.33488L10.1252 9.33888C10.0771 9.23283 9.9891 9.16279 9.90706 9.08675C9.67293 8.8006 9.4248 8.52846 9.19669 8.2363C8.55035 7.40787 7.99606 6.52541 7.60785 5.5449C7.24366 4.61841 7.05557 3.65991 7.1256 2.66139C7.18763 1.78093 7.42776 0.954499 7.90201 0.204107C7.94203 0.140073 7.98205 0.0720376 8.05809 0C8.06209 0.204107 8.0801 0.380199 8.11012 0.558292C8.23018 1.28467 8.48832 1.96103 8.8325 2.60736C9.31875 3.51984 9.95108 4.32226 10.6775 5.05464C11.1857 5.56891 11.742 6.03515 12.2763 6.52141C12.5664 6.78755 12.8626 7.04968 13.1588 7.31382Z" fill="#20A849"/>
<path d="M69.5307 7.64979C69.4807 7.69181 69.4206 7.67581 69.3666 7.67581C68.0739 7.67981 66.7812 7.68181 65.4886 7.68581C65.4285 7.68581 65.3645 7.6638 65.3105 7.71182C65.2925 7.71383 65.2745 7.71583 65.2565 7.71783C65.2004 7.6618 65.1284 7.68781 65.0643 7.68781C62.6951 7.68581 60.3239 7.68581 57.9546 7.68581C56.5319 7.68581 55.1112 7.68581 53.6884 7.68381C53.6024 7.68381 53.5103 7.70382 53.4303 7.65179C53.5343 7.65179 53.6384 7.65379 53.7424 7.65379C57.7145 7.65379 61.6886 7.65379 65.6607 7.65379C66.8953 7.65379 68.128 7.64779 69.3626 7.64579C69.4166 7.64179 69.4727 7.64579 69.5307 7.64979Z" fill="#6E98B1"/>
<path d="M70.9933 7.65207C70.505 7.65207 70.0168 7.66408 69.5285 7.64807C69.5565 7.63006 69.5866 7.63206 69.6186 7.63006C70.0428 7.62806 70.469 7.62806 70.8932 7.62606C70.9293 7.62806 70.9673 7.61805 70.9933 7.65207Z" fill="#6E98B1"/>
<path d="M53.3994 7.64816C53.2974 7.66416 53.1933 7.63215 53.0893 7.65416C53.1913 7.57612 53.2954 7.62414 53.3994 7.64816Z" fill="#6E98B1"/>
<path d="M51.4266 9.77317C51.4366 9.80119 51.4626 9.80319 51.4846 9.80919C51.4546 9.83921 51.4206 9.85122 51.3785 9.84321C51.3765 9.80519 51.3986 9.78718 51.4266 9.77317Z" fill="#6E98B1"/>
<path d="M58.8051 17.2668C58.8072 17.2468 58.8092 17.2268 58.8112 17.2048C58.8372 17.2088 58.8632 17.2208 58.8612 17.2468C58.8572 17.2788 58.8272 17.2728 58.8051 17.2668Z" fill="#1487A4"/>
<path d="M52.3355 8.62267C52.3275 8.63268 52.3195 8.64068 52.3115 8.65069C52.3115 8.63668 52.3195 8.62667 52.3355 8.62267Z" fill="#1487A4"/>
<path d="M52.305 8.66078C52.303 8.66678 52.299 8.67278 52.293 8.67679V8.66478L52.305 8.66078Z" fill="#1487A4"/>
<path d="M52.2094 8.78047C52.2014 8.78847 52.1954 8.79848 52.1874 8.80648C52.1894 8.79247 52.1974 8.78447 52.2094 8.78047Z" fill="#1487A4"/>
<path d="M52.1789 8.82053L52.1709 8.83253L52.1689 8.82253L52.1789 8.82053Z" fill="#1487A4"/>
<path d="M52.0853 8.94071C52.0813 8.95071 52.0753 8.95872 52.0673 8.96272C52.0733 8.95472 52.0793 8.94871 52.0853 8.94071Z" fill="#1487A4"/>
<path d="M52.0528 8.98077L52.0508 8.98477L52.0448 8.98277L52.0528 8.98077Z" fill="#1487A4"/>
<path d="M51.9916 9.06089C51.9836 9.07089 51.9756 9.0789 51.9676 9.0889C51.9676 9.0729 51.9776 9.06489 51.9916 9.06089Z" fill="#1487A4"/>
<path d="M51.961 9.09899C51.959 9.105 51.955 9.111 51.949 9.115V9.103L51.961 9.09899Z" fill="#1487A4"/>
<path d="M51.8655 9.21869C51.8575 9.22669 51.8515 9.2367 51.8435 9.2447C51.8455 9.23069 51.8535 9.22269 51.8655 9.21869Z" fill="#1487A4"/>
<path d="M51.8349 9.25875L51.8289 9.26875L51.8269 9.26075L51.8349 9.25875Z" fill="#1487A4"/>
<path d="M51.7708 9.34082C51.7628 9.35082 51.7548 9.36083 51.7468 9.37084C51.7468 9.35283 51.7568 9.34282 51.7708 9.34082Z" fill="#1487A4"/>
<path d="M51.7413 9.37697C51.7393 9.38498 51.7333 9.39298 51.7253 9.39698C51.7253 9.38498 51.7313 9.37897 51.7413 9.37697Z" fill="#1487A4"/>
<path d="M53.0822 7.67393C53.0802 7.69194 53.0702 7.70395 53.0521 7.70995C53.0541 7.69394 53.0641 7.67994 53.0822 7.67393Z" fill="#1487A4"/>
<path d="M53.0214 7.74819C53.0134 7.7582 53.0054 7.7662 52.9974 7.7762C52.9994 7.7602 53.0074 7.75219 53.0214 7.74819Z" fill="#1487A4"/>
<path d="M51.7074 9.42485C51.7054 9.44286 51.6954 9.45486 51.6774 9.46087C51.6794 9.44286 51.6894 9.43085 51.7074 9.42485Z" fill="#1487A4"/>
<path d="M52.9919 7.7863C52.9899 7.7943 52.9859 7.8003 52.9779 7.80431C52.9779 7.7923 52.9819 7.7863 52.9919 7.7863Z" fill="#1487A4"/>
<path d="M51.6467 9.49911C51.6386 9.50911 51.6306 9.51711 51.6246 9.52712C51.6246 9.51111 51.6326 9.50111 51.6467 9.49911Z" fill="#1487A4"/>
<path d="M51.6171 9.53721C51.6151 9.54321 51.6111 9.54922 51.6051 9.55322V9.54121L51.6171 9.53721Z" fill="#1487A4"/>
<path d="M52.8973 7.90599C52.8893 7.91399 52.8833 7.924 52.8753 7.932C52.8753 7.91799 52.8833 7.90999 52.8973 7.90599Z" fill="#1487A4"/>
<path d="M52.8677 7.94409L52.8597 7.9581L52.8577 7.9481L52.8677 7.94409Z" fill="#1487A4"/>
<path d="M55.1768 11.2359C55.1708 11.2479 55.1648 11.2599 55.1588 11.2719C55.1548 11.2559 55.1628 11.2439 55.1768 11.2359Z" fill="#1487A4"/>
<path d="M55.1445 11.3277C55.1385 11.3397 55.1325 11.3517 55.1265 11.3657C55.1225 11.3477 55.1305 11.3377 55.1445 11.3277Z" fill="#1487A4"/>
<path d="M54.9588 11.8622C54.9528 11.8742 54.9488 11.8842 54.9428 11.8962C54.9388 11.8802 54.9468 11.8702 54.9588 11.8622Z" fill="#1487A4"/>
<path d="M52.8036 8.02812C52.7955 8.03813 52.7875 8.04813 52.7795 8.05814C52.7795 8.04013 52.7875 8.03212 52.8036 8.02812Z" fill="#1487A4"/>
<path d="M52.7735 8.06427C52.7715 8.07428 52.7654 8.08028 52.7574 8.08428C52.7554 8.07428 52.7615 8.06627 52.7735 8.06427Z" fill="#1487A4"/>
<path d="M52.7373 8.11215C52.7353 8.13016 52.7252 8.14217 52.7072 8.14817C52.7092 8.13016 52.7192 8.11815 52.7373 8.11215Z" fill="#1487A4"/>
<path d="M54.7087 12.5808C54.7027 12.5928 54.6987 12.6028 54.6927 12.6148C54.6887 12.5988 54.6967 12.5888 54.7087 12.5808Z" fill="#1487A4"/>
<path d="M54.3362 13.6512C54.3362 13.6592 54.3342 13.6652 54.3302 13.6732L54.3282 13.6612L54.3362 13.6512Z" fill="#1487A4"/>
<path d="M54.1762 14.1114C54.1702 14.1234 54.1662 14.1334 54.1602 14.1454C54.1562 14.1294 54.1642 14.1194 54.1762 14.1114Z" fill="#1487A4"/>
<path d="M52.6795 8.18641C52.6715 8.19641 52.6635 8.20442 52.6555 8.21442C52.6555 8.19841 52.6635 8.18841 52.6795 8.18641Z" fill="#1487A4"/>
<path d="M52.6479 8.22451C52.6459 8.23252 52.6419 8.23652 52.6359 8.24052L52.6379 8.22852L52.6479 8.22451Z" fill="#1487A4"/>
<path d="M52.5534 8.3442C52.5454 8.35221 52.5394 8.36221 52.5314 8.37022C52.5314 8.35421 52.5394 8.34621 52.5534 8.3442Z" fill="#1487A4"/>
<path d="M52.5238 8.38231L52.5158 8.39432L52.5138 8.38631L52.5238 8.38231Z" fill="#1487A4"/>
<path d="M52.4596 8.46438C52.4516 8.47439 52.4436 8.4844 52.4356 8.4944C52.4356 8.47839 52.4436 8.46839 52.4596 8.46438Z" fill="#1487A4"/>
<path d="M53.8938 14.9219C53.8878 14.9339 53.8818 14.9459 53.8778 14.9579C53.8738 14.9419 53.8818 14.9319 53.8938 14.9219Z" fill="#1487A4"/>
<path d="M52.4295 8.50249C52.4275 8.5125 52.4215 8.5185 52.4135 8.5225C52.4115 8.51049 52.4175 8.50449 52.4295 8.50249Z" fill="#1487A4"/>
<path d="M53.8626 15.0157C53.8566 15.0277 53.8506 15.0397 53.8446 15.0537C53.8406 15.0357 53.8486 15.0237 53.8626 15.0157Z" fill="#1487A4"/>
<path d="M53.676 15.5482C53.6699 15.5602 53.6659 15.5702 53.6599 15.5822C53.6559 15.5682 53.6639 15.5562 53.676 15.5482Z" fill="#1487A4"/>
<path d="M53.4258 16.2683C53.4198 16.2803 53.4158 16.2903 53.4098 16.3023C53.4058 16.2863 53.4138 16.2743 53.4258 16.2683Z" fill="#1487A4"/>
<path d="M53.1757 16.9869C53.1717 16.9989 53.1657 17.0089 53.1597 17.0209C53.1557 17.0049 53.1637 16.9949 53.1757 16.9869Z" fill="#1487A4"/>
<path d="M58.701 17.119C58.695 17.119 58.689 17.119 58.683 17.117L58.695 17.109L58.701 17.119Z" fill="#1487A4"/>
<path d="M58.7364 17.1472C58.7284 17.1392 58.7184 17.1332 58.7104 17.1252C58.7244 17.1272 58.7324 17.1332 58.7364 17.1472Z" fill="#1487A4"/>
<path d="M58.8108 17.205C58.7928 17.203 58.7828 17.193 58.7768 17.1769C58.7928 17.1789 58.8048 17.189 58.8108 17.205Z" fill="#1487A4"/>
<path d="M52.3933 8.55037C52.3913 8.56838 52.3813 8.58038 52.3633 8.58639C52.3653 8.56838 52.3753 8.55637 52.3933 8.55037Z" fill="#1487A4"/>
<path d="M53.0879 17.2409C53.0959 17.2489 53.1059 17.259 53.1139 17.267C53.0939 17.269 53.0819 17.265 53.0879 17.2409Z" fill="#1487A4"/>
<path d="M15.8527 14.5177C15.0103 15.3221 14.1919 16.1526 13.2514 16.8469C13.2354 16.8589 13.2213 16.8749 13.2073 16.889C13.1413 16.911 13.0933 16.961 13.0393 17.001C11.9787 17.7854 10.8501 18.4418 9.59945 18.878C8.63295 19.2162 7.64043 19.4063 6.61389 19.3863C5.64739 19.3662 4.7109 19.1882 3.83044 18.7719C3.69037 18.7059 3.55229 18.6339 3.40021 18.5278C3.50427 18.5158 3.58231 18.5058 3.66035 18.4978C4.39673 18.4298 5.1011 18.2357 5.78946 17.9695C7.10215 17.4613 8.25875 16.7029 9.2993 15.7644C9.51141 15.5723 9.71752 15.3722 9.92362 15.1741C9.94764 15.152 10.0017 15.134 9.96965 15.082L9.96765 15.084C10.0297 15.106 10.0457 15.062 10.0637 15.02L10.0617 15.022C10.0857 15.022 10.0997 15.014 10.0957 14.988L10.0937 14.99C10.1197 14.992 10.1297 14.982 10.1277 14.9559V14.9579C10.1738 14.9639 10.1958 14.9459 10.1878 14.8979L10.1898 14.8959C10.2178 14.9039 10.2278 14.8939 10.2198 14.8659L10.2218 14.8639C10.2778 14.8779 10.2958 14.8399 10.3138 14.8019C10.3318 14.7999 10.3438 14.7899 10.3458 14.7698C10.3619 14.7598 10.3759 14.7478 10.3919 14.7378C10.4599 14.6698 10.5299 14.5998 10.598 14.5317C10.8881 14.2956 11.1483 14.0235 11.4204 13.7653C11.9427 13.2731 12.4609 12.7748 12.9792 12.2785C13.0433 12.2185 13.1033 12.1525 13.1653 12.0884C13.1773 12.0864 13.1913 12.0844 13.2033 12.0844C13.5195 12.3946 13.8577 12.6768 14.1839 12.9749C14.476 13.241 14.7742 13.4992 15.0723 13.7593C15.3024 13.9614 15.5406 14.1555 15.7527 14.3776C15.7907 14.4237 15.8407 14.4557 15.8527 14.5177Z" fill="#2A256F"/>
<path d="M16.1284 14.7437C16.1164 14.7337 16.1064 14.7257 16.0943 14.7157C16.1044 14.7237 16.1164 14.7337 16.1284 14.7437Z" fill="#FBFCFD"/>
<path d="M10.2954 9.50301C10.3114 9.51702 10.3254 9.53103 10.3414 9.54303C10.3254 9.52903 10.3114 9.51502 10.2954 9.50301Z" fill="#FBFCFD"/>
<path d="M10.2173 9.42876C10.2293 9.43876 10.2393 9.45077 10.2513 9.46077C10.2393 9.44877 10.2273 9.43876 10.2173 9.42876Z" fill="#FBFCFD"/>
</svg>
