<svg width="60" height="21" viewBox="0 0 60 21" fill="none" xmlns="http://www.w3.org/2000/svg">
<g clip-path="url(#clip0_2533_4649)">
<path d="M8.88769 20.9734C6.4942 20.7606 4.39939 19.8125 2.80805 18.2217C1.3053 16.7196 0.383208 14.8129 0.0698417 12.5599C-0.0071714 12.0062 -0.0243288 10.7054 0.0376771 10.1213C0.238889 8.22594 0.92895 6.53236 2.09445 5.07345C2.40855 4.68028 3.06121 4.01364 3.437 3.70214C5.42893 2.05097 7.94325 1.24659 10.6647 1.38984C11.9487 1.45743 12.8302 1.61507 13.8168 1.95352C14.5014 2.1884 15.4854 2.68533 15.7889 2.9495L15.8656 3.01623L15.8569 3.76288L15.8482 4.50952L15.5234 4.30961C14.0332 3.39246 12.143 2.90706 10.0665 2.90829C8.30653 2.90933 6.68215 3.38085 5.29915 4.29214C3.87617 5.22976 2.80399 6.55339 2.17633 8.14734C1.32661 10.3052 1.45809 12.9419 2.52153 15.0704C3.73384 17.4968 5.96723 19.0579 8.73816 19.4157C9.55349 19.521 10.7559 19.4731 11.61 19.3012C14.4049 18.7389 16.1587 16.8275 16.5322 13.9365C16.5712 13.6349 16.585 13.2715 16.5874 12.4826L16.5907 11.4307L13.2883 11.4229L9.9859 11.415V9.93036H18.0601L18.0598 11.2683C18.0595 12.777 18.0266 13.5665 17.9377 14.1981C17.6691 16.105 16.959 17.6229 15.7874 18.7945C14.6 19.9818 13.0805 20.6784 11.1305 20.9292C10.6754 20.9877 9.34369 21.014 8.88769 20.9734ZM46.5519 3.25204V0H48.0677V5.49716L47.9367 5.55599C47.6659 5.67763 47.2817 5.93963 46.5906 6.47417C46.5597 6.49805 46.5519 5.84899 46.5519 3.25204ZM44.2627 4.42999V0H45.7785V7.09111L45.5416 7.34291C45.299 7.60081 44.8628 8.11351 44.5115 8.55372C44.4029 8.68984 44.3025 8.81443 44.2884 8.8306C44.2742 8.84676 44.2627 6.86649 44.2627 4.42999Z" fill="#00B14F"/>
<path d="M9.28937 18.6662C7.38583 18.5166 5.78293 17.7818 4.52104 16.4806C4.15043 16.0984 3.93679 15.833 3.65195 15.4008C2.59641 13.7993 2.18596 11.7076 2.54554 9.76258C3.00656 7.26893 4.72754 5.19884 7.13803 4.23851C7.75099 3.99431 8.50733 3.81418 9.22603 3.74125C9.69239 3.69393 10.9448 3.72041 11.4394 3.78805C13.0318 4.00583 14.4534 4.49779 15.5924 5.22528L15.8629 5.39808L15.8631 6.13171C15.8632 6.80031 15.8584 6.86793 15.8088 6.89447C15.7662 6.91726 15.6703 6.87032 15.368 6.67867C14.1749 5.92244 12.9048 5.48067 11.4085 5.30155C10.8383 5.23328 9.6063 5.22451 9.1811 5.28568C6.44685 5.67903 4.49909 7.64587 4.15281 10.3633C4.05855 11.103 4.12266 12.1459 4.30684 12.869C4.71817 14.484 5.71215 15.7972 7.0429 16.4838C7.94589 16.9497 8.73989 17.1382 9.79981 17.1382C11.2839 17.1382 12.4776 16.7162 13.2963 15.902C13.827 15.3743 14.1371 14.7344 14.2077 14.0214L14.2299 13.7971H9.98542V12.2194H15.8013V12.8503C15.8013 13.8235 15.7236 14.4018 15.505 15.0553C15.0619 16.3795 14.1225 17.4307 12.8315 18.0468C11.9919 18.4475 11.0983 18.6424 9.98998 18.6665C9.68972 18.673 9.37444 18.6729 9.28937 18.6662V18.6662ZM51.3988 18.6831C50.1962 18.5764 49.1373 18.0458 48.2334 17.0971C47.5854 16.4169 47.1262 15.6053 46.9264 14.7871C46.8107 14.313 46.7743 14.4056 47.4349 13.4949C47.7572 13.0505 48.03 12.6862 48.0411 12.6852C48.0522 12.6842 48.0704 12.8331 48.0814 13.016C48.1094 13.4788 48.1511 13.7622 48.244 14.1219C48.6567 15.7194 49.8169 16.8738 51.2638 17.1268C51.648 17.1939 52.308 17.1695 52.6767 17.0745C54.0092 16.731 54.8952 15.7239 55.2334 14.1683C55.3151 13.7927 55.3157 12.6893 55.2344 12.3194C55.0687 11.5654 54.7453 10.9291 54.2776 10.4367C53.6093 9.73315 52.7326 9.37332 51.6867 9.37332C50.3445 9.37332 49.3681 9.91783 48.0802 11.3847C46.8211 12.8188 44.73 15.4764 43.6787 16.9787L43.3032 17.5153V15.0191L43.8378 14.2921C44.1319 13.8922 44.6472 13.2101 44.9829 12.7762C45.3186 12.3424 45.7845 11.7369 46.0181 11.4307C47.0917 10.0239 47.7843 9.31807 48.6643 8.73414C50.4796 7.52963 52.8684 7.4993 54.6009 8.65877C56.3688 9.84199 57.2183 12.156 56.7443 14.4972C56.3619 16.3858 55.1524 17.843 53.479 18.4313C53.117 18.5585 52.7009 18.6443 52.2588 18.6829C51.8512 18.7184 51.797 18.7184 51.3986 18.6832L51.3988 18.6831ZM38.7247 16.6704C38.7247 13.3057 38.7181 12.7243 38.6767 12.4458C38.5253 11.4261 38.0545 10.5765 37.3461 10.0448C36.8868 9.7001 36.3716 9.48589 35.7597 9.38521C35.3213 9.31306 34.6664 9.34124 34.2545 9.44996C32.8789 9.81301 31.8899 10.9334 31.5913 12.4669C31.5061 12.9044 31.5134 13.7299 31.6064 14.1683C31.9125 15.6117 32.828 16.6539 34.1153 17.0244C35.2483 17.3505 36.8096 17.1062 37.7739 16.4519L37.9524 16.3308L37.9441 17.1282L37.9358 17.9256L37.6265 18.0874C36.8438 18.4967 35.6171 18.7578 34.7495 18.6999C33.0886 18.5889 31.7519 17.8349 30.8625 16.5073C29.9156 15.0939 29.6736 13.0427 30.2495 11.3128C31.0103 9.02747 33.1436 7.6316 35.577 7.82695C36.8964 7.93288 37.8874 8.37552 38.7568 9.24733C39.5605 10.0532 39.9916 10.9235 40.1983 12.1575C40.2479 12.4535 40.2537 12.8418 40.2635 16.5272L40.2743 20.572H38.7247V16.6704ZM21.3702 16.5736C21.3707 12.4727 21.3837 11.9231 21.4927 11.3883C21.7726 10.0147 22.5874 8.92211 23.7786 8.32318C24.0606 8.1814 24.6467 7.99432 24.9892 7.93673C26.0218 7.76314 27.0951 7.92009 27.8572 8.35613L28.0184 8.44832L27.8908 8.6556C27.8206 8.7696 27.6671 9.06125 27.5496 9.30371C27.4322 9.54617 27.3336 9.74454 27.3305 9.74453C27.3274 9.74453 27.1926 9.69734 27.031 9.63968C26.3394 9.39296 25.7073 9.35297 25.0611 9.51504C24.456 9.66679 23.9047 10.0242 23.5478 10.4963C23.3487 10.7597 23.1185 11.2453 23.017 11.6162L22.9324 11.9255L22.9236 16.2488L22.9149 20.572H21.3698L21.3702 16.5736Z" fill="#00B14F"/>
<path d="M19.1123 16.3105C19.1124 12.052 19.1197 11.7077 19.2237 11.0747C19.5445 9.12367 20.5655 7.53162 22.0896 6.60636C23.5383 5.72681 25.4603 5.42587 27.3103 5.78893C27.9691 5.91824 28.7882 6.23688 29.2931 6.56034L29.4971 6.69103L29.1352 7.04991C28.9361 7.2473 28.7104 7.48302 28.6336 7.57373L28.494 7.73866L28.312 7.64687C27.7042 7.34027 26.6757 7.11491 25.8844 7.11491C23.3957 7.11491 21.4548 8.55982 20.8467 10.8651C20.6379 11.6571 20.6475 11.4114 20.6361 16.2177L20.6257 20.5719H19.1123L19.1123 16.3105ZM51.1617 20.9859C48.8395 20.7743 46.9158 19.6597 45.7337 17.8409C45.5472 17.5539 45.2229 16.9014 45.159 16.6844L45.121 16.5556L45.6588 15.8242L46.1965 15.0927L46.2237 15.1951C46.5718 16.5026 47.335 17.6148 48.4109 18.3823C48.7454 18.621 49.3533 18.9439 49.7561 19.0968C50.767 19.4808 51.8874 19.5732 52.9785 19.3627C53.6883 19.2257 54.5312 18.8649 55.1215 18.4455C55.4845 18.1876 56.1576 17.5195 56.4025 17.1742C57.0013 16.3297 57.3954 15.3259 57.5541 14.241C57.6269 13.7438 57.6275 12.7407 57.5554 12.2484C57.3038 10.5308 56.5219 9.14879 55.2607 8.19231C54.1992 7.3873 52.7038 6.9696 51.2772 7.07963C49.1173 7.24624 47.6289 8.22866 45.4878 10.9011C45.2682 11.1752 44.692 11.9285 44.2074 12.5751C43.7228 13.2216 43.3213 13.7564 43.3152 13.7635C43.3091 13.7706 43.304 13.2691 43.304 12.6491V11.5219L43.8228 10.7956C44.9223 9.25603 45.3981 8.66775 46.1491 7.91924C46.9312 7.13973 47.557 6.67801 48.393 6.26373C49.0953 5.91565 49.7705 5.70634 50.6049 5.57804C51.1054 5.50107 52.3316 5.50107 52.8322 5.57804C54.5375 5.84027 55.8945 6.53147 57.0395 7.72106C58.1608 8.88607 58.8322 10.3314 59.086 12.1265C59.1417 12.5207 59.1419 13.958 59.0863 14.3539C58.9058 15.6377 58.4895 16.7895 57.8621 17.7413C56.6974 19.5079 55.0009 20.5996 52.9096 20.9282C52.6105 20.9752 51.4607 21.0131 51.1618 20.9859H51.1617ZM34.3636 20.9697C31.0111 20.6627 28.4231 18.3063 27.7772 14.9726C27.6549 14.3413 27.6351 14.1043 27.6351 13.2711C27.6351 12.2507 27.7039 11.7238 27.9461 10.8885C28.5801 8.70191 30.1908 6.88961 32.2445 6.05206C33.2255 5.65199 34.0771 5.49103 35.1989 5.49368C36.2868 5.49626 37.0884 5.63726 37.9986 5.9862C38.9699 6.3586 39.7545 6.87596 40.4914 7.62998C41.5631 8.72673 42.2013 10.0468 42.4774 11.7377C42.542 12.1338 42.5436 12.2267 42.5537 16.357L42.5641 20.5719H41.0148L41.0145 16.6972C41.0142 14.2916 41.002 12.6818 40.9822 12.4513C40.8503 10.9218 40.227 9.57334 39.2044 8.60552C38.0571 7.5197 36.3762 6.94687 34.7271 7.0797C31.894 7.3079 29.7884 9.25055 29.2904 12.0956C29.1515 12.8895 29.1758 13.9485 29.3533 14.8266C29.4812 15.4599 29.8049 16.2937 30.1242 16.8125C30.7917 17.897 31.7747 18.6889 32.9814 19.1144C34.0151 19.4788 35.1987 19.571 36.2064 19.3656C36.7821 19.2482 37.4672 18.9846 37.8107 18.7483L37.9522 18.651V20.1875L37.7743 20.3048C37.268 20.6387 36.5235 20.8832 35.7403 20.9727C35.4168 21.0097 34.7851 21.0083 34.3636 20.9697Z" fill="#00B14F"/>
</g>
<defs>
<clipPath id="clip0_2533_4649">
<rect width="59.1279" height="21" fill="white"/>
</clipPath>
</defs>
</svg>
