<svg width="114" height="98" viewBox="0 0 114 98" fill="none" xmlns="http://www.w3.org/2000/svg">
<path d="M71.1044 2.7149L31.1098 25.95L41.4571 31.9545V31.6771L50.2151 37.0454L60.6598 43.1152L71.1044 49.185H71.1206L111.115 25.95L71.1044 2.7149ZM42.1221 31.873L81.3382 9.09476L62.7214 19.9081L42.1221 31.873Z" fill="#663BA5"/>
<path d="M41.892 31.4138L50.6499 36.7821L41.892 31.6912V31.4138Z" fill="#663BA5"/>
<path d="M71.5395 48.9217V95.3918L31.5449 72.1567V25.6866L41.8923 31.6912V77.8839L61.6301 89.3056V43.5208L50.6502 36.782L71.5395 48.9217Z" fill="#663BA5"/>
<path d="M61.6298 43.5208V89.3057L41.892 77.8839V31.6912L50.6499 36.782L61.6298 43.5208Z" fill="#663BA5"/>
<path d="M111.55 25.6866V72.1567L71.5396 95.3918V48.9217H71.572L111.55 25.6866Z" fill="#663BA5"/>
<path d="M71.5723 51.3692C71.1507 51.3692 70.7128 51.255 70.3397 51.0429L30.3289 27.8078C29.5828 27.3673 29.1125 26.5678 29.1125 25.6867C29.1125 24.8056 29.5828 24.006 30.3289 23.5655L70.3397 0.330414C71.0858 -0.110138 72.0264 -0.110138 72.7725 0.330414L112.783 23.5655C113.529 24.006 114 24.8056 114 25.6867C114 26.5678 113.529 27.3673 112.783 27.8078L72.7887 51.0429C72.4157 51.255 71.994 51.3692 71.5723 51.3692ZM36.4108 25.6867L71.5561 46.0989L106.685 25.6867L71.5561 5.27439L36.4108 25.6867Z" fill="#F3EBFF"/>
<path d="M71.5561 97.8394C71.1344 97.8394 70.7128 97.7252 70.3397 97.513L30.3289 74.278C29.5828 73.8374 29.1125 73.0379 29.1125 72.1568V25.6867C29.1125 24.8056 29.5828 24.006 30.3289 23.5655C31.0749 23.1249 32.0156 23.1249 32.7617 23.5655L72.7563 46.8006C73.5023 47.2411 73.9727 48.0406 73.9727 48.9217V95.3919C73.9727 96.273 73.5023 97.0725 72.7563 97.513C72.3833 97.7252 71.9616 97.8394 71.5561 97.8394ZM33.978 70.7372L69.1071 91.1495V50.3413L33.978 29.929V70.7372Z" fill="#F3EBFF"/>
<path d="M71.5556 97.8394C71.1339 97.8394 70.7123 97.7252 70.3392 97.513C69.5932 97.0725 69.1229 96.273 69.1229 95.3919V48.9217C69.1229 47.9427 69.6905 47.0943 70.5176 46.7027L110.35 23.5655C111.096 23.1249 112.037 23.1249 112.783 23.5655C113.529 24.006 113.999 24.8056 113.999 25.6867V72.1568C113.999 73.0379 113.529 73.8374 112.783 74.278L72.772 97.513C72.3828 97.7252 71.9611 97.8394 71.5556 97.8394ZM73.9884 50.3413V91.1495L109.134 70.7372V29.929L73.9884 50.3413Z" fill="#F3EBFF"/>
<path d="M31.3182 38.8868H15.0025C13.6564 38.8868 12.5698 37.7936 12.5698 36.4393C12.5698 35.085 13.6564 33.9918 15.0025 33.9918H31.3182C32.6644 33.9918 33.751 35.085 33.751 36.4393C33.751 37.7936 32.6644 38.8868 31.3182 38.8868Z" fill="#663BA5"/>
<path d="M31.3178 49.3297H2.43276C1.08663 49.3297 0 48.2365 0 46.8822C0 45.5279 1.08663 44.4347 2.43276 44.4347H31.3178C32.6639 44.4347 33.7505 45.5279 33.7505 46.8822C33.7505 48.2365 32.6639 49.3297 31.3178 49.3297Z" fill="#663BA5"/>
<path d="M31.318 59.7723H13.4453C12.0991 59.7723 11.0125 58.6791 11.0125 57.3248C11.0125 55.9705 12.0991 54.8773 13.4453 54.8773H31.318C32.6641 54.8773 33.7507 55.9705 33.7507 57.3248C33.7507 58.6628 32.6641 59.7723 31.318 59.7723Z" fill="#663BA5"/>
<path d="M31.318 70.1987H13.4453C12.0991 70.1987 11.0125 69.1055 11.0125 67.7512C11.0125 66.3969 12.0991 65.3037 13.4453 65.3037H31.318C32.6641 65.3037 33.7507 66.3969 33.7507 67.7512C33.7507 69.1055 32.6641 70.1987 31.318 70.1987Z" fill="#663BA5"/>
<path d="M31.3181 28.4606H8.45009C7.10397 28.4606 6.01733 27.3674 6.01733 26.0131C6.01733 24.6588 7.10397 23.5656 8.45009 23.5656H31.3181C32.6642 23.5656 33.7508 24.6588 33.7508 26.0131C33.7508 27.3674 32.6642 28.4606 31.3181 28.4606Z" fill="#663BA5"/>
</svg>
