<svg width="22" height="22" viewBox="0 0 22 22" fill="none" xmlns="http://www.w3.org/2000/svg">
<path d="M14.9525 3.18747L14.952 3.18763L6.67546 5.93731C6.67533 5.93736 6.67519 5.9374 6.67506 5.93745C5.31621 6.39192 4.33615 6.90597 3.70564 7.42729C3.07336 7.95006 2.84375 8.43373 2.84375 8.8399C2.84375 9.24593 3.07322 9.72894 3.70526 10.2505C4.33563 10.7706 5.31559 11.283 6.67446 11.7353L14.9525 3.18747ZM14.9525 3.18747C16.7317 2.59439 17.9254 2.84136 18.5438 3.4606C19.1627 4.08035 19.4093 5.27692 18.8208 7.05614C18.8207 7.0564 18.8206 7.05665 18.8205 7.0569L16.0618 15.324L16.0616 15.3244C15.6094 16.6833 15.0965 17.6633 14.5756 18.2937C14.0535 18.9257 13.5696 19.1554 13.1627 19.1554C12.7558 19.1554 12.2719 18.9257 11.7498 18.2937C11.229 17.6633 10.716 16.6833 10.2638 15.3244L9.44806 12.868L9.36905 12.6301L9.13112 12.5511L6.67475 11.7354L14.9525 3.18747ZM11.9579 11.5L11.9589 11.4991L15.4413 7.99835C15.4414 7.99821 15.4415 7.99807 15.4417 7.99793C15.9024 7.53679 15.9022 6.78053 15.4413 6.31958C14.9802 5.85848 14.2236 5.85848 13.7625 6.31957L13.7616 6.3205L10.2792 9.82124C10.279 9.82138 10.2789 9.82152 10.2787 9.82167C9.81806 10.2828 9.8182 11.0391 10.2792 11.5C10.5154 11.7362 10.8189 11.8481 11.1185 11.8481C11.4182 11.8481 11.7217 11.7362 11.9579 11.5Z" fill="white" stroke="white"/>
</svg>
