<svg width="31" height="31" viewBox="0 0 31 31" fill="none" xmlns="http://www.w3.org/2000/svg">
<path d="M15.2641 16.6119L15.2626 16.611L3.85874 10.0115C3.85853 10.0114 3.85832 10.0113 3.85811 10.0111C3.63668 9.88151 3.56195 9.59869 3.69254 9.37482C3.82087 9.15482 4.0923 9.07522 4.33283 9.21073L15.2453 15.5257L15.4993 15.6728L15.7534 15.5258L26.6033 9.24831L26.6049 9.2474C26.82 9.12191 27.1085 9.19531 27.2431 9.41629C27.3664 9.63114 27.2927 9.91772 27.0727 10.0517L15.7706 16.5985C15.6476 16.6532 15.5617 16.6719 15.4993 16.6719C15.4108 16.6719 15.333 16.652 15.2641 16.6119Z" fill="black" stroke="black"/>
<path d="M15.5003 28.8814C14.9707 28.8814 14.5315 28.4422 14.5315 27.9127L14.5315 16.1973C14.5315 15.6677 14.9707 15.2285 15.5003 15.2285C16.0299 15.2285 16.469 15.6677 16.469 16.1973L16.469 27.9127C16.469 28.4422 16.0299 28.8814 15.5003 28.8814Z" fill="black"/>
<path d="M15.4999 29.3852C14.3632 29.3852 13.2394 29.1397 12.3482 28.6489L5.45072 24.8127C3.57781 23.7794 2.11825 21.2865 2.11825 19.1423L2.11825 11.8444C2.11825 9.70022 3.57781 7.22029 5.45072 6.17404L12.3482 2.3507C14.1178 1.36903 16.8819 1.36903 18.6515 2.3507L25.549 6.18689C27.4219 7.22023 28.8815 9.71315 28.8815 11.8573L28.8815 19.1552C28.8815 21.2994 27.4219 23.7793 25.549 24.8256L18.6515 28.6489C17.7603 29.1397 16.6365 29.3852 15.4999 29.3852ZM15.4999 3.55193C14.6861 3.55193 13.8853 3.71986 13.2911 4.04277L6.39365 7.87897C5.15366 8.57647 4.05575 10.4236 4.05575 11.8573L4.05575 19.1552C4.05575 20.5761 5.15366 22.436 6.39365 23.1335L13.2911 26.9698C14.4665 27.6285 16.5332 27.6285 17.7086 26.9698L24.6061 23.1335C25.8461 22.436 26.944 20.589 26.944 19.1552L26.944 11.8573C26.944 10.4365 25.8461 8.57647 24.6061 7.87897L17.7086 4.04277C17.1144 3.71986 16.3136 3.55193 15.4999 3.55193Z" fill="black"/>
<path d="M21.9586 18.0702C21.429 18.0702 20.9898 17.6311 20.9898 17.1015V12.9424L9.20988 6.14822C8.74488 5.87697 8.58985 5.28278 8.8611 4.8307C9.13235 4.3657 9.71362 4.21068 10.1786 4.48193L22.4365 11.5603C22.7336 11.7282 22.9273 12.0511 22.9273 12.3998V17.1273C22.9273 17.6311 22.4882 18.0702 21.9586 18.0702Z" fill="black"/>
</svg>
