<svg width="207" height="207" viewBox="0 0 207 207" fill="none" xmlns="http://www.w3.org/2000/svg">
<path opacity="0.5" fill-rule="evenodd" clip-rule="evenodd" d="M97.8583 0.000359383C120.034 0.0622895 139.459 12.3723 157.875 24.7565C177.005 37.6207 199.647 50.1647 205.62 72.4672C211.528 94.5233 197.114 116.011 187.911 136.901C179.696 155.548 171.355 174.316 155.263 186.776C138.841 199.491 118.47 209.024 97.8583 206.63C78.1248 204.338 65.6825 185.839 49.369 174.475C32.5654 162.769 6.67538 158.828 0.962889 139.13C-4.75986 119.397 16.6326 102.718 22.8832 83.1469C29.1763 63.4423 23.7581 39.769 37.598 24.4206C52.4914 7.90406 75.649 -0.0616651 97.8583 0.000359383Z" fill="#AFCFFF"/>
</svg>
