<svg width="31" height="31" viewBox="0 0 31 31" fill="none" xmlns="http://www.w3.org/2000/svg">
<path d="M15.4998 17.7957C13.0279 17.7957 11.0084 15.7874 11.0084 13.3043C11.0084 10.8228 13.0262 8.82572 15.4998 8.82572C17.9718 8.82572 19.9913 10.834 19.9913 13.3172C19.9913 15.7986 17.9735 17.7957 15.4998 17.7957ZM15.4998 9.74867C13.5419 9.74867 11.9313 11.3436 11.9313 13.3172C11.9313 15.2894 13.5276 16.8857 15.4998 16.8857C17.4721 16.8857 19.0683 15.2894 19.0683 13.3172C19.0683 11.3436 17.4578 9.74867 15.4998 9.74867Z" fill="black" stroke="black"/>
<path d="M15.4999 29.3981C13.5882 29.3981 11.6636 28.6748 10.1653 27.241C6.3549 23.5727 2.14408 17.7215 3.73282 10.7594C5.16657 4.44319 10.682 1.61445 15.4999 1.61445C15.4999 1.61445 15.4999 1.61445 15.5128 1.61445C20.3307 1.61445 25.8461 4.44319 27.2798 10.7723C28.8557 17.7344 24.6448 23.5727 20.8344 27.241C19.3361 28.6748 17.4115 29.3981 15.4999 29.3981ZM15.4999 3.55194C11.7411 3.55194 6.91031 5.55402 5.63156 11.1857C4.23657 17.2694 8.05989 22.5135 11.5215 25.8331C13.7561 27.9902 17.2565 27.9902 19.4911 25.8331C22.9398 22.5135 26.7632 17.2694 25.394 11.1857C24.1023 5.55402 19.2586 3.55194 15.4999 3.55194Z" fill="black"/>
</svg>
