<svg width="208" height="208" viewBox="0 0 208 208" fill="none" xmlns="http://www.w3.org/2000/svg">
<path fill-rule="evenodd" clip-rule="evenodd" d="M98.3583 0.500359C120.534 0.56229 139.959 12.8723 158.375 25.2565C177.505 38.1207 200.147 50.6647 206.12 72.9672C212.028 95.0233 197.614 116.511 188.411 137.401C180.196 156.048 171.855 174.816 155.763 187.276C139.341 199.991 118.97 209.524 98.3583 207.13C78.6248 204.838 66.1825 186.339 49.869 174.975C33.0654 163.269 7.17538 159.328 1.46289 139.63C-4.25986 119.897 17.1326 103.218 23.3832 83.6469C29.6763 63.9423 24.2581 40.269 38.098 24.9206C52.9914 8.40406 76.149 0.438335 98.3583 0.500359Z" stroke="#1E2537" stroke-opacity="0.51"/>
</svg>
