<svg width="66" height="21" viewBox="0 0 66 21" fill="none" xmlns="http://www.w3.org/2000/svg">
<path d="M54.9549 7.13605L57.6847 10.1494L60.3129 7.13605H65.9248L60.4403 13.3134L65.9999 19.5412H60.1616L57.4574 16.504L54.7779 19.5412H49.1404L54.6514 13.3391L49.1404 7.13605H54.9549Z" fill="#FF5900"/>
<path d="M49.1402 7.1359V11.3273H42.8985V15.1734H49.1402V19.5411H38.3114V0H49.1402V4.35573H42.8985V7.1359H49.1402Z" fill="#FF5900"/>
<path d="M33.7438 0V7.99713H33.6934C32.6814 6.83291 31.4182 6.428 29.9525 6.428C26.9494 6.428 24.6871 8.47365 23.8932 11.1767C22.9866 8.19821 20.6509 6.372 17.1877 6.372C14.3753 6.372 12.1542 7.63629 10.9956 9.69663V7.1359H5.18198V4.35573H11.5263V0H0V19.5411H5.18198V11.3273H10.3475C10.1935 11.9305 10.111 12.5769 10.111 13.2591C10.111 17.3348 13.2203 20.1957 17.1877 20.1957C20.5244 20.1957 22.7235 18.6266 23.8859 15.7666H19.4446C18.8442 16.6269 18.3886 16.8812 17.1877 16.8812C15.7953 16.8812 14.5944 15.6646 14.5944 14.2222H23.6375C24.0298 17.4596 26.5479 20.2517 30.0029 20.2517C31.4934 20.2517 32.8583 19.5172 33.6925 18.2777H33.7429V19.5429H38.3107V0H33.7438ZM14.7393 11.3851C15.0271 10.1438 15.9887 9.33304 17.1886 9.33304C18.5096 9.33304 19.4217 10.119 19.6618 11.3851C19.7627 11.3851 14.7393 11.3851 14.7393 11.3851ZM30.9709 16.5663C29.287 16.5663 28.2401 14.9944 28.2401 13.3536C28.2401 11.6 29.1504 9.91332 30.9709 9.91332C32.8583 9.91332 33.61 11.6 33.61 13.3536C33.61 15.0164 32.8134 16.5663 30.9709 16.5663Z" fill="#2A007C"/>
</svg>
