<svg width="91" height="24" viewBox="0 0 91 24" fill="none" xmlns="http://www.w3.org/2000/svg">
<g clip-path="url(#clip0_0_131)">
<path opacity="0.981" fill-rule="evenodd" clip-rule="evenodd" d="M12.0421 -0.0419922C12.0981 -0.0419922 12.154 -0.0419922 12.2099 -0.0419922C16.6945 2.55039 21.198 5.12381 25.7204 7.67829C25.483 7.90139 25.2313 8.11118 24.9652 8.30766C23.2144 9.51286 21.4522 10.7017 19.6785 11.8741C15.1612 9.23787 10.6576 6.58056 6.16797 3.90206C8.13151 2.58543 10.0895 1.27075 12.0421 -0.0419922Z" fill="#ED8888"/>
<path opacity="0.977" fill-rule="evenodd" clip-rule="evenodd" d="M33.2725 3.73425C35.5384 3.72027 37.8041 3.73425 40.0697 3.7762C41.6339 3.71265 42.9346 4.2581 43.9718 5.41257C44.7997 6.7751 44.9955 8.22965 44.5592 9.7762C43.8744 11.6055 42.5458 12.5705 40.5732 12.6713C38.8112 12.7133 37.0489 12.7273 35.2864 12.7133C35.2864 14.7552 35.2864 16.7972 35.2864 18.8391C34.6151 18.8391 33.9438 18.8391 33.2725 18.8391C33.2725 13.8042 33.2725 8.76921 33.2725 3.73425ZM35.2864 5.5804C36.909 5.56642 38.5315 5.5804 40.1536 5.62236C41.7566 5.74296 42.5958 6.6101 42.6711 8.22376C42.5541 9.73937 41.743 10.6065 40.2375 10.8252C38.5874 10.8671 36.937 10.8811 35.2864 10.8671C35.2864 9.10488 35.2864 7.34264 35.2864 5.5804Z" fill="#E95F61"/>
<path opacity="0.914" fill-rule="evenodd" clip-rule="evenodd" d="M48.042 3.73438C48.6854 3.73438 49.3287 3.73438 49.9721 3.73438C49.9721 4.48962 49.9721 5.24486 49.9721 6.00011C49.3287 6.00011 48.6854 6.00011 48.042 6.00011C48.042 5.24486 48.042 4.48962 48.042 3.73438Z" fill="#E95F61"/>
<path opacity="0.961" fill-rule="evenodd" clip-rule="evenodd" d="M65.3291 3.73438C65.9725 3.73438 66.6158 3.73438 67.2592 3.73438C67.2452 6.53172 67.2592 9.32889 67.3011 12.126C68.6857 10.7414 70.0704 9.35675 71.455 7.97214C72.2941 7.91619 73.1333 7.91619 73.9725 7.97214C72.618 9.33401 71.2474 10.6767 69.8606 12.0001C71.3875 14.2404 72.898 16.4921 74.392 18.7554C73.6103 18.8531 72.8271 18.8671 72.0424 18.7973C70.8535 16.9931 69.6648 15.1889 68.476 13.3847C68.0591 13.7175 67.6675 14.0811 67.3011 14.4756C67.2592 15.9299 67.2452 17.3844 67.2592 18.8393C66.6158 18.8393 65.9725 18.8393 65.3291 18.8393C65.3291 13.8043 65.3291 8.76934 65.3291 3.73438Z" fill="#E95F61"/>
<path opacity="0.98" fill-rule="evenodd" clip-rule="evenodd" d="M-0.0419922 8.09793C-0.0419922 8.04199 -0.0419922 7.98605 -0.0419922 7.9301C1.80176 6.70018 3.64792 5.46942 5.49647 4.23779C9.98825 6.88899 14.4638 9.56034 18.923 12.2518C17.1691 13.5434 15.3789 14.7881 13.5524 15.986C9.01868 13.3557 4.48717 10.7264 -0.0419922 8.09793Z" fill="#E95F61"/>
<path opacity="0.956" fill-rule="evenodd" clip-rule="evenodd" d="M57.2727 7.6784C58.8005 7.44923 60.1711 7.79888 61.3846 8.72736C62.0584 9.41765 62.45 10.2428 62.5594 11.2029C61.9978 11.2685 61.4384 11.3524 60.8811 11.4546C60.8251 11.4267 60.7692 11.3987 60.7133 11.3707C60.2161 9.65362 59.0973 8.99631 57.3566 9.39868C56.1763 9.85191 55.491 10.7051 55.3007 11.9581C55.0152 13.4425 55.183 14.8691 55.8042 16.2378C56.879 17.5662 58.1797 17.8318 59.7063 17.035C60.3667 16.4718 60.7582 15.7585 60.8811 14.8952C60.979 14.8672 61.0769 14.8392 61.1748 14.8113C61.689 14.9027 62.2065 14.9587 62.7272 14.9791C62.5139 17.0249 61.423 18.3535 59.4545 18.9651C57.3456 19.4462 55.5973 18.8728 54.2098 17.2448C53.4737 16.0213 53.1241 14.6926 53.1608 13.2588C53.1982 12.0321 53.4919 10.8712 54.0419 9.77631C54.8234 8.62322 55.9004 7.92393 57.2727 7.6784Z" fill="#E95F61"/>
<path opacity="0.973" fill-rule="evenodd" clip-rule="evenodd" d="M80.2658 7.67813C81.1364 7.56719 81.9476 7.73503 82.6993 8.18163C82.7273 8.23757 82.7553 8.29351 82.7832 8.34946C82.6081 8.93133 82.3843 9.4908 82.1119 10.0278C80.7603 9.27791 79.7393 9.58563 79.049 10.9509C78.9385 11.3369 78.8545 11.7284 78.7972 12.1257C78.7553 14.3633 78.7413 16.601 78.7553 18.839C78.1119 18.839 77.4686 18.839 76.8252 18.839C76.8252 15.2026 76.8252 11.5662 76.8252 7.92988C77.3847 7.92988 77.944 7.92988 78.5035 7.92988C78.4896 8.40619 78.5036 8.88174 78.5455 9.35645C78.9455 8.60658 79.5189 8.04717 80.2658 7.67813Z" fill="#E95F61"/>
<path opacity="0.97" fill-rule="evenodd" clip-rule="evenodd" d="M90.5872 8.0977C90.5872 8.43336 90.5872 8.76903 90.5872 9.10469C90.4437 9.3942 90.332 9.70192 90.2515 10.0278C88.2954 9.19499 87.1625 9.83837 86.8529 11.9578C86.8109 14.2513 86.7967 16.5451 86.8109 18.839C86.1673 18.839 85.5245 18.839 84.8809 18.839C84.8809 15.2026 84.8809 11.5662 84.8809 7.92987C85.4406 7.92987 85.9995 7.92987 86.5592 7.92987C86.5449 8.40617 86.5592 8.88173 86.6011 9.35644C87.5066 7.61421 88.835 7.19463 90.5872 8.0977Z" fill="#E95F61"/>
<path opacity="0.966" fill-rule="evenodd" clip-rule="evenodd" d="M48.042 7.93018C48.6854 7.93018 49.3287 7.93018 49.9721 7.93018C49.9721 11.5665 49.9721 15.2029 49.9721 18.8393C49.3287 18.8393 48.6854 18.8393 48.042 18.8393C48.042 15.2029 48.042 11.5665 48.042 7.93018Z" fill="#E95F61"/>
<path opacity="0.972" fill-rule="evenodd" clip-rule="evenodd" d="M25.636 8.26562C25.7337 10.6849 25.7477 13.1185 25.678 15.5663C23.7968 14.4369 21.9087 13.318 20.0137 12.2097C21.8661 10.8602 23.7402 9.54551 25.636 8.26562Z" fill="#82C7D8"/>
<path opacity="0.972" fill-rule="evenodd" clip-rule="evenodd" d="M-0.0419922 8.68555C1.87176 9.71218 3.74589 10.8031 5.58039 11.9583C3.74456 13.2534 1.87044 14.4841 -0.0419922 15.6506C-0.0419922 13.3289 -0.0419922 11.0073 -0.0419922 8.68555Z" fill="#80C9D9"/>
<path opacity="0.981" fill-rule="evenodd" clip-rule="evenodd" d="M14.056 23.9583C13.7483 23.9583 13.4406 23.9583 13.1329 23.9583C8.77455 21.4431 4.4109 18.9256 0.0419922 16.4058C2.01702 15.0052 4.01701 13.6346 6.04199 12.2939C10.6223 14.9267 15.1957 17.5701 19.7623 20.224C17.8455 21.4572 15.9433 22.7021 14.056 23.9583Z" fill="#56B9CD"/>
<path opacity="0.973" fill-rule="evenodd" clip-rule="evenodd" d="M19.4263 12.5454C21.5323 13.7689 23.6302 15.0136 25.72 16.2797C23.9307 17.5381 22.1125 18.7549 20.2655 19.93C18.165 18.7684 16.0952 17.5655 14.0557 16.3216C15.8474 15.0608 17.6376 13.8021 19.4263 12.5454Z" fill="#80C9D9"/>
</g>
<defs>
<clipPath id="clip0_0_131">
<rect width="90.6294" height="24" fill="white"/>
</clipPath>
</defs>
</svg>
