<svg width="80" height="80" viewBox="0 0 80 80" fill="none" xmlns="http://www.w3.org/2000/svg">
<path d="M68.2842 11.7158C60.7292 4.16078 50.6844 0 40 0C29.3155 0 19.2706 4.16078 11.7156 11.7158C4.16078 19.2708 0 29.3156 0 40C0 50.6845 4.16078 60.7294 11.7156 68.2845C19.2706 75.8394 29.3155 80 40 80C50.6844 80 60.7292 75.8394 68.2842 68.2845C75.8392 60.7294 80 50.6845 80 40C80 29.3156 75.8392 19.2708 68.2842 11.7158ZM60.4853 29.4859L36.1423 53.8288C35.6847 54.2864 35.0848 54.5153 34.4852 54.5153C33.8853 54.5153 33.2855 54.2864 32.8278 53.8288L19.5145 40.5158C18.5992 39.6006 18.5992 38.1164 19.5144 37.2012C20.4297 36.2859 21.9136 36.2859 22.8291 37.2012L34.4852 48.857L57.1708 26.1714C58.0861 25.2561 59.57 25.2561 60.4853 26.1714C61.4008 27.0867 61.4008 28.5706 60.4853 29.4859Z" fill="#663BA5"/>
</svg>
