<svg width="22" height="22" viewBox="0 0 22 22" fill="none" xmlns="http://www.w3.org/2000/svg">
<path d="M10.9996 12.9892C9.04715 12.9892 7.45215 11.4033 7.45215 9.44165C7.45215 7.47999 9.04715 5.90332 10.9996 5.90332C12.9521 5.90332 14.5471 7.48915 14.5471 9.45082C14.5471 11.4125 12.9521 12.9892 10.9996 12.9892ZM10.9996 7.27832C9.80798 7.27832 8.82715 8.24999 8.82715 9.45082C8.82715 10.6517 9.79882 11.6233 10.9996 11.6233C12.2005 11.6233 13.1721 10.6517 13.1721 9.45082C13.1721 8.24999 12.1913 7.27832 10.9996 7.27832Z" fill="black"/>
<path d="M10.9996 20.863C9.64288 20.863 8.27705 20.3497 7.21372 19.3322C4.50955 16.7288 1.52122 12.5763 2.64872 7.63551C3.66622 3.15301 7.58038 1.14551 10.9996 1.14551C10.9996 1.14551 10.9996 1.14551 11.0087 1.14551C14.4279 1.14551 18.3421 3.15301 19.3596 7.64467C20.4779 12.5855 17.4896 16.7288 14.7854 19.3322C13.7221 20.3497 12.3562 20.863 10.9996 20.863ZM10.9996 2.52051C8.33205 2.52051 4.90372 3.94134 3.99622 7.93801C3.00622 12.2555 5.71955 15.9772 8.17622 18.333C9.76205 19.8638 12.2462 19.8638 13.8321 18.333C16.2796 15.9772 18.9929 12.2555 18.0212 7.93801C17.1046 3.94134 13.6671 2.52051 10.9996 2.52051Z" fill="black"/>
</svg>
