<svg width="80" height="80" viewBox="0 0 80 80" fill="none" xmlns="http://www.w3.org/2000/svg">
<g clip-path="url(#clip0_2438_4551)">
<path d="M17.3846 11.0845L2.95223 18.7443C2.70504 18.8738 2.4716 19.0213 2.25098 19.1828L39.1558 38.427L54.6097 30.7832L17.3846 11.0845Z" fill="#663BA5"/>
<path d="M79.9924 23.4565L61.5294 32.5884V42.8764C61.5294 44.1703 60.4804 45.2194 59.1865 45.2194C57.8926 45.2194 56.8435 44.1703 56.8435 42.8764V34.9062L41.4707 42.5098V79.7434C41.5188 79.7211 41.5676 79.7005 41.6152 79.6767L76.9562 61.7697C78.8337 60.8309 79.9996 58.9447 79.9996 56.8448V23.6636C79.9996 23.594 79.9949 23.5254 79.9924 23.4565Z" fill="#663BA5"/>
<path d="M76.9566 18.7384L41.6302 0.838857L41.6155 0.831513C40.0425 0.048388 38.1734 0.065888 36.6152 0.878388L22.3867 8.42979L59.7883 28.2218L77.8414 19.2926C77.5673 19.0839 77.2731 18.8965 76.9566 18.7384Z" fill="#663BA5"/>
<path d="M0.0110938 23.2993C0.00484375 23.4067 0 23.5142 0 23.6226V56.8853C0 58.9418 1.13125 60.8099 2.9525 61.7635L36.6002 79.6217L36.6153 79.6296C36.6712 79.6588 36.7284 79.6846 36.7852 79.7117V42.4753L0.0110938 23.2993Z" fill="#663BA5"/>
</g>
<defs>
<clipPath id="clip0_2438_4551">
<rect width="80" height="80" fill="white"/>
</clipPath>
</defs>
</svg>
