<svg width="18" height="18" viewBox="0 0 18 18" fill="none" xmlns="http://www.w3.org/2000/svg">
<path d="M9.11966 8.75478L9.11918 8.75506C9.05308 8.79344 8.96026 8.79782 8.87829 8.75268L3.10787 5.41033C3.10777 5.41027 3.10766 5.41021 3.10755 5.41015C2.96395 5.32634 2.95456 5.14828 3.03306 5.06044L3.03596 5.05717C3.21762 4.85044 3.41761 4.68921 3.61929 4.57972L3.6193 4.57974L3.62307 4.57765L7.68802 2.32768L7.68802 2.32769L7.69042 2.32635C8.02793 2.13722 8.5038 2.02785 9.00829 2.02785C9.51277 2.02785 9.98864 2.13722 10.3262 2.32635L10.3262 2.32635L10.3286 2.32768L14.3935 4.57765L14.3935 4.57767L14.3973 4.57972C14.592 4.68541 14.7916 4.85012 14.9789 5.05533C15.0135 5.09876 15.0307 5.16069 15.0172 5.23258C15.0032 5.30697 14.9594 5.37195 14.894 5.41014C14.8939 5.4102 14.8938 5.41027 14.8937 5.41033L9.11966 8.75478Z" fill="white" stroke="white"/>
<path d="M8.57232 10.6049V15.7198C8.57232 16.2898 7.99483 16.6648 7.48484 16.4173C5.93986 15.6598 3.33739 14.2423 3.33739 14.2423C2.4224 13.7248 1.67241 12.4199 1.67241 11.3474L1.67241 7.47742C1.67241 6.88493 2.2949 6.50993 2.8049 6.80243L8.19733 9.92989C8.42233 10.0724 8.57232 10.3274 8.57232 10.6049Z" fill="white"/>
<path d="M9.42838 10.6049L9.42838 15.7198C9.42838 16.2898 10.0059 16.6648 10.5159 16.4173C12.0608 15.6598 14.6633 14.2423 14.6633 14.2423C15.5783 13.7248 16.3283 12.4199 16.3283 11.3474V7.47742C16.3283 6.88493 15.7058 6.50993 15.1958 6.80243L9.80337 9.92989C9.57837 10.0724 9.42838 10.3274 9.42838 10.6049Z" fill="white"/>
</svg>
