<svg width="24" height="24" viewBox="0 0 24 24" fill="none" xmlns="http://www.w3.org/2000/svg">
<path d="M7.07812 4.21875H16.9219V8.53125H7.07812V4.21875Z" fill="#663BA5"/>
<path d="M2.85938 0V24H21.1406V0H2.85938ZM8.01562 21.1875H5.67188V19.7812H8.01562V21.1875ZM8.01562 18.375H5.67188V16.9688H8.01562V18.375ZM8.01562 15.5625H5.67188V14.1562H8.01562V15.5625ZM8.01562 12.75H5.67188V11.3438H8.01562V12.75ZM11.7656 21.1875H9.42188V19.7812H11.7656V21.1875ZM11.7656 18.375H9.42188V16.9688H11.7656V18.375ZM11.7656 15.5625H9.42188V14.1562H11.7656V15.5625ZM11.7656 12.75H9.42188V11.3438H11.7656V12.75ZM15.5156 21.1875H13.1719V19.7812H15.5156V21.1875ZM15.5156 18.375H13.1719V16.9688H15.5156V18.375ZM15.5156 15.5625H13.1719V14.1562H15.5156V15.5625ZM15.5156 12.75H13.1719V11.3438H15.5156V12.75ZM18.3281 21.1875H16.9219V16.9688H18.3281V21.1875ZM17.625 15.5625C17.2367 15.5625 16.9219 15.2477 16.9219 14.8594C16.9219 14.4711 17.2367 14.1562 17.625 14.1562C18.0133 14.1562 18.3281 14.4711 18.3281 14.8594C18.3281 15.2477 18.0133 15.5625 17.625 15.5625ZM17.625 12.75C17.2367 12.75 16.9219 12.4352 16.9219 12.0469C16.9219 11.6586 17.2367 11.3438 17.625 11.3438C18.0133 11.3438 18.3281 11.6586 18.3281 12.0469C18.3281 12.4352 18.0133 12.75 17.625 12.75ZM18.3281 9.9375H5.67188V2.8125H18.3281V9.9375Z" fill="#663BA5"/>
</svg>
