<svg width="18" height="19" viewBox="0 0 18 19" fill="none" xmlns="http://www.w3.org/2000/svg">
<path d="M15.4648 7.0497C14.6773 3.6542 11.6548 2.12549 8.99983 2.12549C8.99983 2.12549 8.99983 2.12549 8.99233 2.12549C6.34483 2.12549 3.31483 3.64685 2.52733 7.04235C1.64983 10.8347 4.01983 14.0465 6.16483 16.0676C6.95983 16.8173 7.97983 17.1921 8.99983 17.1921C10.0198 17.1921 11.0398 16.8173 11.8273 16.0676C13.9723 14.0465 16.3423 10.8421 15.4648 7.0497ZM8.99983 10.7318C7.69483 10.7318 6.63733 9.69555 6.63733 8.41672C6.63733 7.1379 7.69483 6.10161 8.99983 6.10161C10.3048 6.10161 11.3623 7.1379 11.3623 8.41672C11.3623 9.69555 10.3048 10.7318 8.99983 10.7318Z" fill="#663BA5"/>
</svg>
