<svg width="24" height="24" viewBox="0 0 24 24" fill="none" xmlns="http://www.w3.org/2000/svg">
<g clip-path="url(#clip0_2787_259)">
<path d="M7.84208 10.8044C8.00111 10.8046 8.15377 10.7413 8.26624 10.6289C8.3787 10.5164 8.44197 10.3638 8.44175 10.2047C8.44175 9.87348 8.71039 9.60483 9.04164 9.60483C9.37288 9.60483 9.64152 9.87348 9.64152 10.2047C9.64152 10.536 9.90995 10.8044 10.2412 10.8044C10.5727 10.8044 10.8411 10.536 10.8411 10.2047C10.8411 9.21076 10.0354 8.40527 9.04164 8.40527C8.0479 8.40527 7.24219 9.21076 7.24219 10.2047C7.24219 10.3638 7.30523 10.5164 7.4177 10.6289C7.53038 10.7413 7.68282 10.8046 7.84208 10.8044Z" fill="black"/>
<path d="M15.9714 14.7662C13.7313 15.886 10.351 15.886 8.11044 14.7662C7.81412 14.6179 7.45388 14.738 7.30561 15.0344C7.15756 15.3307 7.2775 15.6911 7.57382 15.8392C8.96997 16.4977 10.4975 16.8294 12.0408 16.8092C13.5841 16.8294 15.1119 16.4975 16.5078 15.8392C16.8041 15.6911 16.9243 15.3307 16.7762 15.0344C16.6279 14.738 16.2677 14.6179 15.9714 14.7662Z" fill="black"/>
<path d="M22.2362 9.6046H21.6363V7.80515C21.6348 6.14958 20.2929 4.80768 18.6373 4.80614H16.8379V3.49587C17.664 3.20395 18.1598 2.35892 18.0115 1.49522C17.8633 0.6313 17.1144 0 16.238 0C15.3616 0 14.6127 0.6313 14.4645 1.49522C14.3162 2.35892 14.812 3.20395 15.6381 3.49587V4.80614H8.44032V3.49587C9.26667 3.20395 9.76223 2.35892 9.61418 1.49522C9.46591 0.6313 8.71709 0 7.84065 0C6.96421 0 6.21517 0.6313 6.06712 1.49522C5.91885 2.35892 6.4144 3.20395 7.24076 3.49587V4.80614H5.44131C3.78574 4.8079 2.44406 6.14958 2.44231 7.80515V9.6046H1.84242C0.849118 9.60569 0.044067 10.4107 0.0429688 11.404V13.8034C0.044067 14.7967 0.849118 15.6017 1.84242 15.6028H2.44231V18.0019C2.44406 19.6577 3.78574 20.9994 5.44131 21.0012H8.44032V23.4003C8.44054 23.6184 8.55893 23.8192 8.7496 23.9248C8.94026 24.0305 9.17332 24.0243 9.35805 23.9088L14.0109 21.0012H18.6373C20.2929 20.9996 21.6348 19.6577 21.6363 18.0019V15.6028H22.2362C23.2295 15.6017 24.0346 14.7967 24.0357 13.8034V11.404C24.0346 10.4107 23.2295 9.60569 22.2362 9.6046ZM16.238 1.20725C16.5692 1.20725 16.8379 1.47567 16.8379 1.80692C16.8379 2.13838 16.5692 2.40681 16.238 2.40681C15.9068 2.40681 15.6381 2.13838 15.6381 1.80692C15.6388 1.47611 15.907 1.20791 16.238 1.20725ZM7.84065 1.20725C8.17189 1.20725 8.44032 1.47567 8.44032 1.80692C8.44032 2.13838 8.17189 2.40681 7.84065 2.40681C7.5094 2.40681 7.24076 2.13838 7.24076 1.80692C7.2412 1.47589 7.5094 1.20769 7.84065 1.20725ZM1.84242 14.403C1.51139 14.4028 1.24297 14.1344 1.24253 13.8034V11.404C1.24297 11.073 1.51139 10.8046 1.84242 10.8042H2.44231V14.403H1.84242ZM20.4368 18.0019C20.4357 18.9955 19.6306 19.8005 18.6373 19.8014H13.8387C13.7264 19.8014 13.6164 19.833 13.5213 19.8928L9.6401 22.3178V20.4013C9.6401 20.2422 9.57705 20.0896 9.46437 19.9771C9.3519 19.8647 9.19924 19.8014 9.04021 19.8014H5.44131C4.44801 19.8005 3.64296 18.9955 3.64186 18.0019V7.80515C3.64296 6.81185 4.44801 6.0068 5.44131 6.0057H18.6373C19.6306 6.0068 20.4357 6.81185 20.4368 7.80515V18.0019ZM22.8359 13.8034C22.8355 14.1344 22.5673 14.4026 22.2362 14.403H21.6363V10.8042H22.2362C22.5673 10.8048 22.8355 11.073 22.8359 11.404V13.8034Z" fill="black"/>
<path d="M15.0416 8.40527C14.0483 8.40637 13.2433 9.21142 13.2422 10.2047C13.2422 10.536 13.5106 10.8044 13.8419 10.8044C14.1733 10.8044 14.4417 10.536 14.4417 10.2047C14.4417 9.87348 14.7104 9.60483 15.0416 9.60483C15.3729 9.60483 15.6413 9.87348 15.6413 10.2047C15.6413 10.536 15.9099 10.8044 16.2412 10.8044C16.5724 10.8044 16.8411 10.536 16.8411 10.2047C16.84 9.21142 16.0349 8.40637 15.0416 8.40527Z" fill="black"/>
</g>
<defs>
<clipPath id="clip0_2787_259">
<rect width="24" height="24" fill="white"/>
</clipPath>
</defs>
</svg>
