<svg width="26" height="27" viewBox="0 0 26 27" fill="none" xmlns="http://www.w3.org/2000/svg">
<g clip-path="url(#clip0_2782_5854)">
<mask id="path-1-inside-1_2782_5854" fill="white">
<path d="M8.49558 12.3077C8.66787 12.308 8.83325 12.2389 8.95509 12.1162C9.07693 11.9935 9.14546 11.8269 9.14522 11.6534C9.14522 11.292 9.43625 10.9988 9.7951 10.9988C10.154 10.9988 10.445 11.292 10.445 11.6534C10.445 12.0148 10.7358 12.3077 11.0946 12.3077C11.4537 12.3077 11.7445 12.0148 11.7445 11.6534C11.7445 10.5688 10.8717 9.68994 9.7951 9.68994C8.71856 9.68994 7.8457 10.5688 7.8457 11.6534C7.8457 11.8269 7.914 11.9935 8.03584 12.1162C8.15791 12.2389 8.32306 12.308 8.49558 12.3077Z"/>
</mask>
<path d="M8.49558 12.3077C8.66787 12.308 8.83325 12.2389 8.95509 12.1162C9.07693 11.9935 9.14546 11.8269 9.14522 11.6534C9.14522 11.292 9.43625 10.9988 9.7951 10.9988C10.154 10.9988 10.445 11.292 10.445 11.6534C10.445 12.0148 10.7358 12.3077 11.0946 12.3077C11.4537 12.3077 11.7445 12.0148 11.7445 11.6534C11.7445 10.5688 10.8717 9.68994 9.7951 9.68994C8.71856 9.68994 7.8457 10.5688 7.8457 11.6534C7.8457 11.8269 7.914 11.9935 8.03584 12.1162C8.15791 12.2389 8.32306 12.308 8.49558 12.3077Z" fill="white"/>
<path d="M8.49558 12.3077L8.49767 10.8077L8.4935 10.8077L8.49558 12.3077ZM9.14522 11.6534H7.64522L7.64523 11.6554L9.14522 11.6534ZM8.03584 12.1162L6.97137 13.1731L6.97241 13.1741L8.03584 12.1162ZM8.4935 13.8077C9.06881 13.8085 9.61745 13.5781 10.0196 13.1731L7.89063 11.0594C8.04906 10.8998 8.26693 10.8074 8.49767 10.8077L8.4935 13.8077ZM10.0196 13.1731C10.4213 12.7684 10.646 12.2209 10.6452 11.6513L7.64523 11.6554C7.64492 11.4329 7.73255 11.2186 7.89063 11.0594L10.0196 13.1731ZM10.6452 11.6534C10.6452 12.1102 10.2748 12.4988 9.7951 12.4988V9.49883C8.59769 9.49883 7.64522 10.4737 7.64522 11.6534H10.6452ZM9.7951 12.4988C9.31539 12.4988 8.94498 12.1102 8.94498 11.6534H11.945C11.945 10.4737 10.9925 9.49883 9.7951 9.49883V12.4988ZM8.94498 11.6534C8.94498 12.8331 9.89721 13.8077 11.0946 13.8077V10.8077C11.5743 10.8077 11.945 11.1966 11.945 11.6534H8.94498ZM11.0946 13.8077C12.2919 13.8077 13.2445 12.8334 13.2445 11.6534H10.2445C10.2445 11.1962 10.6155 10.8077 11.0946 10.8077V13.8077ZM13.2445 11.6534C13.2445 9.75047 11.7101 8.18994 9.7951 8.18994V11.1899C10.0332 11.1899 10.2445 11.3872 10.2445 11.6534H13.2445ZM9.7951 8.18994C7.88011 8.18994 6.3457 9.75047 6.3457 11.6534H9.3457C9.3457 11.3872 9.557 11.1899 9.7951 11.1899V8.18994ZM6.3457 11.6534C6.3457 12.2201 6.56859 12.7674 6.97137 13.1731L9.1003 11.0594C9.25941 11.2196 9.3457 11.4338 9.3457 11.6534H6.3457ZM6.97241 13.1741C7.37392 13.5777 7.92157 13.8085 8.49767 13.8077L8.4935 10.8077C8.72455 10.8074 8.9419 10.9001 9.09927 11.0583L6.97241 13.1741Z" fill="white" mask="url(#path-1-inside-1_2782_5854)"/>
<path d="M8.33667 17.5245C8.33672 17.5246 8.33677 17.5246 8.33683 17.5246L8.33667 17.5245Z" fill="white" stroke="white" stroke-width="2"/>
<path d="M24.0915 10.999H23.4416V9.03556C23.44 7.2291 21.9863 5.7649 20.1927 5.76322L18.2433 5.76322V4.33354C19.1383 4.015 19.6754 3.09296 19.5148 2.15054C19.3541 1.20788 18.5429 0.519043 17.5934 0.519043C16.644 0.519043 15.8327 1.20788 15.6721 2.15054C15.5115 3.09296 16.0486 4.015 16.9436 4.33354V5.76322L9.14596 5.76322V4.33354C10.0412 4.015 10.578 3.09296 10.4176 2.15054C10.257 1.20788 9.44579 0.519043 8.49631 0.519043C7.54684 0.519043 6.73538 1.20788 6.57499 2.15054C6.41437 3.09296 6.95121 4.015 7.84643 4.33354V5.76322H5.89703C4.1035 5.76514 2.65001 7.2291 2.64811 9.03556L2.64811 10.999H1.99823C0.922156 11.0002 0.0500179 11.8786 0.0488281 12.9625L0.0488281 15.5805C0.0500179 16.6643 0.922156 17.5427 1.99823 17.5439H2.64811L2.64811 20.1617C2.65001 21.9684 4.1035 23.4324 5.89703 23.4343H9.14596V26.0521C9.14619 26.2901 9.27446 26.5091 9.48101 26.6244C9.68756 26.7397 9.94004 26.733 10.1402 26.6069L15.1807 23.4343H20.1927C21.9863 23.4326 23.44 21.9684 23.4416 20.1617V17.5439H24.0915C25.1676 17.5427 26.0397 16.6643 26.0409 15.5805V12.9625C26.0397 11.8786 25.1676 11.0002 24.0915 10.999ZM17.5934 1.83632C17.9523 1.83632 18.2433 2.12921 18.2433 2.49064C18.2433 2.85232 17.9523 3.14521 17.5934 3.14521C17.2346 3.14521 16.9436 2.85232 16.9436 2.49064C16.9443 2.12969 17.2348 1.83704 17.5934 1.83632ZM8.49631 1.83632C8.85516 1.83632 9.14596 2.12921 9.14596 2.49064C9.14596 2.85232 8.85516 3.14521 8.49631 3.14521C8.13746 3.14521 7.84643 2.85232 7.84643 2.49064C7.84691 2.12945 8.13746 1.8368 8.49631 1.83632ZM1.99823 16.2348C1.63962 16.2346 1.34883 15.9417 1.34835 15.5805L1.34835 12.9625C1.34883 12.6013 1.63962 12.3084 1.99823 12.3079H2.64811L2.64811 16.2348H1.99823ZM22.1421 20.1617C22.1409 21.2458 21.2688 22.1242 20.1927 22.1252H14.9942C14.8726 22.1252 14.7533 22.1597 14.6503 22.2249L10.4457 24.8709V22.7797C10.4457 22.6062 10.3774 22.4396 10.2553 22.3169C10.1335 22.1942 9.96812 22.1252 9.79584 22.1252H5.89703C4.82096 22.1242 3.94882 21.2458 3.94763 20.1617L3.94763 9.03556C3.94882 7.95173 4.82096 7.07331 5.89703 7.07211L20.1927 7.07211C21.2688 7.07331 22.1409 7.95173 22.1421 9.03556L22.1421 20.1617ZM24.7412 15.5805C24.7407 15.9417 24.4501 16.2343 24.0915 16.2348H23.4416V12.3079H24.0915C24.4501 12.3086 24.7407 12.6013 24.7412 12.9625V15.5805Z" fill="white"/>
<path d="M16.2932 9.68994C15.2171 9.69114 14.3449 10.5696 14.3438 11.6534C14.3438 12.0148 14.6345 12.3077 14.9934 12.3077C15.3525 12.3077 15.6433 12.0148 15.6433 11.6534C15.6433 11.292 15.9343 10.9988 16.2932 10.9988C16.652 10.9988 16.9428 11.292 16.9428 11.6534C16.9428 12.0148 17.2338 12.3077 17.5927 12.3077C17.9515 12.3077 18.2426 12.0148 18.2426 11.6534C18.2414 10.5696 17.3692 9.69114 16.2932 9.68994Z" fill="white"/>
</g>
<defs>
<clipPath id="clip0_2782_5854">
<rect width="26" height="26.1874" fill="white" transform="translate(0 0.519043)"/>
</clipPath>
</defs>
</svg>
