<svg width="36" height="36" viewBox="0 0 36 36" fill="none" xmlns="http://www.w3.org/2000/svg">
<circle cx="18" cy="18" r="18" fill="white"/>
<path d="M25.0003 13C25.0003 13.2 25.0003 13.3 25.0003 13.5C24.9003 15 24.2003 16.3 23.3003 17.2C22.2003 18.3 20.7003 19 19.0003 19H15.9003C15.4003 19 15.0003 19.4 14.9003 19.9L14.1003 25.2C14.0003 25.6 13.8003 25.9 13.4003 26C13.3003 26 13.2003 26 13.1003 26H11.2003C10.6003 26 10.1003 25.5 10.2003 24.8L12.6003 10.5C12.8003 9.1 14.1003 8 15.5003 8L20.0003 8C22.8003 8 25.0003 10.2 25.0003 13Z" fill="#002987"/>
<path d="M27.0003 17C27.0003 18.4 26.4003 19.6 25.5003 20.5C24.6003 21.4 23.4003 22 22.0003 22H19.9003C19.4003 22 19.0003 22.3 18.9003 22.8L18.2003 27.1C18.1003 27.6 17.7003 27.9 17.2003 27.9H14.2003C13.6003 27.9 13.1003 27.3 13.2003 26.7L13.4003 26C13.8003 25.9 14.1003 25.6 14.1003 25.2L14.9003 19.9C15.0003 19.4 15.4003 19 15.9003 19H19.0003C20.7003 19 22.2003 18.3 23.2003 17.2C24.2003 16.2 24.8003 14.9 24.9003 13.5C26.2003 14.2 27.0003 15.5 27.0003 17Z" fill="#0085CC"/>
</svg>
