<svg width="24" height="24" viewBox="0 0 24 24" fill="none" xmlns="http://www.w3.org/2000/svg">
<g clip-path="url(#clip0_2633_1477)">
<path d="M12.7031 9.4455V11.7374C14.0391 10.6042 15.7668 9.91919 17.6517 9.91919C20.2905 9.91919 22.6218 11.2604 24 13.2969V5.34375L12.7031 9.4455Z" fill="#663BA5"/>
<path d="M0 19.5135L11.2969 23.5825V21.8513C10.4733 20.6301 9.99188 19.1598 9.99188 17.5792C9.99188 15.9987 10.4733 14.5283 11.2969 13.307V9.4455L0 5.34375V19.5135Z" fill="#663BA5"/>
<path d="M23.279 4.10925L12.0001 0.046875L7.5625 1.6452L18.8096 5.73193L23.279 4.10925Z" fill="#663BA5"/>
<path d="M16.7496 6.47949L5.49408 2.38965L0.720703 4.10901L11.9996 8.20398L16.7496 6.47949Z" fill="#663BA5"/>
<path d="M17.652 11.2314C14.1522 11.2314 11.3047 14.0789 11.3047 17.579C11.3047 21.0789 14.1522 23.9263 17.652 23.9263C21.1521 23.9263 23.9996 21.0789 23.9996 17.579C23.9996 14.0789 21.1521 11.2314 17.652 11.2314ZM18.5064 20.1902L17.512 19.1958L18.3649 18.3429H14.2144V16.9366H18.3649L17.5328 16.1046L18.5271 15.1102L21.0567 17.6398L18.5064 20.1902Z" fill="#663BA5"/>
</g>
<defs>
<clipPath id="clip0_2633_1477">
<rect width="24" height="24" fill="white"/>
</clipPath>
</defs>
</svg>
