<svg width="36" height="37" viewBox="0 0 36 37" fill="none" xmlns="http://www.w3.org/2000/svg">
<path d="M24.114 5.14915L10.7781 9.5797C1.81356 12.5777 1.81356 17.4661 10.7781 20.4493L14.736 21.7637L16.0504 25.7217C19.0337 34.6862 23.9368 34.6862 26.92 25.7217L31.3654 12.4005C33.3443 6.41924 30.0953 3.1554 24.114 5.14915ZM24.5866 13.0946L18.9746 18.7362C18.7531 18.9577 18.4725 19.0611 18.1919 19.0611C17.9113 19.0611 17.6306 18.9577 17.4091 18.7362C16.9808 18.3079 16.9808 17.599 17.4091 17.1707L23.0212 11.5291C23.4494 11.1009 24.1583 11.1009 24.5866 11.5291C25.0149 11.9574 25.0149 12.6663 24.5866 13.0946Z" fill="white"/>
</svg>
