<svg width="50" height="150" viewBox="0 0 50 150" fill="none" xmlns="http://www.w3.org/2000/svg">
<circle cx="25" cy="125" r="25" fill="#F8F8F8"/>
<path d="M25.0003 127.263C22.5638 127.263 20.5732 125.283 20.5732 122.836C20.5732 120.39 22.5621 118.421 25.0003 118.421C27.4368 118.421 29.4274 120.401 29.4274 122.848C29.4274 125.294 27.4385 127.263 25.0003 127.263ZM25.0003 119.331C23.0705 119.331 21.483 120.903 21.483 122.848C21.483 124.792 23.0564 126.366 25.0003 126.366C26.9443 126.366 28.5177 124.792 28.5177 122.848C28.5177 120.903 26.9302 119.331 25.0003 119.331Z" fill="black" stroke="black"/>
<path d="M25.0004 138.699C23.1161 138.699 21.2191 137.986 19.7423 136.573C15.9865 132.957 11.836 127.19 13.402 120.327C14.8152 114.102 20.2515 111.313 25.0004 111.313C25.0004 111.313 25.0004 111.313 25.0131 111.313C29.7619 111.313 35.1983 114.102 36.6115 120.34C38.1647 127.202 34.0142 132.957 30.2585 136.573C28.7816 137.986 26.8846 138.699 25.0004 138.699ZM25.0004 113.223C21.2955 113.223 16.5339 115.197 15.2735 120.748C13.8985 126.744 17.667 131.913 21.0791 135.185C23.2816 137.311 26.7318 137.311 28.9344 135.185C32.3337 131.913 36.1022 126.744 34.7527 120.748C33.4795 115.197 28.7052 113.223 25.0004 113.223Z" fill="black"/>
<path d="M25 50V100.5" stroke="#6B6B6B" stroke-width="2" stroke-dasharray="4 4"/>
<circle cx="25" cy="25" r="25" fill="#F8F8F8"/>
<path d="M24.768 26.0959L24.7665 26.0951L13.5261 19.5902C13.5259 19.5901 13.5257 19.5899 13.5255 19.5898C13.3072 19.4621 13.2335 19.1833 13.3623 18.9626C13.4888 18.7458 13.7563 18.6673 13.9934 18.8009L24.7494 25.0254L24.9998 25.1703L25.2502 25.0254L35.9447 18.8379L35.9462 18.837C36.1583 18.7133 36.4426 18.7857 36.5753 19.0035C36.6968 19.2153 36.6242 19.4977 36.4074 19.6298L25.2672 26.0828C25.146 26.1367 25.0613 26.1551 24.9998 26.1551C24.9125 26.1551 24.8358 26.1355 24.768 26.0959Z" fill="black" stroke="black"/>
<path d="M25.0008 38.1896C24.4788 38.1896 24.0459 37.7567 24.0459 37.2347L24.0459 25.6873C24.0459 25.1653 24.4788 24.7324 25.0008 24.7324C25.5227 24.7324 25.9556 25.1653 25.9556 25.6873L25.9556 37.2347C25.9556 37.7567 25.5227 38.1896 25.0008 38.1896Z" fill="black"/>
<path d="M25.0003 38.6862C23.88 38.6862 22.7723 38.4442 21.8939 37.9604L15.0953 34.1792C13.2492 33.1607 11.8105 30.7035 11.8105 28.5901L11.8105 21.3968C11.8105 19.2834 13.2492 16.839 15.0953 15.8077L21.8939 12.0392C23.6381 11.0716 26.3626 11.0716 28.1068 12.0392L34.9054 15.8204C36.7515 16.8389 38.1901 19.2961 38.1901 21.4095V28.6028C38.1901 30.7163 36.7515 33.1607 34.9054 34.1919L28.1068 37.9604C27.2284 38.4442 26.1207 38.6862 25.0003 38.6862ZM25.0003 13.2232C24.1983 13.2232 23.4089 13.3887 22.8233 13.707L16.0247 17.4882C14.8024 18.1757 13.7203 19.9963 13.7203 21.4095L13.7203 28.6028C13.7203 30.0033 14.8024 31.8366 16.0247 32.5241L22.8233 36.3054C23.9818 36.9547 26.0189 36.9547 27.1774 36.3054L33.976 32.5241C35.1982 31.8366 36.2804 30.016 36.2804 28.6028V21.4095C36.2804 20.0091 35.1982 18.1757 33.976 17.4882L27.1774 13.707C26.5918 13.3887 25.8024 13.2232 25.0003 13.2232Z" fill="black"/>
<path d="M31.3665 27.5334C30.8445 27.5334 30.4116 27.1005 30.4116 26.5785V22.479L18.8005 15.7823C18.3422 15.5149 18.1894 14.9292 18.4567 14.4836C18.7241 14.0253 19.2971 13.8725 19.7554 14.1399L31.8375 21.1168C32.1304 21.2823 32.3214 21.6005 32.3214 21.9443V26.604C32.3214 27.1006 31.8885 27.5334 31.3665 27.5334Z" fill="black"/>
</svg>
