<svg width="36" height="36" viewBox="0 0 36 36" fill="none" xmlns="http://www.w3.org/2000/svg">
<circle cx="18" cy="18" r="18" fill="#663BA5"/>
<path d="M21.9535 10.1875L21.953 10.1876L13.6764 12.9373C13.6763 12.9374 13.6761 12.9374 13.6759 12.9375C12.3171 13.392 11.3371 13.906 10.7066 14.4273C10.0743 14.9501 9.84473 15.4337 9.84473 15.8399C9.84473 16.2459 10.0742 16.7289 10.7062 17.2505C11.3367 17.7707 12.3167 18.2831 13.6757 18.7354L16.1321 19.5511L16.37 19.6301L16.449 19.868L17.2648 22.3244L21.9535 10.1875ZM21.9535 10.1875C23.7327 9.59439 24.9264 9.84136 25.5448 10.4606C26.1637 11.0803 26.4102 12.2769 25.8218 14.0561C25.8217 14.0564 25.8216 14.0566 25.8215 14.0569L23.0627 22.324L23.0626 22.3244M21.9535 10.1875L23.0626 22.3244M23.0626 22.3244C22.6104 23.6833 22.0974 24.6633 21.5766 25.2937M23.0626 22.3244L21.5766 25.2937M21.5766 25.2937C21.0545 25.9257 20.5705 26.1554 20.1637 26.1554M21.5766 25.2937L20.1637 26.1554M20.1637 26.1554C19.7568 26.1554 19.2729 25.9257 18.7508 25.2937M20.1637 26.1554L18.7508 25.2937M18.7508 25.2937C18.23 24.6633 17.7171 23.6834 17.2649 22.3247L18.7508 25.2937ZM18.9589 18.5L18.9598 18.4991L22.4422 14.9983C22.4425 14.9981 22.4427 14.9979 22.4429 14.9977C22.9033 14.5365 22.9031 13.7804 22.4422 13.3196C21.9811 12.8585 21.2246 12.8585 20.7635 13.3196L20.7625 13.3205L17.2801 16.8212C17.28 16.8214 17.2798 16.8216 17.2796 16.8218C16.819 17.2829 16.8192 18.0391 17.2801 18.5C17.5163 18.7362 17.8199 18.8481 18.1195 18.8481C18.4191 18.8481 18.7227 18.7362 18.9589 18.5Z" fill="white" stroke="white"/>
</svg>
